<?xml version="1.0" encoding="utf-8"?>
<!-- Generator: Adobe Illustrator 16.0.0, SVG Export Plug-In . SVG Version: 6.00 Build 0)  -->
<!DOCTYPE svg PUBLIC "-//W3C//DTD SVG 1.1//EN" "http://www.w3.org/Graphics/SVG/1.1/DTD/svg11.dtd">
<svg version="1.1" id="Layer_1" xmlns="http://www.w3.org/2000/svg" xmlns:xlink="http://www.w3.org/1999/xlink" x="0px" y="0px"
	 width="360px" height="640px" viewBox="0 0 360 640" enable-background="new 0 0 360 640" xml:space="preserve">
<path opacity="0.15" fill="#FFFFFF" enable-background="new    " d="M-51.536,0.082c0,0.532,0.164,0.982,0.491,1.268
	c11.902,11.29,19.184,26.178,28.796,39.308c-3.804,15.707-4.868,32.273-11.494,47.203c-0.45,1.064-0.082,2.045,0.982,2.454
	c15.216,5.85,27.649,16.772,41.394,25.197c2.414,16.116,7.772,31.783,7.363,48.225c-0.042,0.9,0.777,1.677,1.677,1.677
	c16.402-0.45,32.027,4.908,48.062,7.363c8.386,13.825,19.306,26.301,25.114,41.557c0.409,1.064,1.392,1.473,2.455,0.982
	c14.848-6.667,31.373-7.731,47.039-11.534c13.048,9.653,27.896,16.975,39.187,28.878c0.614,0.654,1.759,0.654,2.373,0
	c11.247-11.944,26.095-19.267,39.186-28.878c15.666,3.803,32.15,4.908,47.038,11.534c1.063,0.451,2.045,0.083,2.453-0.982
	c5.809-15.256,16.729-27.732,25.115-41.557c16.033-2.455,31.659-7.813,48.062-7.363c0.9,0.041,1.678-0.777,1.678-1.677
	c-0.451-16.442,4.908-32.149,7.361-48.225c13.785-8.425,26.22-19.388,41.395-25.197c1.064-0.408,1.475-1.39,0.982-2.454
	c-6.627-14.93-7.731-31.454-11.494-47.203c9.49-13.088,16.771-28.019,28.674-39.308c0.326-0.286,0.49-0.736,0.49-1.185
	c0,0,0-0.042,0-0.083V0H-51.536V0.082z M-37.26,9.981c0-5.195,7.689-5.154,7.976,0C-29.529,15.094-37.26,15.135-37.26,9.981z
	 M118.049,13.785c-1.391,0.532-2.659,1.268-3.763,2.086c1.228-2.127,2.618-4.132,4.213-5.973c6.299-7.199,15.052-7.976,24.051-7.771
	c1.311,1.104,2.618,2.209,3.886,3.191c-4.009,0.531-8.018,1.799-11.207,4.172c-1.965,1.473-3.601,3.682-4.296,6.094
	C127.417,12.804,122.14,12.19,118.049,13.785z M139.812,10.636c3.517-1.637,7.443-2.249,11.248-2.332c0.04,0,0.081,0,0.081,0
	c1.964,0.9,4.132,1.473,6.586,1.391c-1.76,1.676-2.864,3.559-3.601,5.604c-0.041,0.041-0.123,0.083-0.163,0.123
	c-2.578,2.495-5.48,4.581-8.794,5.972c-3.354,1.432-9.122,2.332-10.921-1.964C132.694,15.543,136.701,12.108,139.812,10.636z
	 M230.328,15.543c-0.653-2.331-2.208-4.458-4.088-5.931c-3.19-2.453-7.281-3.722-11.371-4.294c1.308-1.023,2.576-2.086,3.885-3.191
	c8.998-0.163,17.71,0.614,24.051,7.771c1.639,1.841,2.987,3.845,4.254,5.973c-1.021-0.737-2.085-1.351-3.313-1.882
	C239.615,12.271,234.01,12.68,230.328,15.543z M210.246,8.304c3.559,0.083,7.076,0.655,10.389,2.005
	c3.354,1.35,8.102,4.826,6.342,9.12c-1.597,3.886-6.831,3.519-10.063,2.332c-3.64-1.309-6.872-3.682-9.611-6.34
	c-0.041-0.041-0.124-0.082-0.165-0.123c-0.734-2.004-1.882-3.885-3.599-5.604c2.494,0.082,4.622-0.491,6.584-1.391
	C210.165,8.304,210.206,8.304,210.246,8.304z M292.256,134.327c-0.163-0.042-0.326-0.083-0.489-0.083
	c-2.372,0-4.949-1.227-7.117-3.027c-2.332-2.126-3.967-5.112-3.764-7.934c0.409-5.931,6.994-8.754,12.106-8.835
	c0.819,0,1.474-0.695,1.516-1.514c0.081-5.154,2.903-11.739,8.794-12.148c2.903-0.205,5.931,1.473,8.057,3.926
	c1.76,2.127,2.904,4.623,2.904,6.953c0,0.164,0.041,0.329,0.083,0.492c-1.146,6.667-2.251,13.293-2.086,20.083
	C305.509,132.077,298.882,133.222,292.256,134.327z M217.692,183.615c-5.933,4.664-12.229,8.917-18.366,13.375
	c-1.352-1.881-2.659-3.763-4.008-5.645c9.608-7.445,20.205-13.948,28.223-23.315c5.889-6.872,10.02-15.706,8.343-24.542
	c1.514,1.104,2.864,2.332,3.847,4.05c4.132,7.198-0.205,15.666-3.641,22.128C227.835,175.149,222.395,179.893,217.692,183.615z
	 M235.891,172.366c3.313,0.165,3.313,5.154,0,5.154C232.58,177.521,232.62,172.531,235.891,172.366z M233.558,199.609
	c-2.044,2.208-5.192,1.84-7.033-0.164c2.291-1.963,4.581-4.13,6.709-6.503C235.075,194.699,235.482,197.563,233.558,199.609z
	 M243.787,202.882c-2.086,0.857-4.5-0.165-5.358-2.251c-0.898-2.249,0.246-4.336,2.209-5.398
	C245.587,193.636,248.819,200.755,243.787,202.882z M220.88,197.482c-6.134,0-6.095-9.203,0-9.531
	C226.935,188.279,227.015,197.482,220.88,197.482z M230.125,179.729c5.398,0.287,5.481,8.468,0,8.468
	C224.685,188.238,224.724,180.056,230.125,179.729z M127.702,199.609c-1.881-2.045-1.472-4.909,0.328-6.667
	c2.127,2.373,4.418,4.54,6.708,6.503C132.939,201.449,129.748,201.858,127.702,199.609z M117.519,202.882
	c-2.087-0.859-3.109-3.273-2.25-5.4c0.94-2.25,3.23-2.945,5.398-2.25c1.841,0.981,3.027,2.863,2.372,5.031
	C122.345,202.595,119.728,203.781,117.519,202.882z M140.423,187.951c6.055,0.328,6.137,9.531,0,9.531
	C134.289,197.482,134.329,188.279,140.423,187.951z M131.139,188.238c-5.479,0-5.398-8.182,0-8.468
	C136.578,180.056,136.62,188.238,131.139,188.238z M143.573,183.615c-4.703-3.722-10.145-8.466-14.356-13.947
	c-3.436-6.463-7.771-14.931-3.64-22.128c0.982-1.719,2.331-2.946,3.844-4.05c-1.677,8.836,2.455,17.67,8.344,24.542
	c7.978,9.327,18.57,15.83,28.225,23.315c-1.351,1.882-2.659,3.763-4.009,5.645C155.845,192.532,149.545,188.279,143.573,183.615z
	 M125.371,177.521c-3.313,0-3.313-4.989,0-5.154C128.686,172.531,128.725,177.521,125.371,177.521z M100.461,136.945
	c0.163-0.042,0.369-0.082,0.532-0.165c1.636-0.736,2.904-1.84,4.05-2.985c0.327-0.286,0.654-0.614,0.94-0.94
	c1.187-1.229,2.332-2.453,3.764-3.436c3.639-2.536,4.417,1.146,4.949,3.844c-4.172,9.858-15.789,12.721-25.605,12.844
	c-10.841,0.164-21.474-2.209-32.19-3.64c0.368-2.168,0.734-4.295,1.104-6.463c9.121,1.022,18.119,3.437,27.405,3.681
	C90.442,139.849,95.921,139.153,100.461,136.945z M49.005,132.282c0.205-6.79-0.939-13.416-2.086-20.083
	c0.042-0.163,0.082-0.327,0.082-0.491c0-2.372,1.229-4.99,3.028-7.117c2.127-2.331,5.071-3.967,7.935-3.763
	c5.891,0.41,8.713,6.995,8.794,12.149c0,0.818,0.694,1.472,1.514,1.513c5.152,0.082,11.696,2.904,12.106,8.834
	c0.204,2.905-1.473,5.932-3.886,8.101c-2.127,1.758-4.622,2.904-6.953,2.904c-0.165,0-0.328,0.041-0.492,0.082
	C62.38,133.222,55.795,132.077,49.005,132.282z M37.838,51.579c-1.104,1.514-2.331,2.863-4.008,3.845
	c-7.199,4.132-15.625-0.205-22.047-3.64c-5.44-4.254-10.185-9.695-13.907-14.44C-6.787,31.373-11,25.074-15.458,18.898
	c1.88-1.351,3.763-2.7,5.645-4.009c7.443,9.654,13.907,20.289,23.232,28.305C20.251,49.125,29.045,53.298,37.838,51.579z
	 M43.033,57.142c-1.228-3.435,1.187-7.854,3.682-10.021c2.862-2.454,6.667-3.517,10.308-4.09c7.976-1.309,16.155-1.799,24.215-2.658
	c0.123,0.367,0.246,0.695,0.368,1.063c0-0.041,0.204,0.327,0.448,0.817c-6.135,5.031-12.188,10.308-18.528,15.012
	c-3.354,2.454-7.281,4.826-11.576,4.786C48.882,62.01,44.219,60.415,43.033,57.142z M89.049,31.169
	c3.642-0.818,7.199,0.981,10.308,2.781c-0.9,3.354-2.086,6.954-4.989,8.999c-3.764,2.659-8.141,1.186-9.818-3.109
	C83.036,35.954,84.958,32.069,89.049,31.169z M45.979,37.1c-2.986-1.595-6.625-5.727-5.768-9.53c0.818-3.6,5.358-6.054,8.671-6.381
	c4.009-0.45,7.978,0.981,11.535,2.7c2.291,1.104,4.54,2.25,6.79,3.436c4.582,2.496,9.204,4.99,13.784,7.485
	c-0.163,0.655-0.245,1.35-0.285,2.045C73.221,37.55,65.736,38.451,58.25,38.9C54.159,39.145,49.7,39.104,45.979,37.1z
	 M141.734,25.851c4.05-0.532,7.812-2.536,11.125-5.072c-0.205,1.637-0.368,3.313-0.532,5.072
	c-5.769,6.013-12.067,11.617-20.901,11.576c-2.986,0-5.891-0.532-8.754-1.268c1.269-0.205,2.495-0.531,3.765-1.064
	c4.172-1.717,7.729-5.971,8.262-10.552C136.784,25.728,139.403,26.138,141.734,25.851z M226.69,24.502
	c0.49,4.459,3.722,8.631,7.771,10.43c1.393,0.613,2.781,0.981,4.215,1.227c-2.863,0.736-5.81,1.268-8.795,1.268
	c-8.835,0.041-15.134-5.563-20.901-11.616c-0.163-1.719-0.326-3.437-0.532-5.073c3.231,2.455,6.954,4.459,10.88,5.031
	C221.74,26.179,224.521,25.769,226.69,24.502z M276.756,39.881c-1.475,3.845-5.481,5.727-9.164,3.559
	c-3.354-1.963-4.703-5.849-5.686-9.49c2.946-1.717,6.137-3.313,9.612-2.863C275.979,31.66,278.39,35.587,276.756,39.881z
	 M293.075,27.815c2.413-1.268,4.785-2.496,7.238-3.681c3.724-1.841,7.854-3.436,12.066-2.945c3.314,0.369,7.854,2.782,8.673,6.381
	c0.857,3.803-2.782,7.935-5.768,9.53c-3.561,1.923-7.771,2.004-11.741,1.8c-7.688-0.45-15.378-1.35-23.067-2.086
	c0-0.695-0.122-1.391-0.246-2.045C284.528,32.438,288.822,30.105,293.075,27.815z M252.048,71.827
	c-10.102,10.185-25.808,11.658-37.917,4.417c0.738-2.618,1.68-5.236,2.619-7.894c9.04,6.463,21.597,5.931,29.695-2.167
	c8.14-8.14,8.589-20.738,2.168-29.818c2.618-0.941,5.233-1.881,7.854-2.618C263.666,45.935,262.153,61.642,252.048,71.827z
	 M96.863,79.475c-0.982,2.7-4.091,6.095-7.118,6.095c-2.741,0-5.604-2.904-6.709-5.317c-1.635-3.517-1.228-7.526-0.368-11.207
	c0.409-1.718,0.819-3.395,1.31-5.113c0.123-0.45,0.246-0.859,0.408-1.309c1.556-4.99,3.109-9.981,4.623-14.971
	c0.572,0.081,1.188,0.123,1.76,0.123c2.045,6.872,4.295,13.744,6.012,20.697C97.68,72.031,98.171,75.917,96.863,79.475z
	 M105.533,75.548c2.25,2.455-1.31,6.014-3.64,3.642C99.521,76.858,103.079,73.299,105.533,75.548z M220.428,56.161
	c0.451,0.735,0.983,1.43,1.639,2.085c4.458,4.5,12.024,4.5,16.484,0c4.456-4.5,4.499-12.025,0-16.525
	c-0.654-0.654-1.351-1.187-2.088-1.636c2.986-0.614,5.975-1.514,8.918-2.537c6.177,7.772,5.892,19.143-1.269,26.301
	c-7.158,7.158-18.448,7.444-26.218,1.269C218.916,62.133,219.816,59.188,220.428,56.161z M210.736,73.094
	c-4.334-1.962-8.835-4.212-11.657-8.139c-3.272-4.5-3.721-12.599,2.62-14.807c5.808-2.004,10.511,3.149,11.533,8.425
	C214.131,63.523,212.455,68.473,210.736,73.094z M224.399,55.875c-3.272-3.354-3.108-8.426,0-11.821
	c3.354-3.067,8.467-3.314,11.78,0c3.189,3.23,3.189,8.589,0,11.821C232.989,59.106,227.589,59.146,224.399,55.875z M217.772,49.575
	c0,2.986-0.53,5.931-1.267,8.794c-0.206-1.269-0.534-2.537-1.063-3.763c-1.719-4.173-5.932-7.772-10.516-8.304
	c1.188-2.127,1.598-4.745,1.27-7.118c-0.53-4.049-2.535-7.853-5.029-11.167c1.636,0.205,3.313,0.368,5.029,0.532
	C212.25,34.4,217.813,40.699,217.772,49.575z M196.011,50.066c-2.781,3.518-3.395,8.835-1.801,12.925
	c0.533,1.391,1.27,2.659,2.087,3.804c-2.087-1.227-4.131-2.618-5.972-4.254c-7.159-6.34-7.937-15.134-7.771-24.133
	c1.104-1.308,2.209-2.618,3.19-3.925c0.53,4.048,1.758,8.057,4.172,11.248C191.389,47.734,193.598,49.371,196.011,50.066z
	 M188.977,70.641c0,4.54-3.806,8.344-8.305,8.344c-4.539,0-8.303-3.805-8.303-8.344c0-4.704,3.764-8.14,8.303-8.345
	C185.172,62.46,188.977,65.938,188.977,70.641z M178.709,38.408c0.164,9.041-0.613,17.753-7.771,24.133
	c-1.842,1.637-3.846,3.028-5.973,4.254c0.736-1.023,1.351-2.127,1.882-3.313c1.719-4.131,1.311-9.736-1.554-13.417
	c2.33-0.654,4.458-2.25,5.891-4.131c2.494-3.23,3.763-7.322,4.294-11.452C176.5,35.79,177.606,37.1,178.709,38.408z M143.532,49.575
	c-0.041-8.876,5.563-15.216,11.576-20.983c1.718-0.164,3.395-0.327,5.03-0.532c-2.454,3.231-4.417,6.953-5.03,10.922
	c-0.369,2.454,0.041,5.194,1.268,7.402c-4.458,0.491-8.589,3.722-10.389,7.813c-0.614,1.391-0.982,2.782-1.228,4.213
	C144.024,55.547,143.532,52.602,143.532,49.575z M136.906,55.875c-3.191,3.231-8.549,3.231-11.781,0
	c-3.189-3.191-3.23-8.63,0-11.821c3.354-3.272,8.386-3.108,11.781,0C139.974,47.449,140.179,52.561,136.906,55.875z M124.881,40.086
	c-0.735,0.449-1.432,0.981-2.086,1.636c-4.499,4.458-4.499,12.066,0,16.525c4.5,4.458,11.984,4.5,16.484,0
	c0.655-0.655,1.187-1.35,1.636-2.085c0.613,3.026,1.513,5.971,2.536,8.916c-7.731,6.177-19.062,5.891-26.22-1.268
	c-7.158-7.158-7.402-18.529-1.268-26.3C118.909,38.573,121.855,39.472,124.881,40.086z M148.114,58.574
	c0.981-5.235,5.726-10.429,11.535-8.425c6.299,2.168,5.89,10.308,2.617,14.807c-2.862,3.926-7.362,6.135-11.657,8.139
	C148.81,68.473,147.173,63.523,148.114,58.574z M161.243,72.522c2.781-1.349,5.521-2.781,8.1-4.499
	c-0.204,0.859-0.328,1.718-0.328,2.618c0,6.34,5.318,11.698,11.657,11.698c6.34,0,11.657-5.318,11.657-11.698
	c0-0.941-0.123-1.8-0.327-2.659c2.578,1.718,5.319,3.15,8.101,4.54c-1.105,9.898-9.324,17.711-19.43,17.711
	C170.57,90.192,162.349,82.38,161.243,72.522z M180.631,93.547c11.455,0,20.697-8.59,22.539-19.552
	c2.495,1.186,4.99,2.414,7.404,3.722c-3.479,13.744-15.625,23.765-29.943,23.765c-14.314,0-26.465-10.061-29.939-23.765
	c2.414-1.35,4.907-2.536,7.402-3.722C159.935,84.998,169.179,93.547,180.631,93.547z M223.294,86.757
	c2.66,3.804,1.187,8.181-3.067,9.858c-3.927,1.513-7.771-0.409-8.672-4.542c-0.818-3.639,0.982-7.239,2.781-10.348
	C217.692,82.625,221.248,83.811,223.294,86.757z M259.656,84.22c2.701,0.982,6.054,4.09,6.054,7.117c0,2.74-2.902,5.604-5.315,6.748
	c-3.479,1.636-7.485,1.229-11.166,0.369c-1.68-0.409-3.396-0.858-5.073-1.31c-0.449-0.122-0.858-0.286-1.31-0.408
	c-4.948-1.555-9.938-3.108-14.889-4.664c0.081-0.571,0.123-1.186,0.123-1.759c6.829-2.044,13.703-4.335,20.613-6.012
	C252.255,83.444,256.138,82.912,259.656,84.22z M149.832,91.379c-0.573,4.458-4.5,6.872-8.753,5.236
	c-3.805-1.473-5.727-5.522-3.559-9.204c1.963-3.395,5.849-4.744,9.448-5.685C148.688,84.67,150.281,87.902,149.832,91.379z
	 M119.031,96.573c-0.163,0.042-0.286,0.082-0.45,0.123c-1.962,0.573-3.927,1.104-5.931,1.596c-3.56,0.9-7.445,1.43-10.962,0.122
	c-2.699-0.981-6.096-4.09-6.096-7.117c0-2.741,2.863-5.604,5.276-6.749c3.477-1.636,7.486-1.268,11.167-0.409
	c7.158,1.636,14.194,4.048,21.27,6.175c0,0.573,0.042,1.188,0.123,1.718C128.604,93.588,123.818,95.101,119.031,96.573z
	 M57.922,84.916c2.74,2.986,2.945,7.567,0,10.553c-2.862,2.863-7.649,2.863-10.512,0c-2.863-2.863-2.904-7.69,0-10.553
	C50.397,81.971,54.937,82.135,57.922,84.916z M71.828,92.606c4.622-5.031,12.229-4.909,17.057-0.369
	c4.418,4.745,4.704,12.108,0,16.812c-4.581,4.581-12.188,4.581-16.729,0C67.698,104.59,67.575,97.228,71.828,92.606z
	 M102.179,108.639c2.413-3.108,6.013-4.908,9.613-6.257c1.881-0.696,3.803-1.35,5.768-2.005c0.653-0.205,1.309-0.409,1.963-0.614
	c5.031-1.513,10.062-3.026,15.094-4.539c0.368,0.573,0.777,1.104,1.226,1.635c-4.908,5.972-9.693,12.108-14.847,17.874
	c-2.618,2.946-5.688,5.892-9.571,7.037c-3.436,1.021-8.754,0.531-10.921-2.823C98.62,116.044,100.257,111.135,102.179,108.639z
	 M150.651,97.596c6.298,3.394,12.762,6.667,18.896,10.389c2.946,1.799,5.851,4.009,7.486,7.117c1.473,2.782,1.882,7.566-0.45,9.898
	c-2.169,2.167-6.504,1.923-9.163,0.737c-3.313-1.473-5.604-4.376-7.486-7.404c-0.98-1.595-1.923-3.19-2.821-4.867
	c-0.164-0.287-0.327-0.573-0.45-0.9c-2.413-4.623-4.826-9.244-7.28-13.866C149.79,98.414,150.241,98.004,150.651,97.596z
	 M180.631,106.758c3.314,0.163,3.314,5.195,0,5.195C177.32,111.953,177.361,106.963,180.631,106.758z M184.763,125.001
	c-2.169-2.167-1.964-6.545-0.776-9.203c1.472-3.313,4.336-5.644,7.32-7.526c6.22-3.885,12.885-7.199,19.348-10.675
	c0.408,0.449,0.858,0.817,1.309,1.145c-2.33,4.459-4.661,8.875-6.995,13.335c-0.161,0.327-0.366,0.653-0.529,1.023
	c-0.899,1.634-1.842,3.23-2.78,4.826c-1.802,2.986-3.967,5.849-7.077,7.526C191.881,126.883,187.093,127.332,184.763,125.001z
	 M225.503,96.982c0.327-0.327,0.654-0.694,0.94-1.104c0.122-0.164,0.246-0.368,0.369-0.573c4.784,1.432,9.569,2.864,14.355,4.295
	c0.081,0.041,0.205,0.041,0.286,0.082c2.536,0.778,5.031,1.636,7.525,2.495c3.559,1.267,7.157,2.945,9.734,5.85
	c2.333,2.658,4.009,7.567,2.168,10.962c-1.8,3.23-7.279,3.845-10.389,2.986c-3.926-1.063-6.995-3.804-9.694-6.75
	C235.361,109.417,230.493,103.077,225.503,96.982z M272.747,109.376c-5.032-4.622-4.868-12.271-0.368-17.139
	c4.703-4.417,12.065-4.703,16.729,0c4.582,4.582,4.541,12.231,0,16.812C284.691,113.507,277.367,113.629,272.747,109.376z
	 M303.381,95.469c-2.943-2.986-2.78-7.526,0-10.553c2.987-2.741,7.569-2.944,10.514,0c2.862,2.863,2.862,7.69,0,10.553
	S306.205,98.373,303.381,95.469z M271.519,85.53c-2.739,0-5.604-2.863-6.749-5.317c-1.637-3.518-1.27-7.527-0.408-11.208
	c1.636-7.198,4.049-14.275,6.177-21.311c0.571,0,1.186-0.041,1.717-0.123c1.475,4.827,2.985,9.613,4.458,14.439
	c0.043,0.165,0.083,0.286,0.124,0.45c0.572,1.963,1.104,3.968,1.597,5.931c0.898,3.559,1.392,7.444,0.12,11.003
	C277.615,82.135,274.504,85.53,271.519,85.53z M255.771,75.548c2.453-2.249,6.013,1.31,3.642,3.642
	C257.04,81.563,253.522,78.003,255.771,75.548z M195.725,26.752c0.043,0.04,0.08,0.122,0.122,0.163
	c2.494,2.577,4.581,5.48,5.974,8.794c1.392,3.354,2.331,9.162-1.965,10.961c-3.886,1.596-7.321-2.413-8.753-5.521
	c-1.636-3.518-2.249-7.444-2.329-11.29c0-0.041,0-0.082,0-0.082c0.897-1.963,1.431-4.13,1.389-6.626
	C191.798,24.91,193.679,26.015,195.725,26.752z M185.213,29.738c-1.227,2.127-2.944,3.967-4.582,5.849
	c-1.512-1.759-3.107-3.437-4.295-5.399c-2.085-3.396-2.249-7.077-1.267-10.881c1.227-4.907,3.845-9.244,5.603-13.948
	c1.758,4.704,4.378,9.081,5.604,13.948C187.136,22.907,187.093,26.506,185.213,29.738z M172.532,29.778c0,0.042,0,0.042,0,0.082
	c-0.081,3.6-0.654,7.117-2.003,10.431c-1.351,3.354-4.827,8.139-9.081,6.38c-3.886-1.595-3.478-6.871-2.332-10.103
	c1.31-3.64,3.681-6.872,6.34-9.653c0.041-0.041,0.082-0.123,0.123-0.163c2.004-0.737,3.886-1.881,5.563-3.601
	C171.102,25.647,171.633,27.815,172.532,29.778z M112.693,36.405c-6.423,9.08-5.933,21.679,2.167,29.818
	c8.099,8.14,20.696,8.59,29.695,2.167c0.94,2.618,1.842,5.236,2.618,7.895c-12.106,7.24-27.772,5.726-37.917-4.417
	c-10.144-10.145-11.617-25.893-4.417-38.041C107.455,34.523,110.073,35.464,112.693,36.405z M65.981,60.415
	c5.809-5.317,12.106-10.226,18.16-15.257c0.327,0.327,0.695,0.654,1.105,0.941c0.163,0.123,0.367,0.245,0.571,0.368
	c-1.433,4.785-2.863,9.612-4.294,14.397c-0.04,0.082-0.04,0.204-0.082,0.286c-0.777,2.536-1.596,5.032-2.496,7.527
	c-1.269,3.599-2.944,7.199-5.809,9.735c-2.657,2.331-7.566,4.049-10.922,2.168c-3.229-1.8-3.803-7.322-2.943-10.431
	C60.335,66.223,63.035,63.114,65.981,60.415z M51.867,71.336c-0.98,1.432-2.208,2.577-3.437,3.763
	c-0.325,0.328-0.653,0.655-0.98,0.982c-1.146,1.187-2.208,2.414-2.945,4.05c-0.082,0.204-0.124,0.368-0.164,0.531
	c-2.167,4.541-2.862,10.021-2.739,15.135c0.244,9.284,2.617,18.324,3.641,27.487c-2.128,0.368-4.295,0.735-6.422,1.104
	c-1.433-10.717-3.806-21.433-3.642-32.272c0.164-9.858,2.986-21.516,12.803-25.729C50.764,66.877,54.363,67.696,51.867,71.336z
	 M85.696,133.877c-2.863-2.863-2.904-7.689,0-10.554c2.985-2.944,7.526-2.781,10.513,0c2.739,2.987,2.944,7.568,0,10.554
	C93.303,136.74,88.558,136.74,85.696,133.877z M118.99,129.91c-0.163-4.336,2.004-8.303,4.418-11.699
	c4.703-6.585,10.143-12.762,15.256-19.062c0.245,0.124,0.531,0.287,0.817,0.369c0.37,0.164,0.736,0.286,1.104,0.368
	c-0.817,7.894-1.35,15.871-2.536,23.725c-0.531,3.64-1.474,7.362-3.722,10.348c-2.126,2.822-6.708,5.685-10.431,4.295
	C120.872,137.149,119.113,132.814,118.99,129.91z M143.861,135.308c-1.922-3.558-2.005-7.812-1.8-11.78
	c0.448-7.73,1.35-15.461,2.085-23.151c0.695,0,1.35-0.123,2.045-0.245c2.291,4.295,4.623,8.59,6.913,12.844
	c1.268,2.413,2.494,4.826,3.681,7.28c1.799,3.763,3.395,7.895,2.945,12.108c-0.368,3.354-2.782,7.895-6.382,8.712
	C149.586,141.975,145.455,138.336,143.861,135.308z M164.802,158.378c4.458-3.886,11.125-1.226,14.768,2.373
	c0.572,0.572,1.513,0.572,2.126,0c3.682-3.599,10.307-6.259,14.766-2.373c2.045,1.759,3.027,4.827,2.986,7.854
	c-0.164,2.986-1.105,5.85-2.904,7.649c-0.123,0.123-0.206,0.245-0.286,0.367c-5.521,3.928-11.004,7.813-15.625,12.762
	c-4.622-4.949-10.143-8.876-15.625-12.762c-0.082-0.123-0.164-0.245-0.286-0.367c-1.718-1.718-2.658-4.418-2.863-7.239
	C161.735,163.45,162.675,160.219,164.802,158.378z M153.595,162.101c-9.611,0.041-9.529-14.48,0-14.93
	C163.084,147.661,163.206,162.101,153.595,162.101z M207.71,147.212c9.49,0.45,9.612,14.889,0,14.93
	C198.096,162.141,198.179,147.661,207.71,147.212z M180.631,154.165c-6.298,0-11.574-5.113-11.82-11.413
	c-0.286-6.79,5.194-12.105,11.82-12.351c6.423,0.203,11.861,5.234,11.822,11.861C192.453,148.724,187.136,154.165,180.631,154.165z
	 M139.566,141.075c0.654,1.8,0.164,4.214,0.164,6.095c0,2.127,0.245,4.132,0.98,6.136c0.083,0.203,0.165,0.367,0.287,0.49
	c1.881,5.358,5.931,10.185,10.226,13.99c6.423,5.685,13.826,10.102,20.493,15.461c-1.269,1.799-2.536,3.559-3.764,5.358
	c-8.017-6.136-16.566-11.658-23.806-18.733c-7.485-7.322-14.848-18.081-10.554-28.797c0.041-0.041,0.082-0.082,0.123-0.123
	C135.637,139.522,138.298,137.476,139.566,141.075z M173.964,185.211c1.638,1.432,3.232,2.945,4.705,4.539
	c-2.945,4.418-5.851,8.835-8.795,13.254c-1.799-1.432-3.64-2.864-5.479-4.254C167.584,194.21,170.774,189.71,173.964,185.211z
	 M180.631,192.165c2.823,4.253,5.645,8.508,8.466,12.762c-2.984,2.535-5.806,5.194-8.466,8.098
	c-2.658-2.903-5.479-5.604-8.467-8.098C174.988,200.631,177.81,196.418,180.631,192.165z M182.635,189.75
	c1.473-1.594,3.068-3.107,4.706-4.539c3.188,4.499,6.379,9.039,9.569,13.539c-1.842,1.391-3.682,2.781-5.48,4.254
	C188.485,198.586,185.582,194.169,182.635,189.75z M217.2,169.872c-7.242,7.076-15.788,12.598-23.807,18.733
	c-1.268-1.8-2.536-3.559-3.763-5.358c6.666-5.359,14.068-9.776,20.49-15.461c4.255-3.805,8.346-8.632,10.229-13.99
	c0.12-0.123,0.202-0.287,0.283-0.49c0.736-2.004,0.982-4.009,0.982-6.136c0-1.922-0.491-4.295,0.162-6.095
	c1.311-3.599,3.968-1.513,5.932-0.082c0.041,0.041,0.083,0.082,0.124,0.082C232.048,151.792,224.685,162.591,217.2,169.872z
	 M207.915,141.117c-3.6-0.818-6.015-5.358-6.381-8.712c-0.451-4.049,0.979-8.017,2.698-11.576c1.104-2.291,2.25-4.582,3.396-6.831
	c2.494-4.623,4.99-9.244,7.443-13.826c0.653,0.164,1.351,0.245,2.047,0.287c0.694,7.526,1.552,15.011,2.045,22.537
	c0.285,4.132,0.245,8.59-1.76,12.354C215.849,138.336,211.718,141.975,207.915,141.117z M227.425,134.573
	c-2.453-2.905-3.477-6.709-4.09-10.349c-1.31-8.018-1.801-16.197-2.619-24.297c0.369-0.122,0.695-0.245,1.063-0.367
	c-0.04,0,0.329-0.205,0.818-0.45c4.99,6.176,10.268,12.23,14.932,18.611c2.453,3.354,4.785,7.28,4.785,11.616
	c-0.041,3.068-1.597,7.772-4.868,8.958C234.01,139.522,229.552,137.067,227.425,134.573z M246.61,133.263
	c0.53-2.74,1.35-6.339,4.948-3.844c1.432,0.983,2.576,2.25,3.765,3.436c0.327,0.327,0.613,0.654,0.98,0.981
	c1.187,1.145,2.412,2.208,4.01,2.944c0.203,0.083,0.366,0.123,0.53,0.165c4.539,2.208,9.98,2.862,15.095,2.74
	c9.241-0.245,18.24-2.659,27.402-3.681c0.369,2.167,0.736,4.295,1.106,6.463c-10.677,1.431-21.354,3.845-32.192,3.64
	C262.398,145.944,250.782,143.121,246.61,133.263z M265.098,133.877c-2.945-2.986-2.782-7.526,0-10.554
	c2.985-2.74,7.565-2.944,10.511,0c2.862,2.864,2.862,7.69,0,10.554C272.786,136.74,267.962,136.781,265.098,133.877z
	 M316.021,123.283c1.023-9.163,3.396-18.203,3.643-27.487c0.122-5.113-0.532-10.594-2.741-15.135
	c-0.04-0.164-0.081-0.368-0.164-0.531c-0.736-1.636-1.798-2.905-2.985-4.09c-0.286-0.328-0.613-0.655-0.94-0.942
	c-1.228-1.186-2.455-2.331-3.436-3.763c-2.537-3.64,1.104-4.417,3.805-4.95c9.813,4.213,12.679,15.871,12.802,25.729
	c0.164,10.879-2.208,21.556-3.641,32.272C320.317,124.019,318.19,123.651,316.021,123.283z M301.91,69.658
	c1.022,3.478,0.529,8.794-2.822,10.962c-2.944,1.883-7.854,0.246-10.307-1.676c-3.109-2.414-4.909-6.013-6.219-9.653
	c-0.695-1.922-1.351-3.845-1.964-5.768c-0.205-0.654-0.407-1.309-0.611-1.963c-1.517-5.072-2.987-10.103-4.5-15.175
	c0.57-0.367,1.104-0.777,1.595-1.227c5.972,4.949,12.066,9.734,17.793,14.888C297.821,62.664,300.723,65.732,301.91,69.658z
	 M298.27,57.592c-6.587-4.744-12.721-10.185-18.979-15.296c0.123-0.246,0.288-0.532,0.368-0.819
	c0.166-0.369,0.286-0.737,0.368-1.104c7.854,0.817,15.829,1.35,23.644,2.536c3.64,0.573,7.32,1.473,10.307,3.763
	c2.823,2.127,5.646,6.75,4.295,10.471c-1.104,3.027-5.439,4.787-8.345,4.909C305.591,62.175,301.665,60.046,298.27,57.592z
	 M327.515,55.424c-1.676-0.982-2.944-2.331-4.008-3.845c8.794,1.719,17.588-2.454,24.419-8.385
	c9.285-8.017,15.787-18.651,23.19-28.305c1.883,1.351,3.765,2.7,5.646,4.009c-4.417,6.135-8.671,12.475-13.335,18.446
	c-3.68,4.745-8.466,10.145-13.866,14.44C343.099,55.261,334.673,59.556,327.515,55.424z M365.022,6.873
	c1.434-1.636,2.905-3.232,4.542-4.705c4.377,2.945,8.794,5.89,13.171,8.836c-1.433,1.799-2.862,3.639-4.213,5.521
	C374.023,13.294,369.523,10.104,365.022,6.873z M368.419,12.967c-6.136,8.017-11.617,16.607-18.652,23.888
	c-7.28,7.485-17.996,14.93-28.713,10.594c-0.042-0.042-0.083-0.081-0.123-0.165c-1.432-1.962-3.478-4.622,0.123-5.93
	c1.799-0.655,4.212-0.164,6.093-0.164c2.129,0,4.134-0.245,6.138-0.981c0.202-0.082,0.368-0.164,0.49-0.286
	c5.316-1.883,10.145-5.973,13.947-10.267c5.688-6.422,10.063-13.866,15.421-20.534C364.901,10.43,366.659,11.699,368.419,12.967z
	 M341.995,27.324c0.041,9.613-14.397,9.531-14.85,0C327.597,17.793,341.995,17.671,341.995,27.324z M298.391,21.026
	c-1.595,0.98-3.188,1.922-4.823,2.862c-0.287,0.164-0.575,0.327-0.901,0.491c-4.622,2.413-9.204,4.868-13.825,7.281
	c-0.328-0.491-0.736-0.899-1.145-1.309c3.436-6.381,6.666-12.885,10.389-19.02c1.8-2.944,3.966-5.85,7.117-7.526
	c2.74-1.473,7.523-1.881,9.856,0.45c2.168,2.167,1.923,6.543,0.736,9.203C304.282,16.813,301.419,19.143,298.391,21.026z
	 M253.318,30.391c-4.582,1.718-9.53,3.396-14.438,2.455c-5.237-0.981-10.391-5.726-8.386-11.576
	c2.168-6.34,10.267-5.89,14.726-2.618C249.104,21.516,251.354,26.015,253.318,30.391z M197.893,9.613
	c2.74,1.636,5.276,3.845,6.423,6.913c1.021,2.741,1.104,5.768,1.268,8.712c-2.742-0.164-5.563-0.245-8.14-1.146
	c-3.313-1.145-5.646-3.64-7.402-6.585c-2.497-4.294-3.724-9.162-5.769-13.661C188.774,5.89,193.639,7.117,197.893,9.613z
	 M171.224,17.507c-1.595,2.741-3.845,5.276-6.871,6.422c-2.74,1.023-5.769,1.104-8.672,1.309c0.164-2.74,0.245-5.603,1.104-8.18
	c1.146-3.313,3.6-5.687,6.585-7.404c4.253-2.536,9.121-3.763,13.622-5.808C174.947,8.344,173.719,13.212,171.224,17.507z
	 M130.812,21.27c2.004,5.808-3.15,10.553-8.386,11.576c-4.907,0.941-9.856-0.736-14.438-2.455c1.963-4.335,4.213-8.875,8.099-11.698
	C120.586,15.381,128.645,14.93,130.812,21.27z M82.423,31.619c-4.418-2.332-8.835-4.664-13.294-6.995
	c-0.327-0.164-0.655-0.368-1.021-0.532c-1.637-0.899-3.231-1.839-4.787-2.782c-2.945-1.799-5.85-3.967-7.527-7.117
	c-5.848-11.084,8.06-17.915,17.14-3.313c3.887,6.257,7.158,12.925,10.636,19.429C83.159,30.719,82.75,31.169,82.423,31.619z
	 M34.157,27.324c-0.45,9.531-14.85,9.653-14.85,0C19.269,17.712,33.707,17.793,34.157,27.324z M13.582,29.738
	c3.804,4.294,8.631,8.384,13.949,10.267c0.123,0.123,0.286,0.205,0.49,0.286c2.004,0.736,4.009,0.981,6.136,0.981
	c1.922,0,4.253-0.49,6.095,0.164c3.6,1.309,1.513,3.967,0.081,5.971c-0.04,0.042-0.081,0.082-0.081,0.123
	c-10.676,4.294-21.434-3.109-28.715-10.594c-7.035-7.28-12.557-15.87-18.652-23.887c1.761-1.268,3.561-2.536,5.318-3.804
	C3.522,15.871,7.898,23.315,13.582,29.738z M-17.217,16.485c-1.393-1.881-2.783-3.722-4.214-5.522
	c4.377-2.945,8.794-5.89,13.171-8.835c1.595,1.473,3.107,3.067,4.541,4.704C-8.219,10.104-12.719,13.294-17.217,16.485z
	 M-30.142,19.184c0-5.359,7.976-5.318,8.263,0C-22.167,24.502-30.142,24.543-30.142,19.184z M-23.68,29.41
	c0-6.135,9.162-6.095,9.49,0C-14.517,35.505-23.68,35.545-23.68,29.41z M-15.949,40.535c0-6.136,9.162-6.094,9.489,0
	C-6.787,46.63-15.949,46.671-15.949,40.535z M1.721,49.821c-0.285,5.44-8.467,5.48-8.467,0C-6.746,44.34,1.394,44.381,1.721,49.821z
	 M-18.118,53.298c-2.209-2.045-1.841-5.235,0.164-7.076c1.963,2.29,4.131,4.621,6.504,6.748
	C-13.209,54.77-16.032,55.179-18.118,53.298z M9.083,55.629c-0.164,3.313-5.154,3.354-5.154,0
	C3.929,52.274,8.92,52.316,9.083,55.629z M18.737,59.801c3.927,1.759,8.059,2.74,12.271,2.577
	c-3.108,2.864-5.316,6.504-6.872,10.513C14.156,75.795,9.738,84.343,8.183,93.71c-7.485-4.704-15.176-9.08-23.478-12.105
	c3.723-8.059,6.094-16.567,8.057-25.197C0.453,61.969,9.533,64.832,18.737,59.801z M20.251,82.707
	c2.249,2.454-1.269,6.013-3.642,3.64C14.279,84.016,17.837,80.458,20.251,82.707z M19.106,92.032c1.554,1.719,1.677,4.295,0,6.013
	c-1.638,1.636-4.336,1.636-5.974,0c-1.637-1.636-1.636-4.376,0-6.013C14.81,90.356,17.427,90.438,19.106,92.032z M-21.347,63.523
	c-0.859-2.086,0.164-4.54,2.25-5.399c2.208-0.94,4.335,0.246,5.357,2.209C-12.144,65.324-19.262,68.595-21.347,63.523z
	 M-24.376,74.771c-0.818-2.044,0.123-4.376,2.168-5.194c2.168-0.899,4.172,0.245,5.195,2.127
	C-15.54,76.531-22.371,79.68-24.376,74.771z M-26.912,86.47c-1.513-4.827,5.358-7.976,7.363-3.068
	c0.818,2.046-0.124,4.376-2.167,5.195C-23.885,89.498-25.888,88.392-26.912,86.47z M-16.93,92.892
	c-0.819-2.045,0.122-4.376,2.167-5.195c2.167-0.899,4.172,0.246,5.194,2.127C-8.055,94.651-14.927,97.8-16.93,92.892z M-6.828,98.7
	c-0.858-2.085,0.164-4.541,2.25-5.399c2.208-0.94,4.334,0.246,5.357,2.209C2.375,100.5-4.742,103.732-6.828,98.7z M2.702,104.181
	c-0.246-3.027,2.208-5.072,4.908-5.032c-0.164,3.19-0.082,6.381,0.164,9.367C5.24,108.639,2.907,106.963,2.702,104.181z
	 M13.174,111.135c-1.841-1.841-1.841-4.907,0-6.749c1.881-1.882,4.786-1.759,6.708,0c1.761,1.923,1.883,4.826,0,6.749
	C18.042,112.976,15.014,112.976,13.174,111.135z M15.587,124.469c-1.84-1.84-1.84-4.908,0-6.748c1.882-1.881,4.786-1.759,6.708,0
	c1.759,1.922,1.881,4.826,0,6.748C20.454,126.31,17.386,126.31,15.587,124.469z M24.995,102.012
	c-0.614-5.603-0.941-12.229-0.123-18.61c2.127-7.035,5.031-15.952,13.007-18.079c1.882-0.491,3.724-0.41,5.522-0.123
	c-6.79,4.622-10.186,12.803-11.167,21.064C30.721,99.231,33.91,112.157,35.547,125c-2.291,0.368-4.54,0.777-6.831,1.146
	C27.448,118.048,25.896,110.072,24.995,102.012z M45.529,126.268c0.163,2.169,0.204,4.336,0.123,6.545
	c-5.195,1.021-10.349,2.085-15.544,3.109c-0.245-2.292-0.571-4.582-0.899-6.872C34.649,128.109,40.088,127.168,45.529,126.268z
	 M18.205,136.291c-1.596-1.596-1.596-4.254,0-5.85c1.637-1.635,4.172-1.554,5.849,0c1.515,1.677,1.638,4.214,0,5.85
	C22.458,137.885,19.8,137.885,18.205,136.291z M19.678,147.865c-3.641-3.64,1.88-9.163,5.645-5.685c1.473,1.595,1.596,4.09,0,5.685
	C23.769,149.42,21.192,149.42,19.678,147.865z M30.68,150.688c0.164-3.927,0.041-7.854-0.285-11.739
	c4.989-0.982,9.979-2.004,14.971-2.986c-0.983,4.99-2.005,10.021-2.986,15.012C38.493,150.607,34.608,150.484,30.68,150.688z
	 M45.365,151.22c1.021-5.194,2.085-10.39,3.106-15.584c2.168-0.083,4.376-0.041,6.506,0.123c-0.941,5.44-1.842,10.921-2.783,16.361
	C49.947,151.792,47.655,151.507,45.365,151.22z M56.327,145.739c12.762,1.636,25.646,4.868,38.572,3.354
	c8.221-0.981,16.401-4.418,20.982-11.208c0.286,1.841,0.368,3.682-0.123,5.564c-2.126,7.976-11.044,10.92-18.039,13.048
	c-6.339,0.817-12.966,0.491-18.528-0.123c-8.059-0.859-15.993-2.454-24.011-3.763C55.549,150.32,55.959,148.03,56.327,145.739z
	 M21.804,159.605c-3.64-3.641,1.884-9.162,5.646-5.687c1.473,1.595,1.596,4.09,0,5.687
	C25.896,161.159,23.319,161.159,21.804,159.605z M33.462,161.732c-3.641-3.64,1.882-9.163,5.646-5.685
	c1.473,1.594,1.596,4.09,0,5.685C37.592,163.286,35.015,163.245,33.462,161.732z M44.996,163.205c-1.595-1.596-1.595-4.253,0-5.85
	c1.636-1.637,4.173-1.553,5.849,0c1.515,1.678,1.638,4.213,0,5.85C49.25,164.8,46.591,164.8,44.996,163.205z M56.778,165.823
	c-1.84-1.841-1.84-4.909,0-6.75c1.881-1.882,4.785-1.76,6.708,0c1.758,1.922,1.882,4.827,0,6.75
	C61.645,167.663,58.617,167.663,56.778,165.823z M70.071,168.236c-1.841-1.841-1.841-4.909,0-6.75c1.881-1.88,4.786-1.758,6.708,0
	c1.758,1.923,1.881,4.827,0,6.75C74.938,170.076,71.911,170.076,70.071,168.236z M94.776,164.759c-2.33-2.373,1.188-5.89,3.641-3.64
	C100.666,163.572,97.108,167.131,94.776,164.759z M89.091,168.277c-1.637,1.637-4.336,1.637-5.974,0
	c-1.634-1.635-1.634-4.376,0-6.012c1.678-1.678,4.295-1.595,5.974,0C90.686,163.982,90.808,166.599,89.091,168.277z
	 M108.193,157.232c4.009-1.553,7.607-3.763,10.472-6.872c-0.164,4.254,0.818,8.387,2.577,12.313
	c-5.031,9.203-2.168,18.324,3.395,26.014c-8.589,2.004-17.098,4.335-25.114,8.098c-3.027-8.343-7.403-16.033-12.066-23.56
	C96.78,171.671,105.287,167.253,108.193,157.232z M76.984,178.748c-2.741-0.205-4.459-2.536-4.336-5.112
	c2.985,0.245,6.135,0.326,9.324,0.163C82.014,176.539,80.009,178.993,76.984,178.748z M82.464,188.279
	c-2.085-0.859-3.107-3.272-2.25-5.399c0.941-2.25,3.232-2.945,5.4-2.25c1.841,0.982,3.026,2.863,2.372,5.031
	C87.29,187.991,84.673,189.22,82.464,188.279z M88.274,198.422c-2.046-0.818-2.987-3.19-2.168-5.194
	c0.898-2.167,3.148-2.823,5.234-2.167c1.759,0.94,2.864,2.781,2.25,4.867C92.895,198.178,90.4,199.322,88.274,198.422z
	 M94.613,208.444c-1.76-0.941-2.864-2.782-2.25-4.867c0.694-2.25,3.188-3.395,5.316-2.495c2.045,0.818,2.986,3.19,2.168,5.195
	C98.99,208.484,96.74,209.139,94.613,208.444z M106.311,205.949c-2.045-0.818-2.985-3.19-2.167-5.194
	c0.899-2.169,3.148-2.823,5.234-2.169c1.759,0.94,2.864,2.781,2.25,4.867C110.932,205.661,108.438,206.807,106.311,205.949z
	 M151.508,195.682c6.055,0.328,6.137,9.53,0,9.53C145.373,205.212,145.414,196.01,151.508,195.682z M161.694,203.412
	c5.276,0.287,5.357,8.304,0,8.304C156.335,211.675,156.376,203.699,161.694,203.412z M170.897,210.816
	c5.113,0.286,5.155,8.018,0,8.018C165.743,218.834,165.784,211.102,170.897,210.816z M180.631,225.623c-5.152,0-5.111-7.731,0-8.017
	C185.745,217.891,185.828,225.623,180.631,225.623z M190.408,218.834c-5.155,0-5.113-7.732,0-8.018
	C195.523,211.102,195.563,218.834,190.408,218.834z M199.612,211.675c-5.359,0-5.276-8.017,0-8.304
	C204.887,203.699,204.967,211.675,199.612,211.675z M209.796,205.212c-6.136,0-6.096-9.202,0-9.53
	C215.849,196.01,215.93,205.212,209.796,205.212z M268.78,203.25c0.896,2.167-0.246,4.211-2.128,5.194
	c-4.786,1.513-7.937-5.358-3.069-7.362C265.629,200.221,267.919,201.204,268.78,203.25z M254.993,205.949
	c-2.045,0.859-4.335-0.123-5.194-2.167c-0.899-2.168,0.245-4.213,2.126-5.195C256.754,197.032,259.903,203.904,254.993,205.949z
	 M273.033,198.422c-2.045,0.859-4.336-0.123-5.195-2.167c-0.897-2.167,0.246-4.213,2.128-5.194
	C274.791,189.547,277.901,196.418,273.033,198.422z M278.799,188.279c-2.087,0.86-4.499-0.164-5.357-2.25
	c-0.901-2.249,0.246-4.335,2.209-5.399C280.599,179.075,283.872,186.193,278.799,188.279z M284.322,178.748
	c-2.986,0.246-5.031-2.209-5.031-4.949c3.192,0.163,6.341,0.082,9.328-0.163C288.74,176.171,287.061,178.543,284.322,178.748z
	 M273.85,173.226c-4.662,7.526-9.039,15.216-12.066,23.56c-8.016-3.763-16.524-6.094-25.113-8.098
	c5.563-7.69,8.425-16.813,3.396-26.014c1.758-3.926,2.739-8.099,2.575-12.313c2.863,3.109,6.464,5.318,10.472,6.872
	C256.016,167.253,264.524,171.671,273.85,173.226z M266.529,164.759c-2.33,2.373-5.891-1.187-3.641-3.64
	C265.342,158.869,268.862,162.428,266.529,164.759z M278.146,162.264c1.637,1.636,1.637,4.377,0,6.012
	c-1.637,1.637-4.335,1.637-5.973,0c-1.678-1.677-1.555-4.295,0-6.012C273.892,160.71,276.466,160.587,278.146,162.264z
	 M284.528,168.236c-1.883-1.923-1.761-4.827,0-6.75c1.922-1.758,4.826-1.88,6.707,0c1.841,1.841,1.841,4.909,0,6.75
	C289.394,170.077,286.325,170.076,284.528,168.236z M304.529,165.823c-1.842,1.84-4.867,1.84-6.708,0
	c-1.883-1.922-1.758-4.827,0-6.75c1.922-1.76,4.825-1.882,6.708,0C306.327,160.955,306.327,163.982,304.529,165.823z
	 M310.418,163.205c-1.637-1.678-1.555-4.172,0-5.85c1.677-1.553,4.213-1.637,5.85,0c1.595,1.596,1.595,4.253,0,5.85
	C314.672,164.8,312.012,164.8,310.418,163.205z M322.198,156.047c1.596-1.473,4.049-1.595,5.646,0c1.554,1.554,1.554,4.131,0,5.685
	C324.161,165.372,318.679,159.851,322.198,156.047z M339.5,153.92c1.555,1.554,1.555,4.131,0,5.686
	c-3.642,3.64-9.12-1.882-5.646-5.686C335.451,152.446,337.904,152.325,339.5,153.92z M282.113,156.374
	c-5.563,0.614-12.189,0.94-18.53,0.123c-6.993-2.128-15.867-5.072-18.036-13.048c-0.492-1.882-0.41-3.723-0.124-5.564
	c4.581,6.79,12.764,10.227,20.985,11.208c12.925,1.514,25.811-1.677,38.57-3.354c0.369,2.291,0.776,4.581,1.146,6.872
	C298.108,153.879,290.171,155.473,282.113,156.374z M309.067,152.12c-0.939-5.44-1.84-10.921-2.78-16.361
	c2.169-0.163,4.336-0.205,6.506-0.123c1.021,5.194,2.085,10.39,3.106,15.584C313.649,151.507,311.358,151.792,309.067,152.12z
	 M341.628,142.222c1.555,1.554,1.555,4.13,0,5.685c-3.642,3.641-9.122-1.88-5.646-5.685
	C337.578,140.708,340.031,140.626,341.628,142.222z M330.626,150.688c-3.929-0.164-7.814-0.042-11.7,0.287
	c-0.98-4.991-2.004-10.022-2.986-15.012c4.991,0.982,9.981,2.004,14.972,2.986C330.584,142.835,330.46,146.72,330.626,150.688z
	 M343.099,130.402c1.595,1.594,1.595,4.253,0,5.848c-1.595,1.595-4.255,1.595-5.849,0c-1.637-1.676-1.555-4.172,0-5.848
	C338.926,128.887,341.464,128.764,343.099,130.402z M332.095,129.051c-0.325,2.29-0.653,4.581-0.898,6.872
	c-5.194-1.023-10.349-2.086-15.543-3.109c-0.082-2.209-0.042-4.376,0.121-6.545C321.215,127.168,326.656,128.109,332.095,129.051z
	 M345.718,117.761c1.84,1.84,1.84,4.908,0,6.749c-1.843,1.84-4.869,1.84-6.709,0c-1.881-1.922-1.759-4.826,0-6.749
	C340.932,116.003,343.836,115.839,345.718,117.761z M332.548,126.065c-2.293-0.368-4.542-0.777-6.832-1.146
	c1.637-12.803,4.826-25.728,3.313-38.736c-0.981-8.262-4.378-16.442-11.168-21.064c1.842-0.287,3.683-0.368,5.521,0.123
	c7.938,2.168,10.881,11.085,13.008,18.079c0.819,6.381,0.491,13.007-0.122,18.611C335.408,110.072,333.814,118.048,332.548,126.065z
	 M344.694,86.347c-2.329,2.373-5.89-1.186-3.64-3.64C343.467,80.458,347.028,84.016,344.694,86.347z M348.172,92.032
	c1.637,1.637,1.637,4.377,0,6.013c-1.637,1.636-4.336,1.636-5.973,0c-1.677-1.676-1.556-4.294,0-6.013
	C343.876,90.478,346.494,90.356,348.172,92.032z M341.423,111.135c-1.883-1.922-1.759-4.826,0-6.749
	c1.922-1.759,4.827-1.882,6.708,0c1.841,1.841,1.841,4.908,0,6.749C346.291,112.976,343.222,112.976,341.423,111.135z
	 M358.602,104.181c-0.205,2.74-2.537,4.458-5.071,4.335c0.243-2.985,0.326-6.176,0.163-9.367
	C356.394,99.15,358.807,101.155,358.602,104.181z M368.091,98.7c-0.858,2.086-3.273,3.109-5.358,2.25
	c-2.251-0.941-2.944-3.272-2.251-5.399c0.982-1.881,2.864-3.026,5.032-2.372C367.846,93.874,369.032,96.45,368.091,98.7z
	 M378.235,92.892c-0.817,2.045-3.147,3.026-5.192,2.167c-2.169-0.9-2.824-3.149-2.169-5.276c0.939-1.8,2.781-2.904,4.827-2.25
	C377.949,88.229,379.094,90.724,378.235,92.892z M386.048,81.235c2.169,0.9,2.823,3.149,2.169,5.276
	c-0.941,1.799-2.781,2.904-4.828,2.25c-2.208-0.695-3.394-3.19-2.495-5.358C381.672,81.358,384.003,80.375,386.048,81.235z
	 M383.184,69.454c2.209,0.696,3.396,3.191,2.495,5.359c-0.815,2.045-3.148,3.027-5.192,2.168c-2.168-0.9-2.824-3.149-2.168-5.277
	C379.299,69.905,381.098,68.8,383.184,69.454z M380.036,58.001c2.29,0.695,3.518,3.313,2.576,5.521
	c-0.859,2.086-3.273,3.109-5.357,2.25c-2.251-0.94-2.946-3.272-2.251-5.399C375.985,58.492,377.867,57.307,380.036,58.001z
	 M376.599,81.603c-8.304,3.026-15.994,7.403-23.478,12.106c-1.516-9.367-5.934-17.915-15.953-20.819
	c-1.555-4.009-3.764-7.649-6.872-10.513c4.213,0.164,8.345-0.818,12.271-2.577c9.204,5.031,18.243,2.167,25.934-3.395
	C370.504,65.037,372.838,73.586,376.599,81.603z M352.22,55.629c0.164-3.313,5.153-3.355,5.153,0
	C357.374,58.983,352.384,58.942,352.22,55.629z M379.381,53.298c-2.045,1.882-4.907,1.514-6.668-0.328
	c2.374-2.127,4.542-4.417,6.505-6.748C381.221,48.063,381.59,51.252,379.381,53.298z M368.05,49.821c0,5.48-8.182,5.44-8.467,0
	C359.869,44.381,368.05,44.34,368.05,49.821z M377.255,40.535c0,6.135-9.163,6.094-9.491,0
	C368.091,34.441,377.255,34.4,377.255,40.535z M384.943,29.41c0,6.135-9.16,6.095-9.488,0
	C375.823,23.315,384.943,23.275,384.943,29.41z M391.407,19.184c0,5.358-7.978,5.317-8.265,0
	C383.43,13.908,391.407,13.825,391.407,19.184z M398.565,9.981c0,5.195-7.689,5.154-7.977,0
	C390.833,4.826,398.565,4.786,398.565,9.981z M405.314,0.082c0,0.041,0,0.041,0,0.083c0,5.194-7.689,5.153-7.977,0
	c0-0.042,0-0.042,0-0.083H405.314z M392.674,0.082c0.04,0.041,0.04,0.041,0.081,0.083c-2.903,2.658-5.563,5.521-8.098,8.507
	c-4.255-2.823-8.469-5.686-12.723-8.507c0.041-0.042,0.082-0.042,0.082-0.083H392.674z M366.741,0.082
	c0.042,0.041,0.042,0.041,0.082,0.083c-4.949,4.662-8.835,10.184-12.721,15.707c-0.124,0.082-0.246,0.163-0.369,0.286
	c-1.677,1.718-4.377,2.659-7.198,2.904c-3.148,0.124-6.381-0.817-8.221-2.985c-3.846-4.499-1.229-11.125,2.371-14.807
	c0.286-0.327,0.449-0.736,0.409-1.146h25.646V0.082z M334.1,0.082c0,0.041,0,0.041,0,0.083c0,6.299-5.111,11.616-11.37,11.862
	c-6.791,0.286-12.066-5.236-12.313-11.862c0-0.042,0-0.042,0-0.083H334.1z M292.011,0.082c0,0.041,0,0.041,0,0.083
	c0,3.353-4.988,3.313-5.152,0c0-0.042,0-0.042,0-0.083H292.011z M281.623,0.082c0,0.041,0,0.041,0,0.083
	c0,14.355-10.021,26.587-23.685,30.023c-1.351-2.414-2.535-4.909-3.724-7.405c10.922-1.84,19.473-11.125,19.473-22.618
	c0-0.042,0-0.042,0-0.083H281.623z M270.373,0.082c0,0.041,0,0.041,0,0.083c0,10.103-7.812,18.364-17.63,19.47
	c-1.349-2.782-2.779-5.564-4.498-8.1c0.817,0.205,1.719,0.327,2.617,0.327c6.341,0,11.658-5.317,11.658-11.697
	c0-0.042,0-0.042,0-0.083H270.373z M259.167,0.082c0,0.041,0,0.041,0,0.083c0,4.54-3.764,8.343-8.305,8.343
	c-4.703,0-8.1-3.804-8.303-8.343c0-0.042,0-0.042,0-0.083H259.167z M215.849,0.082c0.041,0.041,0.041,0.041,0.081,0.083
	c-1.717,1.512-3.435,3.107-5.397,4.334c-3.354,2.087-7.075,2.25-10.839,1.269c-4.868-1.227-9.245-3.845-13.907-5.604
	c0.042-0.042,0.122-0.042,0.163-0.083L215.849,0.082L215.849,0.082z M175.315,0.082c0.042,0.041,0.123,0.041,0.164,0.083
	c-4.663,1.758-9.039,4.376-13.907,5.604c-3.561,0.899-7.158,0.858-10.431-1.023c-2.127-1.227-3.968-2.945-5.809-4.58
	c0.041-0.042,0.041-0.042,0.082-0.083L175.315,0.082L175.315,0.082z M118.745,0.082c0.164,3.232-2.741,8.426-8.303,8.426
	c-4.5,0-8.345-3.804-8.304-8.426H118.745z M98.784,0.082c-0.041,6.421,5.318,11.739,11.657,11.739c0.899,0,1.8-0.123,2.658-0.328
	c-1.718,2.577-3.148,5.318-4.498,8.099C98.825,18.488,90.93,10.308,90.93,0.041h7.854V0.082z M87.618,0.082
	c-0.042,11.494,8.467,20.82,19.47,22.701c-1.185,2.496-2.373,5.032-3.723,7.405C89.745,26.71,79.682,14.603,79.682,0.082H87.618z
	 M74.407,0.082c0.244,3.149-5.237,3.641-5.156,0H74.407z M50.887,0.082c0.204,5.155-4.377,11.985-11.822,11.945
	c-6.42-0.042-11.861-5.359-11.82-11.944L50.887,0.082L50.887,0.082z M20.209,0.082c-0.041,1.146,8.55,9.244,2.782,15.952
	c-1.759,2.045-4.786,3.026-7.813,2.986c-2.945-0.164-5.85-1.105-7.608-2.904c-0.123-0.123-0.246-0.204-0.368-0.286
	C3.317,10.309-0.57,4.786-5.518,0.123c0.042-0.041,0.042-0.041,0.081-0.081h25.646V0.082z M-10.755,0.082
	c0.041,0.041,0.082,0.041,0.082,0.083c-4.213,2.822-8.466,5.685-12.68,8.507c-2.495-2.986-5.195-5.85-8.099-8.507
	c0.04-0.042,0.04-0.042,0.081-0.083H-10.755z M-36.034,0.082c0.328,4.827-8.058,5.604-7.976,0H-36.034z"/>
</svg>
