<?xml version="1.0" encoding="utf-8"?>
<!-- Generator: Adobe Illustrator 16.0.0, SVG Export Plug-In . SVG Version: 6.00 Build 0)  -->
<!DOCTYPE svg PUBLIC "-//W3C//DTD SVG 1.1//EN" "http://www.w3.org/Graphics/SVG/1.1/DTD/svg11.dtd">
<svg version="1.1" id="Layer_1" xmlns="http://www.w3.org/2000/svg" xmlns:xlink="http://www.w3.org/1999/xlink" x="0px" y="0px"
	 width="360px" height="640px" viewBox="0 0 360 640" enable-background="new 0 0 360 640" xml:space="preserve">
<g>
	<defs>
		<rect id="SVGID_1_" width="360" height="640"/>
	</defs>
	<clipPath id="SVGID_2_">
		<use xlink:href="#SVGID_1_"  overflow="visible"/>
	</clipPath>
	<path opacity="0.15" clip-path="url(#SVGID_2_)" fill="#FFFFFF" enable-background="new    " d="M-52.188-17.825
		c0,0.532,0.164,0.982,0.491,1.268c11.902,11.29,19.184,26.178,28.796,39.308c-3.804,15.707-4.868,32.273-11.494,47.203
		c-0.45,1.064-0.082,2.045,0.982,2.454c15.216,5.85,27.65,16.772,41.394,25.197c2.414,16.116,7.772,31.783,7.363,48.225
		c-0.042,0.9,0.777,1.677,1.677,1.677c16.402-0.45,32.027,4.908,48.061,7.363c8.386,13.825,19.306,26.301,25.115,41.557
		c0.409,1.064,1.391,1.473,2.455,0.982c14.847-6.667,31.373-7.731,47.039-11.534c13.048,9.653,27.896,16.975,39.186,28.878
		c0.614,0.654,1.759,0.654,2.373,0c11.247-11.944,26.095-19.267,39.186-28.878c15.666,3.803,32.15,4.908,47.038,11.534
		c1.063,0.451,2.045,0.083,2.453-0.982c5.809-15.256,16.729-27.732,25.115-41.557c16.034-2.455,31.66-7.813,48.062-7.363
		c0.9,0.041,1.678-0.777,1.678-1.677c-0.451-16.442,4.908-32.149,7.361-48.225c13.785-8.425,26.22-19.388,41.395-25.197
		c1.064-0.408,1.474-1.39,0.982-2.454c-6.627-14.93-7.731-31.454-11.494-47.203c9.49-13.088,16.771-28.019,28.674-39.308
		c0.326-0.286,0.49-0.736,0.49-1.185c0,0,0-0.042,0-0.083v-0.082H-52.188V-17.825z M-37.912-7.926c0-5.195,7.69-5.154,7.976,0
		C-30.181-2.813-37.912-2.772-37.912-7.926z M117.397-4.122c-1.391,0.532-2.659,1.268-3.763,2.086
		c1.228-2.127,2.618-4.132,4.213-5.973c6.299-7.199,15.052-7.976,24.051-7.771c1.31,1.104,2.618,2.209,3.885,3.191
		c-4.008,0.531-8.017,1.799-11.207,4.172c-1.964,1.473-3.6,3.682-4.295,6.094C126.765-5.103,121.488-5.717,117.397-4.122z
		 M139.159-7.271c3.517-1.637,7.444-2.249,11.248-2.332c0.041,0,0.082,0,0.082,0c1.963,0.9,4.131,1.473,6.585,1.391
		c-1.759,1.676-2.864,3.559-3.6,5.604c-0.041,0.041-0.123,0.083-0.163,0.123c-2.578,2.495-5.481,4.581-8.794,5.972
		c-3.354,1.432-9.122,2.332-10.921-1.964C132.041-2.364,136.049-5.799,139.159-7.271z M229.676-2.364
		c-0.653-2.331-2.208-4.458-4.088-5.931c-3.19-2.453-7.281-3.722-11.371-4.294c1.308-1.023,2.576-2.086,3.885-3.191
		c8.998-0.163,17.71,0.614,24.051,7.771c1.638,1.841,2.987,3.845,4.254,5.973c-1.022-0.737-2.085-1.351-3.314-1.882
		C238.962-5.636,233.358-5.227,229.676-2.364z M209.594-9.603c3.559,0.083,7.076,0.655,10.389,2.005
		c3.354,1.35,8.101,4.826,6.341,9.12c-1.596,3.886-6.831,3.519-10.063,2.332c-3.64-1.309-6.872-3.682-9.611-6.34
		c-0.041-0.041-0.124-0.082-0.165-0.123c-0.735-2.004-1.882-3.885-3.599-5.604c2.494,0.082,4.622-0.491,6.584-1.391
		C209.513-9.603,209.554-9.603,209.594-9.603z M291.604,116.42c-0.163-0.042-0.326-0.083-0.489-0.083
		c-2.373,0-4.95-1.227-7.118-3.027c-2.332-2.126-3.966-5.112-3.763-7.934c0.409-5.931,6.994-8.754,12.106-8.835
		c0.819,0,1.474-0.695,1.516-1.514c0.081-5.154,2.903-11.739,8.794-12.148c2.903-0.205,5.931,1.473,8.057,3.926
		c1.759,2.127,2.904,4.623,2.904,6.953c0,0.164,0.041,0.329,0.083,0.492c-1.146,6.667-2.251,13.293-2.086,20.083
		C304.857,114.17,298.23,115.315,291.604,116.42z M217.039,165.708c-5.932,4.664-12.229,8.917-18.366,13.375
		c-1.351-1.881-2.659-3.763-4.008-5.645c9.609-7.445,20.205-13.948,28.223-23.315c5.889-6.872,10.019-15.706,8.343-24.542
		c1.513,1.104,2.864,2.332,3.846,4.05c4.132,7.198-0.205,15.666-3.64,22.128C227.183,157.242,221.742,161.986,217.039,165.708z
		 M235.239,154.459c3.313,0.165,3.313,5.154,0,5.154C231.928,159.613,231.968,154.624,235.239,154.459z M232.906,181.702
		c-2.044,2.208-5.193,1.84-7.034-0.164c2.291-1.963,4.581-4.13,6.709-6.503C234.423,176.792,234.829,179.656,232.906,181.702z
		 M243.135,184.975c-2.086,0.857-4.5-0.165-5.358-2.251c-0.899-2.249,0.246-4.336,2.209-5.398
		C244.935,175.729,248.166,182.848,243.135,184.975z M220.228,179.575c-6.134,0-6.095-9.203,0-9.531
		C226.282,170.372,226.363,179.575,220.228,179.575z M229.473,161.822c5.398,0.287,5.481,8.468,0,8.468
		C224.032,170.331,224.072,162.149,229.473,161.822z M127.05,181.702c-1.881-2.045-1.472-4.909,0.328-6.667
		c2.127,2.373,4.418,4.54,6.708,6.503C132.286,183.542,129.096,183.951,127.05,181.702z M116.866,184.975
		c-2.086-0.859-3.109-3.273-2.25-5.4c0.941-2.25,3.231-2.945,5.399-2.25c1.841,0.981,3.027,2.863,2.372,5.031
		C121.693,184.688,119.075,185.874,116.866,184.975z M139.771,170.044c6.054,0.328,6.136,9.531,0,9.531
		C133.637,179.575,133.677,170.372,139.771,170.044z M130.487,170.331c-5.48,0-5.399-8.182,0-8.468
		C135.926,162.149,135.968,170.331,130.487,170.331z M142.921,165.708c-4.703-3.722-10.144-8.466-14.356-13.947
		c-3.436-6.463-7.772-14.931-3.64-22.128c0.982-1.719,2.331-2.946,3.844-4.05c-1.677,8.836,2.455,17.67,8.344,24.542
		c7.977,9.327,18.57,15.83,28.224,23.315c-1.35,1.882-2.659,3.763-4.009,5.645C155.193,174.625,148.893,170.372,142.921,165.708z
		 M124.719,159.613c-3.313,0-3.313-4.989,0-5.154C128.033,154.624,128.073,159.613,124.719,159.613z M99.809,119.038
		c0.163-0.042,0.369-0.082,0.532-0.165c1.636-0.736,2.904-1.84,4.05-2.985c0.327-0.286,0.654-0.614,0.94-0.94
		c1.187-1.228,2.332-2.453,3.764-3.436c3.639-2.536,4.417,1.146,4.949,3.844c-4.172,9.858-15.789,12.721-25.605,12.844
		c-10.841,0.164-21.474-2.209-32.191-3.64c0.368-2.168,0.735-4.295,1.104-6.463c9.121,1.022,18.119,3.437,27.405,3.681
		C89.789,121.942,95.269,121.246,99.809,119.038z M48.353,114.375c0.205-6.79-0.94-13.416-2.086-20.083
		c0.042-0.163,0.082-0.327,0.082-0.491c0-2.372,1.228-4.99,3.028-7.117c2.127-2.331,5.071-3.967,7.935-3.763
		c5.89,0.41,8.713,6.995,8.794,12.149c0,0.818,0.694,1.472,1.513,1.513c5.153,0.082,11.697,2.904,12.107,8.834
		c0.204,2.905-1.473,5.932-3.886,8.101c-2.127,1.758-4.622,2.904-6.953,2.904c-0.165,0-0.328,0.041-0.492,0.082
		C61.728,115.315,55.143,114.17,48.353,114.375z M37.186,33.672c-1.104,1.514-2.331,2.863-4.008,3.845
		c-7.199,4.132-15.625-0.205-22.047-3.64c-5.44-4.254-10.184-9.695-13.907-14.44C-7.439,13.466-11.652,7.167-16.11,0.991
		c1.88-1.351,3.763-2.7,5.644-4.009c7.444,9.654,13.908,20.289,23.233,28.305C19.599,31.218,28.393,35.391,37.186,33.672z
		 M42.381,39.235c-1.227-3.435,1.187-7.854,3.682-10.021c2.862-2.454,6.667-3.517,10.307-4.09
		c7.976-1.309,16.156-1.799,24.215-2.658c0.123,0.367,0.246,0.695,0.368,1.063c0-0.041,0.204,0.327,0.449,0.817
		c-6.135,5.031-12.188,10.308-18.529,15.012c-3.353,2.454-7.281,4.826-11.576,4.786C48.23,44.103,43.567,42.508,42.381,39.235z
		 M88.397,13.262c3.641-0.818,7.199,0.981,10.307,2.781c-0.9,3.354-2.086,6.954-4.989,8.999c-3.764,2.659-8.141,1.186-9.818-3.109
		C82.384,18.047,84.306,14.162,88.397,13.262z M45.326,19.193c-2.986-1.595-6.625-5.727-5.767-9.53
		c0.818-3.6,5.358-6.054,8.671-6.381c4.009-0.45,7.977,0.981,11.535,2.7c2.291,1.104,4.54,2.25,6.79,3.436
		c4.582,2.496,9.204,4.99,13.784,7.485c-0.163,0.655-0.245,1.35-0.285,2.045c-7.485,0.695-14.971,1.596-22.456,2.045
		C53.507,21.238,49.048,21.197,45.326,19.193z M141.081,7.944c4.05-0.532,7.812-2.536,11.125-5.072
		c-0.205,1.637-0.368,3.313-0.532,5.072c-5.768,6.013-12.067,11.617-20.901,11.576c-2.987,0-5.891-0.532-8.754-1.268
		c1.268-0.205,2.495-0.531,3.764-1.064c4.172-1.717,7.73-5.971,8.262-10.552C136.132,7.821,138.75,8.231,141.081,7.944z
		 M226.037,6.595c0.491,4.459,3.722,8.631,7.771,10.43c1.392,0.613,2.781,0.981,4.215,1.227c-2.864,0.736-5.81,1.268-8.795,1.268
		c-8.835,0.041-15.134-5.563-20.902-11.616c-0.163-1.719-0.326-3.437-0.532-5.073c3.232,2.455,6.954,4.459,10.88,5.031
		C221.087,8.272,223.868,7.862,226.037,6.595z M276.104,21.974c-1.475,3.845-5.482,5.727-9.164,3.559
		c-3.354-1.963-4.703-5.849-5.686-9.49c2.946-1.717,6.137-3.313,9.612-2.863C275.326,13.753,277.738,17.68,276.104,21.974z
		 M292.423,9.908c2.413-1.268,4.785-2.496,7.239-3.681c3.723-1.841,7.854-3.436,12.066-2.945c3.314,0.369,7.854,2.782,8.673,6.381
		c0.857,3.803-2.782,7.935-5.768,9.53c-3.56,1.923-7.771,2.004-11.741,1.8c-7.689-0.45-15.378-1.35-23.068-2.086
		c0-0.695-0.122-1.391-0.246-2.045C283.875,14.53,288.169,12.198,292.423,9.908z M251.396,53.92
		c-10.102,10.185-25.808,11.658-37.917,4.417c0.738-2.618,1.679-5.236,2.619-7.894c9.04,6.463,21.597,5.931,29.695-2.167
		c8.14-8.14,8.589-20.738,2.168-29.818c2.618-0.941,5.234-1.881,7.854-2.618C263.014,28.028,261.5,43.735,251.396,53.92z
		 M96.21,61.568c-0.982,2.7-4.091,6.095-7.118,6.095c-2.741,0-5.604-2.904-6.709-5.317c-1.635-3.517-1.227-7.526-0.368-11.207
		c0.409-1.718,0.819-3.395,1.309-5.113c0.124-0.45,0.247-0.859,0.409-1.309c1.555-4.99,3.109-9.981,4.623-14.971
		c0.572,0.081,1.187,0.123,1.759,0.123c2.045,6.872,4.295,13.744,6.012,20.697C97.028,54.124,97.519,58.01,96.21,61.568z
		 M104.881,57.641c2.25,2.455-1.309,6.014-3.64,3.642C98.868,58.951,102.427,55.392,104.881,57.641z M219.776,38.254
		c0.451,0.735,0.983,1.43,1.638,2.085c4.458,4.5,12.025,4.5,16.485,0c4.456-4.5,4.499-12.025,0-16.525
		c-0.655-0.654-1.351-1.187-2.088-1.636c2.986-0.614,5.974-1.514,8.918-2.537c6.177,7.772,5.891,19.143-1.269,26.301
		c-7.158,7.158-18.448,7.444-26.218,1.269C218.264,44.226,219.163,41.281,219.776,38.254z M210.083,55.187
		c-4.334-1.962-8.835-4.212-11.657-8.139c-3.272-4.5-3.721-12.599,2.62-14.807c5.808-2.004,10.511,3.149,11.533,8.425
		C213.479,45.616,211.803,50.566,210.083,55.187z M223.746,37.968c-3.272-3.354-3.108-8.426,0-11.821
		c3.354-3.067,8.467-3.314,11.781,0c3.189,3.23,3.189,8.589,0,11.821C232.336,41.199,226.937,41.239,223.746,37.968z
		 M217.119,31.668c0,2.986-0.53,5.931-1.266,8.794c-0.206-1.269-0.534-2.537-1.064-3.763c-1.718-4.173-5.931-7.772-10.515-8.304
		c1.187-2.127,1.597-4.745,1.269-7.118c-0.53-4.049-2.535-7.853-5.029-11.167c1.636,0.205,3.313,0.368,5.029,0.532
		C211.598,16.493,217.16,22.792,217.119,31.668z M195.359,32.159c-2.782,3.518-3.395,8.835-1.801,12.925
		c0.533,1.391,1.269,2.659,2.087,3.804c-2.087-1.227-4.131-2.618-5.972-4.254c-7.159-6.34-7.936-15.134-7.771-24.133
		c1.104-1.308,2.209-2.618,3.19-3.925c0.53,4.048,1.758,8.057,4.172,11.248C190.737,29.827,192.946,31.464,195.359,32.159z
		 M188.324,52.734c0,4.54-3.805,8.344-8.304,8.344c-4.539,0-8.303-3.805-8.303-8.344c0-4.704,3.764-8.14,8.303-8.345
		C184.52,44.553,188.324,48.03,188.324,52.734z M178.057,20.501c0.164,9.041-0.613,17.753-7.771,24.133
		c-1.841,1.637-3.845,3.028-5.972,4.254c0.736-1.023,1.35-2.127,1.882-3.313c1.718-4.131,1.31-9.736-1.554-13.417
		c2.33-0.654,4.458-2.25,5.89-4.131c2.495-3.23,3.763-7.322,4.294-11.452C175.848,17.883,176.953,19.193,178.057,20.501z
		 M142.88,31.668c-0.041-8.876,5.563-15.216,11.576-20.983c1.718-0.164,3.395-0.327,5.031-0.532
		c-2.455,3.231-4.417,6.953-5.031,10.922c-0.369,2.454,0.041,5.194,1.268,7.402c-4.458,0.491-8.589,3.722-10.389,7.813
		c-0.614,1.391-0.982,2.782-1.227,4.213C143.371,37.64,142.88,34.695,142.88,31.668z M136.254,37.968
		c-3.191,3.231-8.549,3.231-11.781,0c-3.19-3.191-3.231-8.63,0-11.821c3.354-3.272,8.386-3.108,11.781,0
		C139.322,29.542,139.527,34.654,136.254,37.968z M124.229,22.179c-0.736,0.449-1.432,0.981-2.086,1.636
		c-4.499,4.458-4.499,12.066,0,16.525c4.5,4.458,11.984,4.5,16.484,0c0.655-0.655,1.187-1.35,1.636-2.085
		c0.613,3.026,1.513,5.971,2.536,8.916c-7.731,6.177-19.061,5.891-26.22-1.268c-7.158-7.158-7.402-18.529-1.267-26.3
		C118.257,20.666,121.202,21.565,124.229,22.179z M147.461,40.667c0.982-5.235,5.726-10.429,11.535-8.425
		c6.299,2.168,5.89,10.308,2.618,14.807c-2.863,3.926-7.363,6.135-11.658,8.139C148.157,50.566,146.521,45.616,147.461,40.667z
		 M160.591,54.615c2.781-1.349,5.522-2.781,8.1-4.499c-0.204,0.859-0.328,1.718-0.328,2.618c0,6.34,5.318,11.698,11.657,11.698
		c6.34,0,11.657-5.318,11.657-11.698c0-0.941-0.123-1.8-0.327-2.659c2.578,1.718,5.319,3.15,8.1,4.54
		c-1.105,9.898-9.324,17.711-19.429,17.711C169.917,72.285,161.697,64.473,160.591,54.615z M179.979,75.64
		c11.455,0,20.697-8.59,22.539-19.552c2.495,1.186,4.99,2.414,7.404,3.722c-3.479,13.744-15.625,23.765-29.943,23.765
		c-14.315,0-26.465-10.061-29.94-23.765c2.414-1.35,4.908-2.536,7.403-3.722C159.282,67.091,168.527,75.64,179.979,75.64z
		 M222.642,68.85c2.66,3.804,1.186,8.181-3.068,9.858c-3.926,1.513-7.771-0.409-8.671-4.542c-0.819-3.639,0.982-7.239,2.781-10.348
		C217.039,64.718,220.596,65.904,222.642,68.85z M259.004,66.313c2.701,0.982,6.054,4.09,6.054,7.117
		c0,2.74-2.902,5.604-5.316,6.748c-3.478,1.636-7.485,1.229-11.166,0.369c-1.679-0.409-3.396-0.858-5.073-1.31
		c-0.449-0.122-0.858-0.286-1.309-0.408c-4.949-1.555-9.938-3.108-14.889-4.664c0.081-0.571,0.123-1.186,0.123-1.759
		c6.829-2.044,13.703-4.335,20.613-6.012C251.603,65.537,255.486,65.005,259.004,66.313z M149.18,73.472
		c-0.573,4.458-4.5,6.872-8.753,5.236c-3.805-1.473-5.727-5.522-3.559-9.204c1.963-3.395,5.849-4.744,9.449-5.685
		C148.035,66.763,149.629,69.995,149.18,73.472z M118.379,78.666c-0.163,0.042-0.286,0.082-0.45,0.123
		c-1.962,0.573-3.927,1.104-5.931,1.596c-3.559,0.9-7.445,1.43-10.962,0.122c-2.699-0.981-6.095-4.09-6.095-7.117
		c0-2.741,2.863-5.604,5.276-6.749c3.477-1.636,7.486-1.268,11.167-0.409c7.158,1.636,14.194,4.048,21.27,6.175
		c0,0.573,0.042,1.188,0.123,1.718C127.951,75.681,123.165,77.194,118.379,78.666z M57.27,67.009c2.74,2.986,2.945,7.567,0,10.553
		c-2.863,2.863-7.65,2.863-10.512,0c-2.863-2.863-2.904-7.69,0-10.553C49.744,64.064,54.284,64.228,57.27,67.009z M71.176,74.699
		c4.622-5.031,12.23-4.909,17.057-0.369c4.418,4.745,4.704,12.108,0,16.812c-4.581,4.581-12.189,4.581-16.729,0
		C67.046,86.683,66.923,79.321,71.176,74.699z M101.527,90.732c2.413-3.108,6.012-4.908,9.613-6.257
		c1.881-0.696,3.803-1.35,5.767-2.005c0.654-0.205,1.309-0.409,1.963-0.614c5.032-1.513,10.062-3.026,15.094-4.539
		c0.368,0.573,0.777,1.104,1.226,1.635c-4.908,5.972-9.694,12.108-14.847,17.874c-2.618,2.946-5.687,5.892-9.571,7.037
		c-3.436,1.022-8.754,0.531-10.921-2.823C97.968,98.137,99.605,93.228,101.527,90.732z M149.998,79.689
		c6.298,3.394,12.762,6.667,18.896,10.389c2.946,1.799,5.85,4.009,7.486,7.117c1.473,2.782,1.882,7.566-0.45,9.898
		c-2.169,2.167-6.504,1.923-9.163,0.737c-3.314-1.473-5.604-4.376-7.486-7.404c-0.981-1.595-1.923-3.19-2.822-4.867
		c-0.164-0.287-0.327-0.573-0.45-0.9c-2.413-4.623-4.826-9.244-7.28-13.866C149.138,80.507,149.589,80.097,149.998,79.689z
		 M179.979,88.851c3.314,0.163,3.314,5.195,0,5.195C176.667,94.046,176.708,89.056,179.979,88.851z M184.111,107.094
		c-2.169-2.167-1.964-6.545-0.777-9.203c1.472-3.313,4.336-5.644,7.321-7.526c6.219-3.885,12.884-7.199,19.347-10.675
		c0.408,0.449,0.859,0.817,1.309,1.145c-2.33,4.459-4.661,8.875-6.995,13.335c-0.161,0.327-0.367,0.653-0.53,1.023
		c-0.899,1.634-1.841,3.23-2.78,4.826c-1.802,2.986-3.967,5.849-7.077,7.526C191.229,108.976,186.441,109.425,184.111,107.094z
		 M224.851,79.075c0.327-0.327,0.654-0.694,0.94-1.104c0.122-0.164,0.246-0.368,0.369-0.573c4.785,1.432,9.57,2.864,14.356,4.295
		c0.081,0.041,0.205,0.041,0.286,0.082c2.536,0.778,5.031,1.636,7.525,2.495c3.559,1.267,7.158,2.945,9.735,5.85
		c2.333,2.658,4.009,7.567,2.168,10.962c-1.8,3.23-7.28,3.845-10.389,2.986c-3.926-1.063-6.995-3.804-9.694-6.75
		C234.708,91.51,229.841,85.17,224.851,79.075z M272.095,91.469c-5.032-4.622-4.868-12.271-0.368-17.139
		c4.703-4.417,12.065-4.703,16.728,0c4.582,4.582,4.541,12.231,0,16.812C284.038,95.6,276.715,95.722,272.095,91.469z
		 M302.729,77.562c-2.943-2.986-2.78-7.526,0-10.553c2.987-2.741,7.569-2.944,10.514,0c2.862,2.863,2.862,7.69,0,10.553
		C310.38,80.425,305.553,80.466,302.729,77.562z M270.866,67.623c-2.739,0-5.604-2.863-6.749-5.317
		c-1.636-3.518-1.269-7.527-0.408-11.208c1.636-7.198,4.049-14.275,6.177-21.311c0.571,0,1.186-0.041,1.717-0.123
		c1.474,4.827,2.985,9.613,4.458,14.439c0.043,0.165,0.083,0.286,0.124,0.45c0.572,1.963,1.104,3.968,1.596,5.931
		c0.899,3.559,1.392,7.444,0.121,11.003C276.962,64.228,273.852,67.623,270.866,67.623z M255.118,57.641
		c2.454-2.249,6.013,1.31,3.642,3.642C256.388,63.655,252.869,60.096,255.118,57.641z M195.073,8.845
		c0.042,0.04,0.08,0.122,0.122,0.163c2.494,2.577,4.581,5.48,5.973,8.794c1.392,3.354,2.331,9.162-1.965,10.961
		c-3.885,1.596-7.321-2.413-8.753-5.521c-1.635-3.518-2.249-7.444-2.329-11.29c0-0.041,0-0.082,0-0.082
		c0.898-1.963,1.431-4.13,1.389-6.626C191.146,7.003,193.027,8.108,195.073,8.845z M184.561,11.831
		c-1.227,2.127-2.945,3.967-4.582,5.849c-1.512-1.759-3.108-3.437-4.295-5.399c-2.085-3.396-2.249-7.077-1.267-10.881
		c1.227-4.907,3.845-9.244,5.603-13.948c1.758,4.704,4.378,9.081,5.603,13.948C186.484,5,186.441,8.599,184.561,11.831z
		 M171.88,11.871c0,0.042,0,0.042,0,0.082c-0.081,3.6-0.654,7.117-2.003,10.431c-1.35,3.354-4.827,8.139-9.081,6.38
		c-3.886-1.595-3.477-6.871-2.332-10.103c1.31-3.64,3.681-6.872,6.34-9.653c0.041-0.041,0.082-0.123,0.123-0.163
		c2.004-0.737,3.886-1.881,5.563-3.601C170.449,7.74,170.981,9.908,171.88,11.871z M112.04,18.498
		c-6.423,9.08-5.932,21.679,2.167,29.818c8.099,8.14,20.697,8.59,29.696,2.167c0.94,2.618,1.841,5.236,2.618,7.895
		c-12.107,7.24-27.773,5.726-37.917-4.417c-10.144-10.145-11.617-25.893-4.417-38.041C106.803,16.616,109.421,17.557,112.04,18.498z
		 M65.328,42.508c5.809-5.317,12.107-10.226,18.161-15.257c0.327,0.327,0.695,0.654,1.105,0.941
		c0.163,0.123,0.367,0.245,0.571,0.368c-1.432,4.785-2.863,9.612-4.294,14.397c-0.04,0.082-0.04,0.204-0.082,0.286
		c-0.777,2.536-1.595,5.032-2.496,7.527c-1.268,3.599-2.944,7.199-5.808,9.735c-2.658,2.331-7.567,4.049-10.922,2.168
		c-3.23-1.8-3.803-7.322-2.944-10.431C59.683,48.316,62.383,45.207,65.328,42.508z M51.215,53.429
		c-0.98,1.432-2.208,2.577-3.436,3.763c-0.326,0.328-0.654,0.655-0.981,0.982c-1.146,1.187-2.208,2.414-2.945,4.05
		c-0.082,0.204-0.124,0.368-0.164,0.531c-2.167,4.541-2.863,10.021-2.74,15.135c0.245,9.284,2.618,18.324,3.641,27.487
		c-2.128,0.368-4.295,0.735-6.422,1.104c-1.432-10.717-3.805-21.433-3.641-32.272c0.164-9.858,2.986-21.516,12.802-25.729
		C50.112,48.97,53.71,49.789,51.215,53.429z M85.043,115.97c-2.863-2.863-2.904-7.69,0-10.554c2.986-2.944,7.527-2.781,10.513,0
		c2.739,2.987,2.944,7.568,0,10.554C92.651,118.833,87.906,118.833,85.043,115.97z M118.338,112.003
		c-0.163-4.336,2.004-8.303,4.418-11.699c4.703-6.585,10.143-12.762,15.256-19.062c0.245,0.124,0.531,0.287,0.817,0.369
		c0.37,0.164,0.737,0.286,1.105,0.368c-0.818,7.894-1.35,15.871-2.536,23.725c-0.532,3.64-1.474,7.362-3.722,10.348
		c-2.126,2.822-6.708,5.685-10.431,4.295C120.22,119.242,118.46,114.907,118.338,112.003z M143.208,117.401
		c-1.922-3.558-2.005-7.812-1.8-11.78c0.449-7.73,1.35-15.461,2.085-23.151c0.696,0,1.35-0.123,2.045-0.245
		c2.291,4.295,4.623,8.59,6.913,12.844c1.268,2.413,2.495,4.826,3.681,7.28c1.799,3.763,3.395,7.895,2.945,12.108
		c-0.368,3.354-2.782,7.895-6.381,8.712C148.934,124.068,144.803,120.429,143.208,117.401z M164.15,140.471
		c4.458-3.886,11.125-1.226,14.767,2.373c0.573,0.572,1.513,0.572,2.126,0c3.682-3.599,10.307-6.259,14.766-2.373
		c2.045,1.759,3.027,4.827,2.986,7.854c-0.164,2.986-1.105,5.85-2.904,7.649c-0.123,0.123-0.206,0.245-0.286,0.367
		c-5.521,3.928-11.004,7.813-15.625,12.762c-4.622-4.949-10.143-8.876-15.625-12.762c-0.082-0.123-0.164-0.245-0.286-0.367
		c-1.718-1.718-2.659-4.418-2.864-7.239C161.082,145.543,162.023,142.312,164.15,140.471z M152.943,144.194
		c-9.612,0.041-9.53-14.48,0-14.93C162.432,129.754,162.554,144.194,152.943,144.194z M207.058,129.305
		c9.49,0.45,9.612,14.889,0,14.93C197.444,144.234,197.527,129.754,207.058,129.305z M179.979,136.258
		c-6.298,0-11.574-5.113-11.821-11.413c-0.286-6.79,5.195-12.106,11.821-12.351c6.423,0.203,11.861,5.234,11.822,11.861
		C191.801,130.817,186.484,136.258,179.979,136.258z M138.913,123.168c0.655,1.8,0.164,4.214,0.164,6.095
		c0,2.127,0.246,4.132,0.981,6.136c0.083,0.203,0.165,0.367,0.287,0.49c1.881,5.358,5.931,10.185,10.226,13.99
		c6.422,5.685,13.826,10.102,20.493,15.461c-1.269,1.799-2.536,3.559-3.764,5.358c-8.017-6.136-16.566-11.658-23.806-18.733
		c-7.485-7.322-14.847-18.081-10.553-28.797c0.041-0.041,0.082-0.082,0.123-0.123C134.985,121.615,137.646,119.569,138.913,123.168z
		 M173.312,167.304c1.637,1.432,3.232,2.945,4.705,4.539c-2.945,4.418-5.851,8.835-8.795,13.254c-1.799-1.432-3.64-2.864-5.48-4.254
		C166.932,176.303,170.121,171.803,173.312,167.304z M179.979,174.258c2.823,4.253,5.644,8.508,8.466,12.762
		c-2.985,2.535-5.806,5.194-8.466,8.098c-2.658-2.903-5.48-5.604-8.467-8.098C174.335,182.724,177.157,178.511,179.979,174.258z
		 M181.983,171.843c1.472-1.594,3.068-3.107,4.706-4.539c3.188,4.499,6.379,9.039,9.569,13.539c-1.842,1.391-3.682,2.781-5.48,4.254
		C187.832,180.679,184.93,176.262,181.983,171.843z M216.548,151.965c-7.242,7.076-15.788,12.598-23.807,18.733
		c-1.267-1.8-2.536-3.559-3.762-5.358c6.666-5.359,14.068-9.776,20.49-15.461c4.255-3.805,8.346-8.632,10.229-13.99
		c0.121-0.123,0.203-0.287,0.284-0.49c0.736-2.004,0.982-4.009,0.982-6.136c0-1.922-0.491-4.295,0.162-6.095
		c1.311-3.599,3.968-1.513,5.932-0.082c0.041,0.041,0.083,0.082,0.124,0.082C231.396,133.885,224.032,144.684,216.548,151.965z
		 M207.263,123.21c-3.6-0.818-6.015-5.358-6.381-8.712c-0.451-4.049,0.98-8.017,2.698-11.576c1.104-2.291,2.25-4.582,3.396-6.831
		c2.494-4.623,4.99-9.244,7.443-13.826c0.654,0.164,1.351,0.245,2.047,0.287c0.694,7.526,1.552,15.011,2.045,22.537
		c0.285,4.132,0.245,8.59-1.76,12.354C215.197,120.429,211.066,124.068,207.263,123.21z M226.773,116.666
		c-2.453-2.905-3.477-6.709-4.09-10.349c-1.31-8.018-1.801-16.197-2.619-24.297c0.369-0.122,0.695-0.245,1.063-0.367
		c-0.04,0,0.329-0.205,0.819-0.45c4.99,6.176,10.267,12.23,14.931,18.611c2.453,3.354,4.785,7.28,4.785,11.616
		c-0.041,3.068-1.596,7.772-4.868,8.958C233.358,121.615,228.9,119.16,226.773,116.666z M245.957,115.356
		c0.531-2.74,1.35-6.339,4.949-3.844c1.431,0.983,2.576,2.25,3.764,3.436c0.327,0.327,0.613,0.654,0.981,0.981
		c1.186,1.145,2.412,2.208,4.009,2.944c0.204,0.083,0.367,0.123,0.531,0.165c4.539,2.208,9.98,2.862,15.094,2.74
		c9.242-0.245,18.241-2.659,27.403-3.681c0.369,2.167,0.736,4.295,1.106,6.463c-10.677,1.431-21.353,3.845-32.192,3.64
		C261.745,128.037,250.13,125.214,245.957,115.356z M264.446,115.97c-2.946-2.986-2.783-7.526,0-10.554
		c2.985-2.74,7.565-2.944,10.51,0c2.863,2.864,2.863,7.69,0,10.554C272.134,118.833,267.31,118.874,264.446,115.97z
		 M315.369,105.376c1.023-9.163,3.395-18.203,3.642-27.487c0.122-5.113-0.532-10.594-2.741-15.135
		c-0.04-0.164-0.081-0.368-0.164-0.531c-0.736-1.636-1.798-2.905-2.985-4.09c-0.287-0.328-0.614-0.655-0.941-0.942
		c-1.227-1.186-2.455-2.331-3.435-3.763c-2.537-3.64,1.104-4.417,3.804-4.95c9.814,4.213,12.679,15.871,12.802,25.729
		c0.164,10.879-2.208,21.556-3.641,32.272C319.665,106.112,317.538,105.744,315.369,105.376z M301.258,51.751
		c1.023,3.478,0.53,8.794-2.822,10.962c-2.945,1.883-7.854,0.246-10.307-1.676c-3.109-2.414-4.909-6.013-6.219-9.653
		c-0.695-1.922-1.35-3.845-1.963-5.768c-0.206-0.654-0.408-1.309-0.612-1.963c-1.516-5.072-2.987-10.103-4.5-15.175
		c0.571-0.367,1.104-0.777,1.595-1.227c5.972,4.949,12.066,9.734,17.793,14.888C297.168,44.757,300.071,47.825,301.258,51.751z
		 M297.618,39.685c-6.587-4.744-12.721-10.185-18.98-15.296c0.123-0.246,0.288-0.532,0.368-0.819
		c0.166-0.369,0.286-0.737,0.368-1.104c7.854,0.817,15.829,1.35,23.644,2.536c3.64,0.573,7.32,1.473,10.307,3.763
		c2.823,2.127,5.645,6.75,4.295,10.471c-1.104,3.027-5.44,4.787-8.345,4.909C304.939,44.268,301.013,42.139,297.618,39.685z
		 M326.863,37.517c-1.676-0.982-2.945-2.331-4.008-3.845c8.794,1.719,17.588-2.454,24.419-8.385
		c9.285-8.017,15.787-18.651,23.19-28.305c1.883,1.351,3.765,2.7,5.646,4.009c-4.417,6.135-8.671,12.475-13.335,18.446
		c-3.68,4.745-8.466,10.145-13.866,14.44C342.447,37.354,334.021,41.649,326.863,37.517z M364.37-11.034
		c1.433-1.636,2.905-3.232,4.542-4.705c4.377,2.945,8.794,5.89,13.171,8.836c-1.433,1.799-2.863,3.639-4.213,5.521
		C373.371-4.613,368.871-7.803,364.37-11.034z M367.767-4.94c-6.136,8.017-11.617,16.607-18.652,23.888
		c-7.281,7.485-17.996,14.93-28.713,10.594c-0.042-0.042-0.083-0.081-0.123-0.165c-1.432-1.962-3.478-4.622,0.123-5.93
		c1.799-0.655,4.212-0.164,6.093-0.164c2.129,0,4.133-0.245,6.137-0.981c0.203-0.082,0.369-0.164,0.491-0.286
		c5.316-1.883,10.144-5.973,13.947-10.267c5.687-6.422,10.062-13.866,15.421-20.534C364.249-7.477,366.007-6.208,367.767-4.94z
		 M341.343,9.417c0.041,9.613-14.397,9.531-14.849,0C326.945-0.114,341.343-0.236,341.343,9.417z M297.739,3.119
		c-1.595,0.98-3.189,1.922-4.824,2.862c-0.287,0.164-0.575,0.327-0.901,0.491c-4.622,2.413-9.204,4.868-13.825,7.281
		c-0.328-0.491-0.737-0.899-1.145-1.309c3.436-6.381,6.666-12.885,10.389-19.02c1.8-2.944,3.966-5.85,7.117-7.526
		c2.74-1.473,7.524-1.881,9.857,0.45c2.168,2.167,1.923,6.543,0.736,9.203C303.63-1.095,300.767,1.236,297.739,3.119z
		 M252.665,12.484c-4.582,1.718-9.53,3.396-14.438,2.455c-5.237-0.981-10.391-5.726-8.386-11.576
		c2.168-6.34,10.267-5.89,14.726-2.618C248.451,3.609,250.701,8.108,252.665,12.484z M197.24-8.294
		c2.741,1.636,5.277,3.845,6.423,6.913c1.021,2.741,1.105,5.768,1.268,8.712c-2.742-0.164-5.563-0.245-8.14-1.146
		c-3.313-1.145-5.645-3.64-7.402-6.585c-2.497-4.294-3.724-9.162-5.769-13.661C188.121-12.017,192.987-10.79,197.24-8.294z
		 M170.572-0.4c-1.595,2.741-3.845,5.276-6.872,6.422c-2.74,1.023-5.768,1.104-8.671,1.309c0.164-2.74,0.245-5.603,1.104-8.18
		c1.146-3.313,3.6-5.687,6.585-7.404c4.253-2.536,9.121-3.763,13.622-5.808C174.294-9.563,173.067-4.695,170.572-0.4z
		 M130.159,3.363c2.004,5.808-3.15,10.553-8.385,11.576c-4.908,0.941-9.857-0.736-14.438-2.455
		c1.963-4.335,4.213-8.875,8.099-11.698C119.934-2.526,127.992-2.977,130.159,3.363z M81.771,13.712
		c-4.418-2.332-8.835-4.664-13.294-6.995c-0.327-0.164-0.655-0.368-1.022-0.532c-1.636-0.899-3.231-1.839-4.787-2.782
		c-2.945-1.799-5.849-3.967-7.527-7.117c-5.848-11.084,8.059-17.915,17.14-3.313c3.886,6.257,7.158,12.925,10.635,19.429
		C82.507,12.812,82.098,13.262,81.771,13.712z M33.505,9.417c-0.45,9.531-14.849,9.653-14.849,0
		C18.616-0.195,33.055-0.114,33.505,9.417z M12.93,11.831c3.804,4.294,8.631,8.384,13.949,10.267
		c0.123,0.123,0.286,0.205,0.49,0.286c2.004,0.736,4.009,0.981,6.136,0.981c1.922,0,4.253-0.49,6.095,0.164
		c3.599,1.309,1.513,3.967,0.081,5.971c-0.04,0.042-0.081,0.082-0.081,0.123c-10.676,4.294-21.434-3.109-28.715-10.594
		C3.85,11.749-1.672,3.159-7.767-4.858c1.76-1.268,3.56-2.536,5.318-3.804C2.869-2.036,7.245,5.408,12.93,11.831z M-17.869-1.422
		c-1.392-1.881-2.783-3.722-4.214-5.522c4.377-2.945,8.794-5.89,13.171-8.835c1.595,1.473,3.108,3.067,4.541,4.704
		C-8.871-7.803-13.371-4.613-17.869-1.422z M-30.795,1.277c0-5.359,7.976-5.318,8.263,0C-22.819,6.595-30.795,6.636-30.795,1.277z
		 M-24.333,11.503c0-6.135,9.162-6.095,9.49,0C-15.17,17.598-24.333,17.638-24.333,11.503z M-16.601,22.628
		c0-6.136,9.162-6.094,9.489,0C-7.439,28.723-16.601,28.764-16.601,22.628z M1.069,31.914c-0.286,5.44-8.467,5.48-8.467,0
		C-7.398,26.433,0.741,26.474,1.069,31.914z M-18.77,35.391c-2.209-2.045-1.841-5.235,0.164-7.076
		c1.963,2.29,4.131,4.621,6.504,6.748C-13.861,36.863-16.684,37.272-18.77,35.391z M8.431,37.722c-0.164,3.313-5.154,3.354-5.154,0
		C3.277,34.367,8.268,34.409,8.431,37.722z M18.084,41.894c3.927,1.759,8.059,2.74,12.271,2.577
		c-3.109,2.864-5.317,6.504-6.872,10.513c-9.98,2.904-14.398,11.452-15.952,20.819c-7.486-4.704-15.176-9.08-23.478-12.106
		C-12.224,55.638-9.853,47.13-7.89,38.5C-0.199,44.062,8.881,46.925,18.084,41.894z M19.599,64.8
		c2.249,2.454-1.269,6.013-3.642,3.64C13.626,66.109,17.185,62.551,19.599,64.8z M18.453,74.125c1.554,1.719,1.677,4.295,0,6.013
		c-1.637,1.636-4.336,1.636-5.973,0s-1.636-4.376,0-6.013C14.157,72.449,16.775,72.531,18.453,74.125z M-22,45.616
		c-0.859-2.086,0.164-4.54,2.25-5.399c2.208-0.94,4.335,0.246,5.358,2.209C-12.797,47.417-19.915,50.688-22,45.616z M-25.028,56.864
		c-0.818-2.044,0.123-4.376,2.168-5.194c2.168-0.899,4.172,0.245,5.195,2.127C-16.192,58.624-23.023,61.773-25.028,56.864z
		 M-27.564,68.563c-1.513-4.827,5.358-7.976,7.363-3.068c0.818,2.046-0.124,4.376-2.167,5.195
		C-24.537,71.591-26.541,70.485-27.564,68.563z M-17.583,74.985c-0.819-2.045,0.122-4.376,2.167-5.195
		c2.167-0.899,4.172,0.246,5.195,2.127C-8.708,76.744-15.579,79.893-17.583,74.985z M-7.48,80.793
		c-0.859-2.085,0.164-4.541,2.25-5.399c2.208-0.94,4.334,0.246,5.357,2.209C1.723,82.593-5.394,85.825-7.48,80.793z M2.05,86.274
		c-0.246-3.027,2.208-5.072,4.908-5.032c-0.164,3.19-0.082,6.381,0.164,9.367C4.587,90.732,2.255,89.056,2.05,86.274z
		 M12.522,93.228c-1.841-1.841-1.841-4.907,0-6.749c1.881-1.882,4.786-1.759,6.708,0c1.76,1.923,1.883,4.826,0,6.749
		C17.39,95.069,14.362,95.069,12.522,93.228z M14.935,106.562c-1.84-1.84-1.84-4.908,0-6.748c1.882-1.881,4.786-1.759,6.708,0
		c1.759,1.922,1.881,4.826,0,6.748C19.802,108.403,16.734,108.403,14.935,106.562z M24.343,84.105
		c-0.614-5.603-0.941-12.229-0.123-18.61c2.127-7.035,5.031-15.952,13.007-18.079c1.882-0.491,3.723-0.41,5.522-0.123
		c-6.79,4.622-10.185,12.803-11.167,21.064c-1.513,12.967,1.676,25.893,3.313,38.736c-2.291,0.368-4.54,0.777-6.831,1.146
		C26.796,100.141,25.243,92.165,24.343,84.105z M44.876,108.361c0.163,2.169,0.204,4.336,0.123,6.545
		c-5.195,1.022-10.348,2.085-15.544,3.109c-0.245-2.292-0.571-4.582-0.899-6.872C33.996,110.202,39.436,109.261,44.876,108.361z
		 M17.553,118.384c-1.596-1.596-1.596-4.254,0-5.85c1.637-1.635,4.172-1.554,5.849,0c1.514,1.677,1.637,4.214,0,5.85
		C21.806,119.978,19.148,119.978,17.553,118.384z M19.026,129.958c-3.641-3.64,1.88-9.163,5.644-5.685
		c1.473,1.595,1.596,4.09,0,5.685C23.116,131.513,20.539,131.513,19.026,129.958z M30.028,132.781
		c0.164-3.927,0.041-7.854-0.286-11.739c4.99-0.982,9.98-2.004,14.971-2.986c-0.983,4.99-2.005,10.021-2.986,15.012
		C37.841,132.7,33.955,132.577,30.028,132.781z M44.713,133.313c1.022-5.194,2.085-10.39,3.107-15.584
		c2.168-0.083,4.376-0.041,6.505,0.123c-0.941,5.44-1.841,10.921-2.783,16.361C49.294,133.885,47.002,133.6,44.713,133.313z
		 M55.675,127.832c12.762,1.636,25.646,4.868,38.572,3.354c8.221-0.981,16.402-4.418,20.983-11.208
		c0.286,1.841,0.368,3.682-0.123,5.564c-2.126,7.976-11.044,10.92-18.039,13.048c-6.339,0.817-12.966,0.491-18.529-0.123
		c-8.058-0.859-15.993-2.454-24.01-3.763C54.897,132.413,55.307,130.123,55.675,127.832z M21.152,141.698
		c-3.64-3.641,1.883-9.162,5.645-5.686c1.473,1.595,1.596,4.09,0,5.686C25.243,143.252,22.666,143.252,21.152,141.698z
		 M32.81,143.825c-3.641-3.64,1.882-9.163,5.645-5.685c1.473,1.594,1.596,4.09,0,5.685C36.94,145.379,34.363,145.338,32.81,143.825z
		 M44.344,145.298c-1.595-1.596-1.595-4.253,0-5.85c1.636-1.637,4.173-1.553,5.849,0c1.514,1.678,1.637,4.213,0,5.85
		C48.598,146.893,45.939,146.893,44.344,145.298z M56.125,147.916c-1.84-1.841-1.84-4.909,0-6.75c1.881-1.882,4.785-1.76,6.708,0
		c1.758,1.922,1.882,4.827,0,6.75C60.992,149.756,57.965,149.756,56.125,147.916z M69.418,150.329c-1.841-1.841-1.841-4.909,0-6.75
		c1.881-1.88,4.786-1.758,6.708,0c1.758,1.923,1.881,4.827,0,6.75C74.285,152.169,71.259,152.169,69.418,150.329z M94.123,146.852
		c-2.33-2.373,1.188-5.89,3.641-3.64C100.014,145.665,96.455,149.224,94.123,146.852z M88.439,150.37
		c-1.637,1.637-4.336,1.637-5.974,0c-1.634-1.635-1.634-4.376,0-6.012c1.678-1.678,4.295-1.595,5.974,0
		C90.033,146.075,90.156,148.692,88.439,150.37z M107.54,139.325c4.009-1.553,7.608-3.763,10.472-6.872
		c-0.164,4.254,0.818,8.387,2.577,12.313c-5.031,9.203-2.168,18.324,3.395,26.014c-8.589,2.004-17.098,4.335-25.115,8.098
		c-3.027-8.343-7.403-16.033-12.066-23.56C96.127,153.764,104.635,149.346,107.54,139.325z M76.331,160.841
		c-2.741-0.205-4.459-2.536-4.336-5.112c2.986,0.245,6.135,0.326,9.325,0.163C81.362,158.632,79.357,161.086,76.331,160.841z
		 M81.812,170.372c-2.085-0.859-3.108-3.272-2.25-5.399c0.941-2.25,3.232-2.945,5.4-2.25c1.841,0.982,3.027,2.863,2.372,5.031
		C86.638,170.084,84.021,171.313,81.812,170.372z M87.621,180.515c-2.046-0.818-2.987-3.19-2.168-5.194
		c0.899-2.167,3.149-2.823,5.235-2.167c1.759,0.94,2.864,2.781,2.25,4.867C92.242,180.271,89.747,181.415,87.621,180.515z
		 M93.96,190.537c-1.76-0.941-2.864-2.782-2.25-4.867c0.695-2.25,3.189-3.395,5.317-2.495c2.045,0.818,2.986,3.19,2.168,5.195
		C98.337,190.577,96.087,191.232,93.96,190.537z M105.658,188.042c-2.044-0.818-2.985-3.19-2.167-5.194
		c0.9-2.169,3.149-2.823,5.235-2.169c1.759,0.94,2.864,2.781,2.25,4.867C110.28,187.754,107.785,188.9,105.658,188.042z
		 M150.856,177.775c6.054,0.328,6.136,9.53,0,9.53C144.721,187.305,144.762,178.103,150.856,177.775z M161.041,185.505
		c5.277,0.287,5.358,8.304,0,8.304C155.683,193.768,155.724,185.792,161.041,185.505z M170.244,192.909
		c5.114,0.286,5.156,8.018,0,8.018C165.091,200.927,165.132,193.195,170.244,192.909z M179.979,207.716
		c-5.153,0-5.112-7.731,0-8.017C185.093,199.984,185.176,207.716,179.979,207.716z M189.756,200.927c-5.155,0-5.113-7.732,0-8.018
		C194.87,193.195,194.91,200.927,189.756,200.927z M198.959,193.768c-5.359,0-5.276-8.017,0-8.304
		C204.235,185.792,204.315,193.768,198.959,193.768z M209.144,187.305c-6.136,0-6.096-9.202,0-9.53
		C215.197,178.103,215.278,187.305,209.144,187.305z M268.127,185.343c0.897,2.167-0.246,4.211-2.128,5.194
		c-4.786,1.513-7.936-5.358-3.069-7.362C264.977,182.314,267.267,183.297,268.127,185.343z M254.341,188.042
		c-2.045,0.859-4.335-0.123-5.194-2.167c-0.9-2.168,0.245-4.213,2.126-5.195C256.102,179.125,259.25,185.997,254.341,188.042z
		 M272.381,180.515c-2.045,0.859-4.336-0.123-5.195-2.167c-0.898-2.167,0.246-4.213,2.128-5.194
		C274.139,171.64,277.248,178.511,272.381,180.515z M278.147,170.372c-2.087,0.86-4.499-0.164-5.358-2.25
		c-0.901-2.249,0.246-4.335,2.209-5.399C279.947,161.168,283.22,168.286,278.147,170.372z M283.669,160.841
		c-2.986,0.246-5.031-2.209-5.031-4.949c3.192,0.163,6.341,0.082,9.328-0.163C288.087,158.264,286.408,160.636,283.669,160.841z
		 M273.198,155.319c-4.663,7.526-9.04,15.216-12.067,23.56c-8.016-3.763-16.524-6.094-25.113-8.098
		c5.563-7.69,8.425-16.812,3.395-26.014c1.758-3.926,2.74-8.099,2.576-12.313c2.863,3.109,6.463,5.318,10.471,6.872
		C255.364,149.346,263.871,153.764,273.198,155.319z M265.876,146.852c-2.33,2.373-5.89-1.187-3.64-3.64
		C264.69,140.962,268.209,144.521,265.876,146.852z M277.493,144.357c1.637,1.636,1.637,4.377,0,6.012
		c-1.636,1.637-4.335,1.637-5.972,0c-1.678-1.677-1.555-4.295,0-6.012C273.24,142.803,275.814,142.68,277.493,144.357z
		 M283.875,150.329c-1.883-1.923-1.76-4.827,0-6.75c1.922-1.758,4.826-1.88,6.707,0c1.841,1.841,1.841,4.909,0,6.75
		S285.673,152.169,283.875,150.329z M303.876,147.916c-1.841,1.84-4.867,1.84-6.708,0c-1.883-1.922-1.758-4.827,0-6.75
		c1.922-1.76,4.826-1.882,6.708,0C305.675,143.048,305.675,146.075,303.876,147.916z M309.766,145.298
		c-1.637-1.678-1.555-4.172,0-5.85c1.677-1.553,4.213-1.637,5.85,0c1.594,1.596,1.594,4.253,0,5.85
		C314.02,146.893,311.36,146.893,309.766,145.298z M321.546,138.14c1.596-1.473,4.049-1.595,5.646,0
		c1.554,1.554,1.554,4.131,0,5.685C323.509,147.465,318.027,141.944,321.546,138.14z M338.848,136.013
		c1.555,1.554,1.555,4.131,0,5.686c-3.641,3.64-9.12-1.882-5.645-5.686C334.799,134.539,337.251,134.418,338.848,136.013z
		 M281.46,138.467c-5.563,0.614-12.189,0.94-18.53,0.123c-6.993-2.128-15.867-5.072-18.036-13.048
		c-0.492-1.882-0.41-3.723-0.124-5.564c4.581,6.79,12.763,10.227,20.985,11.208c12.925,1.514,25.811-1.677,38.571-3.354
		c0.369,2.291,0.776,4.581,1.145,6.872C297.455,135.972,289.519,137.566,281.46,138.467z M308.415,134.213
		c-0.94-5.44-1.84-10.921-2.781-16.361c2.169-0.163,4.336-0.205,6.506-0.123c1.021,5.194,2.085,10.39,3.107,15.584
		C312.997,133.6,310.706,133.885,308.415,134.213z M340.976,124.315c1.555,1.554,1.555,4.13,0,5.685
		c-3.642,3.641-9.122-1.88-5.646-5.685C336.926,122.801,339.379,122.719,340.976,124.315z M329.974,132.781
		c-3.929-0.164-7.814-0.042-11.7,0.287c-0.981-4.991-2.004-10.022-2.986-15.012c4.991,0.982,9.981,2.004,14.971,2.986
		C329.932,124.928,329.808,128.813,329.974,132.781z M342.447,112.495c1.595,1.594,1.595,4.253,0,5.848
		c-1.595,1.595-4.255,1.595-5.849,0c-1.637-1.676-1.555-4.172,0-5.848C338.274,110.98,340.812,110.857,342.447,112.495z
		 M331.443,111.144c-0.325,2.29-0.653,4.581-0.899,6.872c-5.194-1.023-10.348-2.086-15.543-3.109
		c-0.082-2.209-0.042-4.376,0.122-6.545C320.563,109.261,326.004,110.202,331.443,111.144z M345.066,99.854
		c1.84,1.84,1.84,4.908,0,6.749c-1.843,1.84-4.869,1.84-6.709,0c-1.881-1.922-1.759-4.826,0-6.749
		C340.28,98.096,343.184,97.932,345.066,99.854z M331.896,108.158c-2.293-0.368-4.542-0.777-6.832-1.146
		c1.637-12.803,4.826-25.728,3.313-38.736c-0.981-8.262-4.377-16.442-11.168-21.064c1.842-0.287,3.683-0.368,5.522,0.123
		c7.937,2.168,10.881,11.085,13.008,18.079c0.819,6.381,0.491,13.007-0.122,18.611C334.756,92.165,333.162,100.141,331.896,108.158z
		 M344.042,68.44c-2.33,2.373-5.89-1.186-3.64-3.64C342.815,62.551,346.375,66.109,344.042,68.44z M347.52,74.125
		c1.637,1.637,1.637,4.377,0,6.013s-4.336,1.636-5.973,0c-1.676-1.676-1.555-4.294,0-6.013
		C343.224,72.571,345.842,72.449,347.52,74.125z M340.771,93.228c-1.883-1.922-1.759-4.826,0-6.749c1.922-1.759,4.827-1.882,6.708,0
		c1.841,1.841,1.841,4.908,0,6.749C345.639,95.069,342.57,95.069,340.771,93.228z M357.95,86.274
		c-0.205,2.74-2.537,4.458-5.072,4.335c0.244-2.985,0.327-6.176,0.163-9.367C355.742,81.243,358.155,83.248,357.95,86.274z
		 M367.439,80.793c-0.858,2.086-3.273,3.109-5.358,2.25c-2.251-0.941-2.945-3.272-2.251-5.399c0.982-1.881,2.864-3.026,5.032-2.372
		C367.194,75.967,368.38,78.543,367.439,80.793z M377.583,74.985c-0.818,2.045-3.148,3.026-5.193,2.167
		c-2.169-0.9-2.824-3.149-2.169-5.276c0.94-1.8,2.781-2.904,4.827-2.25C377.297,70.322,378.442,72.817,377.583,74.985z
		 M385.396,63.328c2.169,0.9,2.823,3.149,2.169,5.276c-0.941,1.799-2.781,2.904-4.828,2.25c-2.208-0.695-3.394-3.19-2.495-5.358
		C381.02,63.451,383.351,62.468,385.396,63.328z M382.532,51.547c2.209,0.696,3.396,3.191,2.495,5.359
		c-0.816,2.045-3.149,3.027-5.193,2.168c-2.168-0.9-2.824-3.149-2.168-5.277C378.647,51.998,380.446,50.893,382.532,51.547z
		 M379.384,40.094c2.29,0.695,3.518,3.313,2.576,5.521c-0.859,2.086-3.273,3.109-5.357,2.25c-2.251-0.94-2.946-3.272-2.251-5.399
		C375.333,40.585,377.215,39.4,379.384,40.094z M375.947,63.696c-8.304,3.026-15.994,7.403-23.478,12.106
		c-1.515-9.367-5.933-17.915-15.953-20.819c-1.555-4.009-3.764-7.649-6.872-10.513c4.213,0.164,8.345-0.818,12.271-2.577
		c9.204,5.031,18.243,2.167,25.933-3.395C369.852,47.13,372.186,55.679,375.947,63.696z M351.568,37.722
		c0.164-3.313,5.153-3.355,5.153,0C356.722,41.076,351.732,41.035,351.568,37.722z M378.729,35.391
		c-2.045,1.882-4.907,1.514-6.668-0.328c2.374-2.127,4.542-4.417,6.505-6.748C380.569,30.155,380.938,33.345,378.729,35.391z
		 M367.398,31.914c0,5.48-8.182,5.44-8.467,0C359.217,26.474,367.398,26.433,367.398,31.914z M376.603,22.628
		c0,6.135-9.163,6.094-9.491,0C367.439,16.534,376.603,16.493,376.603,22.628z M384.291,11.503c0,6.135-9.161,6.095-9.489,0
		C375.17,5.408,384.291,5.368,384.291,11.503z M390.755,1.277c0,5.358-7.977,5.317-8.264,0
		C382.778-3.999,390.755-4.082,390.755,1.277z M397.913-7.926c0,5.195-7.69,5.154-7.977,0
		C390.181-13.081,397.913-13.121,397.913-7.926z M404.662-17.825c0,0.041,0,0.041,0,0.083c0,5.194-7.69,5.153-7.977,0
		c0-0.042,0-0.042,0-0.083H404.662z M392.022-17.825c0.04,0.041,0.04,0.041,0.081,0.083c-2.903,2.658-5.563,5.521-8.098,8.507
		c-4.255-2.823-8.468-5.686-12.722-8.507c0.041-0.042,0.082-0.042,0.082-0.083H392.022z M366.089-17.825
		c0.042,0.041,0.042,0.041,0.082,0.083c-4.949,4.662-8.835,10.184-12.72,15.707c-0.124,0.082-0.246,0.163-0.369,0.286
		c-1.677,1.718-4.377,2.659-7.199,2.904c-3.148,0.124-6.381-0.817-8.22-2.985c-3.846-4.499-1.229-11.125,2.371-14.807
		c0.286-0.327,0.449-0.736,0.409-1.146h25.646V-17.825z M333.448-17.825c0,0.041,0,0.041,0,0.083c0,6.299-5.112,11.616-11.37,11.862
		c-6.791,0.286-12.067-5.236-12.313-11.862c0-0.042,0-0.042,0-0.083H333.448z M291.359-17.825c0,0.041,0,0.041,0,0.083
		c0,3.353-4.989,3.313-5.153,0c0-0.042,0-0.042,0-0.083H291.359z M280.971-17.825c0,0.041,0,0.041,0,0.083
		c0,14.355-10.021,26.587-23.685,30.023c-1.35-2.414-2.535-4.909-3.723-7.405c10.922-1.84,19.472-11.125,19.472-22.618
		c0-0.042,0-0.042,0-0.083H280.971z M269.721-17.825c0,0.041,0,0.041,0,0.083c0,10.103-7.812,18.364-17.63,19.47
		c-1.349-2.782-2.779-5.564-4.498-8.1c0.817,0.205,1.719,0.327,2.617,0.327c6.341,0,11.658-5.317,11.658-11.697
		c0-0.042,0-0.042,0-0.083H269.721z M258.515-17.825c0,0.041,0,0.041,0,0.083c0,4.54-3.764,8.343-8.305,8.343
		c-4.703,0-8.099-3.804-8.303-8.343c0-0.042,0-0.042,0-0.083H258.515z M215.197-17.825c0.041,0.041,0.041,0.041,0.081,0.083
		c-1.717,1.512-3.435,3.107-5.398,4.334c-3.354,2.087-7.075,2.25-10.839,1.269c-4.868-1.227-9.245-3.845-13.907-5.604
		c0.042-0.042,0.122-0.042,0.163-0.083H215.197z M174.662-17.825c0.042,0.041,0.123,0.041,0.164,0.083
		c-4.663,1.758-9.039,4.376-13.907,5.604c-3.56,0.899-7.158,0.858-10.43-1.023c-2.127-1.227-3.968-2.945-5.809-4.58
		c0.041-0.042,0.041-0.042,0.082-0.083H174.662z M118.093-17.825c0.164,3.232-2.741,8.426-8.303,8.426
		c-4.5,0-8.344-3.804-8.303-8.426H118.093z M98.132-17.825c-0.041,6.421,5.318,11.739,11.657,11.739c0.9,0,1.8-0.123,2.659-0.328
		c-1.718,2.577-3.149,5.318-4.499,8.099c-9.776-1.104-17.671-9.284-17.671-19.551h7.854V-17.825z M86.966-17.825
		c-0.042,11.494,8.467,20.82,19.47,22.701c-1.185,2.496-2.373,5.032-3.723,7.405C89.093,8.803,79.03-3.304,79.03-17.825H86.966z
		 M73.755-17.825c0.244,3.149-5.237,3.641-5.156,0H73.755z M50.235-17.825C50.439-12.67,45.858-5.84,38.412-5.88
		c-6.42-0.042-11.861-5.359-11.82-11.944H50.235z M19.557-17.825c-0.041,1.146,8.55,9.244,2.782,15.952
		c-1.759,2.045-4.786,3.026-7.812,2.986c-2.946-0.164-5.85-1.105-7.609-2.904C6.795-1.914,6.672-1.995,6.55-2.077
		C2.664-7.598-1.222-13.121-6.171-17.784c0.042-0.041,0.042-0.041,0.081-0.081h25.647V-17.825z M-11.407-17.825
		c0.041,0.041,0.082,0.041,0.082,0.083c-4.213,2.822-8.466,5.685-12.68,8.507c-2.495-2.986-5.195-5.85-8.098-8.507
		c0.04-0.042,0.04-0.042,0.081-0.083H-11.407z M-36.686-17.825c0.328,4.827-8.058,5.604-7.976,0H-36.686z"/>
</g>
</svg>
