<?xml version="1.0" encoding="utf-8"?>
<!-- Generator: Adobe Illustrator 16.0.0, SVG Export Plug-In . SVG Version: 6.00 Build 0)  -->
<!DOCTYPE svg PUBLIC "-//W3C//DTD SVG 1.1//EN" "http://www.w3.org/Graphics/SVG/1.1/DTD/svg11.dtd">
<svg version="1.1" id="Layer_1" xmlns="http://www.w3.org/2000/svg" xmlns:xlink="http://www.w3.org/1999/xlink" x="0px" y="0px"
	 width="360px" height="640px" viewBox="0 0 360 640" enable-background="new 0 0 360 640" xml:space="preserve">
<g>
	<defs>
		<rect id="SVGID_1_" x="0.243" width="359.757" height="640.426"/>
	</defs>
	<clipPath id="SVGID_2_">
		<use xlink:href="#SVGID_1_"  overflow="visible"/>
	</clipPath>
	<path opacity="0.15" clip-path="url(#SVGID_2_)" fill="#FFFFFF" enable-background="new    " d="M-24.636,692.479
		c0.807,0,1.489-0.248,1.923-0.744c17.124-18.053,39.707-29.098,59.622-43.678c23.824,5.77,48.951,7.383,71.597,17.434
		c1.613,0.684,3.103,0.125,3.722-1.488c8.872-23.08,25.438-41.939,38.219-62.787c24.444-3.66,48.207-11.787,73.147-11.168
		c1.365,0.063,2.543-1.178,2.543-2.543c-0.682-24.879,7.445-48.578,11.168-72.898c20.971-12.719,39.894-29.283,63.034-38.094
		c1.614-0.621,2.234-2.109,1.489-3.723c-10.112-22.521-11.726-47.586-17.495-71.348c14.642-19.791,25.747-42.314,43.801-59.438
		c0.993-0.931,0.993-2.668,0-3.599c-18.116-17.062-29.222-39.582-43.801-59.436c5.77-23.762,7.445-48.765,17.495-71.348
		c0.683-1.613,0.125-3.102-1.489-3.722c-23.141-8.81-42.063-25.375-63.034-38.094c-3.723-24.32-11.85-48.02-11.168-72.899
		c0.063-1.365-1.178-2.543-2.543-2.543c-24.94,0.683-48.765-7.445-73.147-11.167c-12.78-20.908-29.408-39.769-38.219-62.787
		c-0.619-1.613-2.108-2.233-3.722-1.489C85.86,24.97,60.796,26.645,36.909,32.353C17.057,17.959-5.589,6.916-22.713-11.138
		c-0.434-0.497-1.116-0.745-1.799-0.745c0,0-0.063,0-0.124,0h-0.124v704.361H-24.636z M-9.622,670.826
		c-7.879,0-7.817-11.664,0-12.098C-1.866,659.102-1.805,670.826-9.622,670.826z M-3.852,435.254
		c0.807,2.109,1.923,4.033,3.164,5.707c-3.227-1.861-6.267-3.971-9.059-6.391c-10.919-9.553-12.098-22.83-11.788-36.48
		c1.676-1.986,3.351-3.971,4.84-5.893c0.807,6.08,2.729,12.16,6.328,16.998c2.233,2.979,5.584,5.461,9.244,6.516
		C-5.341,421.045-6.271,429.049-3.852,435.254z M-8.629,402.246c-2.481-5.334-3.412-11.291-3.536-17.061c0-0.063,0-0.125,0-0.125
		c1.364-2.977,2.233-6.266,2.109-9.988c2.543,2.668,5.397,4.344,8.499,5.461c0.063,0.061,0.124,0.186,0.187,0.248
		c3.784,3.908,6.948,8.313,9.058,13.338c2.172,5.088,3.537,13.836-2.978,16.564C-1.185,413.043-6.396,406.963-8.629,402.246z
		 M-1.185,264.948c-3.536,0.993-6.762,3.35-8.996,6.204c-3.722,4.839-5.646,11.043-6.514,17.248
		c-1.552-1.986-3.164-3.909-4.84-5.894c-0.248-13.65,0.931-26.864,11.788-36.481c2.792-2.482,5.832-4.529,9.059-6.452
		c-1.117,1.551-2.048,3.164-2.854,5.025C-6.147,250.864-5.527,259.364-1.185,264.948z M-12.165,295.41
		c0.124-5.397,0.992-10.733,3.04-15.758c2.047-5.088,7.32-12.285,13.835-9.617c5.894,2.42,5.336,10.361,3.536,15.263
		c-1.985,5.521-5.584,10.423-9.616,14.579c-0.063,0.062-0.124,0.187-0.187,0.249c-3.04,1.116-5.894,2.854-8.499,5.459
		c0.124-3.784-0.745-7.01-2.109-9.988C-12.165,295.534-12.165,295.472-12.165,295.41z M178.986,171.016
		c-0.063,0.249-0.125,0.497-0.125,0.745c0,3.598-1.861,7.507-4.592,10.795c-3.226,3.537-7.755,6.018-12.035,5.708
		c-8.996-0.62-13.277-10.609-13.401-18.364c0-1.241-1.055-2.234-2.295-2.296c-7.818-0.124-17.806-4.405-18.427-13.339
		c-0.311-4.405,2.233-8.996,5.956-12.222c3.226-2.668,7.011-4.405,10.547-4.405c0.248,0,0.497-0.062,0.745-0.124
		c10.112,1.737,20.163,3.412,30.462,3.164C175.573,150.915,177.31,160.966,178.986,171.016z M253.746,284.119
		c7.073,8.996,13.524,18.55,20.288,27.857c-2.854,2.047-5.708,4.032-8.563,6.08c-11.292-14.58-21.155-30.649-35.363-42.809
		c-10.424-8.934-23.824-15.2-37.226-12.657c1.675-2.295,3.536-4.343,6.143-5.832c10.919-6.266,23.762,0.311,33.564,5.522
		C240.903,268.732,248.1,276.984,253.746,284.119z M236.684,256.51c0.249-5.025,7.818-5.025,7.818,0
		C244.502,261.536,236.933,261.474,236.684,256.51z M278.004,260.047c3.351,3.102,2.792,7.879-0.248,10.671
		c-2.978-3.475-6.266-6.949-9.864-10.175C270.559,257.751,274.902,257.131,278.004,260.047z M282.968,244.536
		c1.303,3.164-0.248,6.825-3.413,8.128c-3.412,1.364-6.576-0.373-8.188-3.351C268.946,241.806,279.742,236.905,282.968,244.536z
		 M274.778,279.28c0,9.306-13.959,9.244-14.456,0C260.819,270.097,274.778,269.973,274.778,279.28z M247.852,265.258
		c0.435-8.189,12.844-8.314,12.844,0C260.757,273.51,248.348,273.448,247.852,265.258z M278.004,420.611
		c-3.102,2.854-7.445,2.232-10.112-0.496c3.599-3.227,6.887-6.701,9.864-10.174C280.796,412.67,281.417,417.51,278.004,420.611z
		 M282.968,436.061c-1.303,3.164-4.964,4.715-8.189,3.412c-3.412-1.428-4.468-4.902-3.412-8.189
		c1.488-2.793,4.343-4.592,7.631-3.598C282.533,428.738,284.333,432.709,282.968,436.061z M260.322,401.316
		c0.497-9.182,14.456-9.307,14.456,0S260.819,410.561,260.322,401.316z M260.757,415.4c0,8.313-12.409,8.189-12.843,0
		C248.348,407.148,260.757,407.086,260.757,415.4z M253.746,396.539c-5.646,7.135-12.843,15.387-21.156,21.777
		c-9.803,5.211-22.646,11.787-33.564,5.521c-2.606-1.49-4.468-3.537-6.143-5.832c13.401,2.543,26.802-3.723,37.226-12.656
		c14.146-12.1,24.01-28.168,35.363-42.809c2.854,2.047,5.708,4.031,8.563,6.08C267.271,377.926,260.819,387.482,253.746,396.539z
		 M244.502,424.148c0,5.025-7.569,5.025-7.818,0C236.933,419.123,244.502,419.061,244.502,424.148z M182.956,461.932
		c-0.063-0.248-0.124-0.559-0.248-0.807c-1.117-2.48-2.792-4.406-4.529-6.143c-0.434-0.496-0.931-0.992-1.427-1.426
		c-1.861-1.801-3.722-3.537-5.211-5.709c-3.847-5.521,1.737-6.699,5.831-7.508c14.953,6.328,19.295,23.949,19.481,38.838
		c0.248,16.443-3.351,32.572-5.521,48.828c-3.288-0.559-6.515-1.115-9.803-1.676c1.551-13.834,5.212-27.482,5.584-41.568
		C187.361,477.131,186.306,468.818,182.956,461.932z M175.883,539.98c-10.299-0.311-20.349,1.426-30.462,3.164
		c-0.248-0.063-0.496-0.123-0.745-0.123c-3.598,0-7.568-1.863-10.795-4.594c-3.536-3.225-6.018-7.691-5.708-12.035
		c0.621-8.934,10.609-13.215,18.427-13.34c1.241,0,2.233-1.053,2.295-2.295c0.124-7.816,4.405-17.742,13.401-18.363
		c4.405-0.311,8.996,2.232,12.285,5.893c2.667,3.227,4.405,7.012,4.405,10.547c0,0.25,0.062,0.498,0.124,0.746
		C177.31,519.693,175.573,529.682,175.883,539.98z M53.475,556.918c2.296,1.674,4.343,3.535,5.832,6.08
		c6.267,10.918-0.311,23.699-5.521,33.441c-6.452,8.25-14.704,15.447-21.901,21.094c-9.058,7.072-18.612,13.463-27.98,20.225
		c-2.048-2.854-4.095-5.707-6.08-8.561c14.642-11.293,30.772-21.096,42.933-35.24C49.752,583.596,56.081,570.256,53.475,556.918z
		 M61.912,549.039c-5.211,1.861-11.912-1.801-15.2-5.584c-3.723-4.344-5.335-10.113-6.204-15.635
		c-1.985-12.098-2.729-24.506-4.032-36.73c0.558-0.186,1.055-0.371,1.613-0.557c-0.063,0,0.496-0.311,1.24-0.682
		c7.631,9.305,15.635,18.486,22.77,28.104c3.723,5.088,7.321,11.043,7.259,17.559C69.296,540.166,66.876,547.238,61.912,549.039z
		 M22.516,479.24c-1.24-5.521,1.489-10.918,4.219-15.633c5.088,1.365,10.548,3.164,13.649,7.568
		c4.033,5.707,1.8,12.346-4.715,14.891C29.774,488.361,23.881,485.445,22.516,479.24z M31.512,544.572
		c-2.419,4.529-8.686,10.049-14.455,8.746c-5.46-1.24-9.183-8.127-9.679-13.152c-0.683-6.08,1.488-12.098,4.095-17.496
		c1.675-3.475,3.412-6.887,5.211-10.299c3.785-6.949,7.569-13.959,11.354-20.908c0.993,0.248,2.048,0.373,3.103,0.436
		c1.055,11.354,2.42,22.707,3.103,34.061C34.614,532.162,34.552,538.926,31.512,544.572z M14.45,399.332
		c-0.807-6.145-3.847-11.85-7.693-16.877c2.482,0.311,5.025,0.559,7.693,0.807c9.12,8.748,17.62,18.303,17.558,31.703
		c0,4.529-0.806,8.936-1.923,13.277c-0.311-1.922-0.807-3.785-1.613-5.707c-2.605-6.328-9.058-11.727-16.007-12.533
		C14.265,406.838,14.885,402.867,14.45,399.332z M12.403,270.47c6.763-0.745,13.091-5.646,15.82-11.788
		c0.931-2.11,1.489-4.219,1.861-6.391c1.117,4.343,1.923,8.81,1.923,13.339c0.063,13.401-8.438,22.956-17.619,31.704
		c-2.606,0.248-5.212,0.496-7.693,0.806c3.723-4.901,6.763-10.547,7.631-16.503C14.947,277.977,14.326,273.758,12.403,270.47z
		 M35.73,194.53c5.832,2.234,8.687,8.314,5.398,13.898c-2.979,5.087-8.872,7.135-14.395,8.624c-2.605-4.468-5.025-9.307-4.343-14.58
		C23.261,195.709,29.217,192.049,35.73,194.53z M17.429,169.776c-1.924-3.661-3.785-7.259-5.584-10.982
		c-2.792-5.646-5.212-11.912-4.467-18.302c0.559-5.026,4.219-11.912,9.679-13.153c5.77-1.303,12.036,4.219,14.455,8.748
		c2.916,5.398,3.04,11.788,2.73,17.806c-0.683,11.664-2.048,23.328-3.164,34.992c-1.055,0-2.109,0.186-3.103,0.372
		C24.439,182.742,20.902,176.228,17.429,169.776z M84.186,232.004c15.448,15.324,17.682,39.148,6.7,57.512
		c-3.971-1.116-7.941-2.543-11.974-3.97c9.803-13.712,8.996-32.758-3.288-45.043c-12.347-12.346-31.455-13.028-45.229-3.288
		c-1.427-3.971-2.854-7.941-3.971-11.912C44.913,214.384,68.737,216.679,84.186,232.004z M95.787,467.391
		c4.095,1.488,9.244,6.205,9.244,10.797c0,4.156-4.404,8.498-8.065,10.174c-5.335,2.48-11.415,1.861-16.999,0.559
		c-2.605-0.621-5.149-1.242-7.755-1.984c-0.683-0.188-1.304-0.373-1.985-0.621c-7.569-2.357-15.139-4.715-22.708-7.012
		c0.124-0.867,0.187-1.799,0.187-2.668c10.423-3.102,20.846-6.514,31.393-9.119C84.496,466.15,90.39,465.406,95.787,467.391z
		 M89.831,454.238c3.723-3.412,9.12,1.986,5.522,5.521C91.816,463.359,86.419,457.961,89.831,454.238z M60.424,279.962
		c1.116-0.682,2.171-1.489,3.164-2.482c6.824-6.762,6.824-18.24,0-25.003c-6.825-6.762-18.24-6.824-25.065,0
		c-0.992,0.993-1.799,2.048-2.481,3.165c-0.931-4.529-2.296-9.059-3.847-13.526c11.788-9.368,29.036-8.934,39.893,1.924
		c10.857,10.857,11.292,27.981,1.924,39.769C69.481,282.258,65.015,280.893,60.424,279.962z M86.108,294.666
		c-2.978,6.576-6.39,13.401-12.346,17.682c-6.825,4.963-19.109,5.646-22.459-3.971c-3.04-8.81,4.777-15.945,12.78-17.496
		C71.591,289.516,79.098,292.06,86.108,294.666z M59.989,273.944c-5.088,4.963-12.78,4.715-17.93,0
		c-4.653-5.088-5.026-12.843,0-17.868c4.9-4.839,13.028-4.839,17.93,0S64.952,269.105,59.989,273.944z M50.435,283.995
		c4.529,0,8.996,0.806,13.339,1.923c-1.923,0.31-3.847,0.807-5.708,1.613c-6.328,2.606-11.787,8.996-12.594,15.945
		c-3.227-1.799-7.197-2.42-10.796-1.923c-6.142,0.806-11.912,3.846-16.938,7.631c0.311-2.482,0.559-5.026,0.807-7.631
		C27.417,292.37,36.972,283.933,50.435,283.995z M51.18,317.001c5.335,4.22,13.4,5.149,19.604,2.73
		c2.109-0.807,4.033-1.923,5.771-3.164c-1.861,3.164-3.971,6.266-6.453,9.058c-9.616,10.857-22.955,12.036-36.604,11.788
		c-1.985-1.675-3.971-3.351-5.956-4.84c6.143-0.806,12.223-2.667,17.062-6.328C47.643,324.012,50.125,320.661,51.18,317.001z
		 M82.387,327.672c6.887,0,12.656,5.771,12.656,12.596c0,6.886-5.77,12.594-12.656,12.594c-7.135,0-12.347-5.708-12.657-12.594
		C69.978,333.442,75.252,327.672,82.387,327.672z M33.497,343.245c13.712-0.248,26.927,0.931,36.604,11.788
		c2.482,2.793,4.592,5.832,6.453,9.059c-1.552-1.117-3.227-2.049-5.025-2.854c-6.267-2.607-14.767-1.986-20.35,2.355
		c-0.993-3.535-3.413-6.762-6.267-8.934c-4.901-3.784-11.105-5.707-17.372-6.514C29.526,346.596,31.512,344.92,33.497,343.245z
		 M50.435,396.602c-13.463,0.063-23.079-8.438-31.827-17.559c-0.248-2.605-0.496-5.15-0.807-7.631
		c4.901,3.723,10.547,6.701,16.565,7.631c3.723,0.559,7.879-0.061,11.229-1.922c0.744,6.762,5.646,13.027,11.85,15.758
		c2.109,0.93,4.219,1.488,6.391,1.861C59.493,395.857,55.026,396.602,50.435,396.602z M59.989,406.652
		c4.901,4.84,4.901,12.967,0,17.869c-4.84,4.838-13.091,4.9-17.93,0c-4.964-5.09-4.716-12.721,0-17.869
		C47.209,401.998,54.964,401.688,59.989,406.652z M36.041,424.893c0.683,1.117,1.489,2.172,2.481,3.164
		c6.763,6.824,18.303,6.824,25.065,0s6.824-18.178,0-25.004c-0.993-0.992-2.048-1.799-3.164-2.48
		c4.591-0.932,9.058-2.295,13.524-3.848c9.369,11.727,8.935,28.912-1.923,39.77s-28.105,11.23-39.893,1.924
		C33.745,433.951,35.11,429.484,36.041,424.893z M64.084,389.652c-7.941-1.488-15.82-8.686-12.78-17.496
		c3.288-9.555,15.634-8.934,22.459-3.971c5.956,4.344,9.306,11.168,12.346,17.682C79.098,388.598,71.591,391.08,64.084,389.652z
		 M85.24,369.738c-2.047-4.221-4.219-8.377-6.824-12.285c1.303,0.309,2.605,0.496,3.971,0.496c9.616,0,17.743-8.066,17.743-17.682
		c0-9.617-8.065-17.683-17.743-17.683c-1.428,0-2.73,0.187-4.033,0.496c2.605-3.909,4.777-8.065,6.887-12.284
		c15.014,1.675,26.863,14.145,26.863,29.47C112.042,355.592,100.192,368.061,85.24,369.738z M117.13,340.329
		c0-17.372-13.029-31.393-29.656-34.185c1.8-3.785,3.66-7.569,5.646-11.23c20.847,5.274,36.047,23.7,36.047,45.415
		c0,21.714-15.262,40.142-36.047,45.415c-2.047-3.66-3.846-7.445-5.646-11.23C104.163,371.723,117.13,357.701,117.13,340.329z
		 M106.831,275.619c5.77-4.033,12.408-1.799,14.952,4.653c2.295,5.956-0.62,11.788-6.888,13.153
		c-5.521,1.241-10.98-1.489-15.696-4.219C100.564,284.119,102.364,278.721,106.831,275.619z M102.984,220.464
		c1.489-4.095,6.203-9.182,10.796-9.182c4.155,0,8.499,4.405,10.235,8.065c2.482,5.274,1.862,11.354,0.56,16.937
		c-0.621,2.544-1.303,5.15-1.986,7.694c-0.186,0.682-0.434,1.303-0.62,1.985c-2.357,7.507-4.715,15.076-7.073,22.583
		c-0.867-0.124-1.799-0.186-2.668-0.186c-3.102-10.361-6.575-20.784-9.119-31.269C101.806,231.693,100.999,225.799,102.984,220.464z
		 M113.842,387.047c6.762,0.869,10.423,6.824,7.941,13.277c-2.234,5.77-8.376,8.686-13.96,5.396
		c-5.149-2.977-7.196-8.871-8.624-14.332C103.667,388.783,108.568,386.365,113.842,387.047z M121.721,433.766
		c0.063,0.246,0.124,0.434,0.187,0.682c0.869,2.977,1.675,5.955,2.42,8.996c1.365,5.396,2.171,11.291,0.186,16.627
		c-1.488,4.094-6.204,9.244-10.796,9.244c-4.156,0-8.499-4.342-10.236-8.004c-2.481-5.273-1.923-11.354-0.62-16.938
		c2.481-10.855,6.142-21.529,9.367-32.262c0.869,0,1.801-0.063,2.606-0.186C117.192,419.246,119.487,426.506,121.721,433.766z
		 M104.039,526.455c4.529-4.156,11.478-4.467,16.007,0c4.343,4.342,4.343,11.602,0,15.945c-4.343,4.342-11.664,4.404-16.007,0
		C99.572,537.871,99.82,530.984,104.039,526.455z M115.703,505.361c-7.631-7.012-7.445-18.551-0.56-25.871
		c7.197-6.701,18.365-7.135,25.5,0c6.948,6.947,6.948,18.488,0,25.375C133.881,511.627,122.714,511.813,115.703,505.361z
		 M140.023,459.326c-4.716-3.66-7.445-9.121-9.492-14.58c-1.056-2.854-2.048-5.77-3.04-8.748c-0.311-0.992-0.621-1.986-0.932-2.979
		c-2.295-7.631-4.591-15.262-6.886-22.893c0.868-0.559,1.675-1.18,2.481-1.861c9.058,7.445,18.364,14.703,27.111,22.521
		c4.468,3.969,8.936,8.623,10.673,14.518c1.551,5.211,0.806,13.277-4.281,16.564C151.253,464.725,143.808,462.242,140.023,459.326z
		 M123.272,385.805c5.148-9.553,10.112-19.355,15.759-28.662c2.729-4.467,6.08-8.873,10.795-11.354
		c4.219-2.233,11.478-2.854,15.014,0.683c3.288,3.289,2.916,9.865,1.117,13.898c-2.234,5.025-6.639,8.5-11.23,11.354
		c-2.419,1.488-4.839,2.916-7.383,4.281c-0.434,0.248-0.868,0.496-1.365,0.682c-7.01,3.66-14.021,7.32-21.031,11.043
		C124.513,387.109,123.892,386.426,123.272,385.805z M137.169,340.329c0.248-5.026,7.88-5.026,7.88,0
		C145.049,345.354,137.48,345.292,137.169,340.329z M164.84,334.063c-3.288,3.289-9.927,2.978-13.959,1.179
		c-5.025-2.233-8.562-6.576-11.416-11.104c-5.894-9.432-10.92-19.543-16.192-29.347c0.682-0.62,1.24-1.303,1.736-1.985
		c6.764,3.536,13.463,7.072,20.227,10.609c0.496,0.248,0.991,0.558,1.551,0.806c2.48,1.365,4.9,2.792,7.321,4.219
		c4.528,2.73,8.871,6.018,11.415,10.733C167.694,323.268,168.376,330.526,164.84,334.063z M122.341,272.269
		c-0.496-0.497-1.054-0.993-1.675-1.427c-0.248-0.186-0.558-0.372-0.868-0.559c2.171-7.258,4.343-14.517,6.514-21.776
		c0.063-0.124,0.063-0.31,0.124-0.435c1.18-3.846,2.482-7.631,3.785-11.415c1.923-5.398,4.467-10.858,8.872-14.766
		c4.032-3.537,11.478-6.08,16.627-3.288c4.901,2.729,5.832,11.043,4.529,15.758c-1.613,5.956-5.771,10.609-10.237,14.704
		C141.202,257.317,131.586,264.7,122.341,272.269z M141.14,200.61c-7.011,7.632-18.612,7.383-25.996,0.559
		c-6.699-7.135-7.134-18.303,0-25.375c6.949-6.949,18.552-6.887,25.5,0C147.406,182.494,147.592,193.6,141.14,200.61z
		 M120.046,154.141c-4.529,4.467-11.416,4.219-16.007,0c-4.157-4.529-4.467-11.478,0-15.945c4.343-4.343,11.664-4.343,16.007,0
		C124.389,142.539,124.451,149.86,120.046,154.141z M104.97,202.472c0,4.156-4.343,8.499-8.065,10.237
		c-5.336,2.481-11.416,1.923-17,0.62c-10.919-2.482-21.652-6.142-32.323-9.368c0-0.869-0.063-1.8-0.187-2.605
		c7.321-2.234,14.58-4.529,21.901-6.763c0.248-0.062,0.434-0.124,0.682-0.186c2.979-0.868,6.019-1.675,8.996-2.419
		c5.398-1.365,11.292-2.11,16.689-0.187C99.82,193.227,104.97,197.943,104.97,202.472z M89.831,226.358
		c-3.412-3.723,1.985-9.12,5.522-5.522C98.951,224.434,93.554,229.77,89.831,226.358z M15.815,317.435
		c0.062-0.062,0.187-0.124,0.248-0.186c3.909-3.784,8.313-6.949,13.339-9.058c5.088-2.109,13.897-3.536,16.627,2.978
		c2.42,5.894-3.66,11.106-8.375,13.277c-5.336,2.481-11.292,3.412-17.124,3.536c-0.062,0-0.124,0-0.124,0
		c-2.978-1.365-6.266-2.172-10.051-2.109C13.023,323.391,14.698,320.537,15.815,317.435z M20.345,333.381
		c3.226,1.86,6.018,4.467,8.872,6.948c-2.668,2.295-5.212,4.715-8.189,6.515c-5.15,3.164-10.733,3.412-16.504,1.922
		c-7.444-1.86-14.021-5.832-21.156-8.498c7.135-2.668,13.773-6.64,21.156-8.5C9.983,330.465,15.443,330.526,20.345,333.381z
		 M20.406,352.613c0.063,0,0.063,0,0.124,0c5.46,0.125,10.796,0.994,15.821,3.041c5.087,2.047,12.346,7.32,9.678,13.771
		c-2.419,5.895-10.423,5.275-15.324,3.537c-5.521-1.986-10.423-5.584-14.642-9.617c-0.062-0.061-0.187-0.123-0.248-0.186
		c-1.117-3.039-2.854-5.895-5.46-8.438C14.141,354.785,17.429,353.979,20.406,352.613z M30.457,443.381
		c13.773,9.74,32.883,8.996,45.229-3.289c12.347-12.283,13.029-31.393,3.288-45.041c3.971-1.428,7.941-2.793,11.975-3.971
		c10.981,18.363,8.686,42.125-6.7,57.512c-15.387,15.387-39.273,17.621-57.699,6.701C27.604,451.322,29.03,447.352,30.457,443.381z
		 M66.876,514.232c-8.065-8.811-15.511-18.363-23.142-27.547c0.496-0.496,0.992-1.055,1.427-1.676
		c0.187-0.248,0.372-0.557,0.559-0.867c7.259,2.172,14.58,4.344,21.839,6.514c0.124,0.063,0.31,0.063,0.434,0.125
		c3.847,1.178,7.632,2.42,11.416,3.785c5.46,1.922,10.92,4.467,14.766,8.809c3.537,4.033,6.143,11.479,3.289,16.566
		c-2.73,4.9-11.105,5.77-15.821,4.467C75.686,522.795,70.971,518.699,66.876,514.232z M83.441,535.639
		c2.171,1.488,3.908,3.35,5.707,5.211c0.497,0.494,0.993,0.992,1.489,1.488c1.8,1.736,3.661,3.35,6.143,4.467
		c0.31,0.123,0.559,0.186,0.807,0.248c6.887,3.287,15.2,4.344,22.955,4.156c14.084-0.371,27.795-3.971,41.692-5.521
		c0.559,3.227,1.116,6.516,1.675,9.74c-16.255,2.172-32.51,5.771-48.951,5.523c-14.952-0.25-32.634-4.529-39.024-19.42
		C76.679,537.313,77.919,531.854,83.441,535.639z M178.303,484.328c-4.343,4.344-11.664,4.406-16.007,0
		c-4.467-4.529-4.219-11.416,0-15.945c4.529-4.156,11.479-4.467,16.007,0C182.646,472.789,182.646,479.986,178.303,484.328z
		 M172.285,433.826c-6.576,0.248-12.594-3.039-17.744-6.701c-9.989-7.135-19.357-15.385-28.911-23.141
		c0.187-0.373,0.435-0.807,0.558-1.24c0.248-0.561,0.435-1.117,0.559-1.676c11.974,1.24,24.073,2.047,35.985,3.846
		c5.521,0.807,11.167,2.234,15.695,5.646c4.281,3.227,8.624,10.176,6.516,15.82C183.266,430.973,176.69,433.641,172.285,433.826z
		 M180.475,396.104c-5.397,2.916-11.85,3.041-17.868,2.73c-11.726-0.682-23.451-2.047-35.115-3.164c0-1.055-0.187-2.047-0.372-3.102
		c6.514-3.475,13.028-7.012,19.48-10.484c3.66-1.924,7.321-3.785,11.043-5.584c5.708-2.73,11.975-5.15,18.365-4.467
		c5.087,0.557,11.975,4.219,13.214,9.678C190.587,387.42,185.066,393.686,180.475,396.104z M215.466,364.34
		c-5.894-6.764-1.86-16.875,3.6-22.397c0.867-0.869,0.867-2.296,0-3.226c-5.46-5.584-9.493-15.636-3.6-22.397
		c2.668-3.103,7.321-4.592,11.912-4.53c4.529,0.249,8.872,1.676,11.603,4.405c0.186,0.187,0.371,0.311,0.558,0.435
		c5.956,8.375,11.85,16.689,19.356,23.7c-7.507,7.011-13.463,15.386-19.356,23.7c-0.187,0.125-0.372,0.248-0.558,0.434
		c-2.606,2.607-6.701,4.033-10.981,4.344C223.159,368.992,218.258,367.566,215.466,364.34z M221.112,381.338
		c0.062,14.58-21.963,14.457-22.646,0C199.211,366.945,221.112,366.76,221.112,381.338z M198.529,299.257
		c0.682-14.394,22.583-14.58,22.645,0C221.174,313.837,199.211,313.713,198.529,299.257z M209.076,340.329
		c0,9.554-7.755,17.558-17.311,17.931c-10.299,0.434-18.363-7.879-18.735-17.931c0.31-9.741,7.94-17.991,17.992-17.93
		C200.824,322.399,209.076,330.465,209.076,340.329z M189.222,402.619c2.73-0.992,6.392-0.248,9.245-0.248
		c3.227,0,6.267-0.373,9.307-1.488c0.31-0.125,0.558-0.25,0.743-0.436c8.128-2.854,15.449-8.996,21.22-15.51
		c8.624-9.74,15.323-20.971,23.451-31.084c2.729,1.924,5.397,3.848,8.128,5.709c-9.307,12.16-17.683,25.127-28.415,36.107
		c-11.106,11.355-27.424,22.521-43.679,16.008c-0.062-0.063-0.124-0.125-0.186-0.186
		C186.865,408.576,183.763,404.543,189.222,402.619z M256.166,350.442c2.171-2.482,4.467-4.902,6.886-7.136
		c6.701,4.468,13.401,8.873,20.103,13.34c-2.172,2.73-4.344,5.521-6.453,8.313C269.815,360.121,262.99,355.281,256.166,350.442z
		 M266.713,340.329c6.452-4.28,12.904-8.562,19.357-12.843c3.846,4.529,7.879,8.811,12.283,12.843
		c-4.404,4.032-8.5,8.313-12.283,12.843C279.555,348.891,273.165,344.61,266.713,340.329z M263.052,337.289
		c-2.419-2.234-4.715-4.652-6.886-7.135c6.824-4.839,13.711-9.679,20.535-14.518c2.109,2.792,4.219,5.584,6.453,8.314
		C276.453,328.417,269.753,332.822,263.052,337.289z M232.9,284.863c10.732,10.982,19.108,23.948,28.415,36.109
		c-2.73,1.922-5.398,3.846-8.128,5.708c-8.128-10.112-14.827-21.342-23.451-31.083c-5.771-6.453-13.092-12.657-21.22-15.511
		c-0.186-0.186-0.434-0.31-0.743-0.434c-3.04-1.117-6.08-1.489-9.307-1.489c-2.916,0-6.515,0.744-9.245-0.248
		c-5.459-1.986-2.295-6.018-0.124-8.996c0.063-0.063,0.124-0.125,0.124-0.187C205.477,262.342,221.856,273.51,232.9,284.863z
		 M189.284,298.947c-1.24,5.459-8.127,9.12-13.214,9.678c-6.144,0.683-12.161-1.489-17.559-4.094
		c-3.475-1.676-6.949-3.413-10.36-5.15c-7.012-3.784-14.022-7.569-20.971-11.292c0.248-0.992,0.372-2.047,0.435-3.102
		c11.416-1.054,22.769-2.357,34.185-3.102c6.267-0.434,13.029-0.372,18.737,2.668C185.066,286.911,190.587,293.177,189.284,298.947z
		 M179.358,269.353c-4.405,3.722-10.176,5.273-15.697,6.204c-12.16,1.985-24.568,2.73-36.854,3.971
		c-0.186-0.559-0.372-1.055-0.558-1.613c0,0.062-0.31-0.497-0.683-1.241c9.368-7.569,18.551-15.573,28.229-22.646
		c5.087-3.722,11.043-7.258,17.619-7.258c4.654,0.062,11.788,2.419,13.588,7.383C186.865,259.364,183.142,266.127,179.358,269.353z
		 M177.372,240.255c-4.156-0.806-9.616-2.047-5.831-7.507c1.489-2.171,3.412-3.909,5.211-5.708c0.496-0.496,0.993-0.93,1.489-1.489
		c1.736-1.799,3.35-3.66,4.467-6.08c0.124-0.31,0.186-0.558,0.248-0.806c3.35-6.887,4.343-15.139,4.157-22.894
		c-0.372-14.021-4.033-27.671-5.584-41.568c3.288-0.558,6.515-1.117,9.803-1.675c2.171,16.193,5.832,32.386,5.521,48.827
		C196.605,216.307,192.325,233.927,177.372,240.255z M178.303,212.212c-4.528,4.467-11.416,4.219-16.007,0
		c-4.157-4.529-4.467-11.478,0-15.945c4.343-4.342,11.664-4.342,16.007,0C182.646,200.548,182.708,207.869,178.303,212.212z
		 M162.234,134.97c-13.897-1.551-27.608-5.149-41.692-5.522c-7.755-0.186-16.068,0.807-22.955,4.157
		c-0.248,0.062-0.559,0.124-0.807,0.248c-2.481,1.117-4.405,2.73-6.204,4.529c-0.497,0.435-0.993,0.931-1.428,1.427
		c-1.799,1.862-3.536,3.723-5.707,5.212c-5.522,3.846-6.701-1.675-7.508-5.77c6.391-14.89,24.072-19.233,39.024-19.419
		c16.503-0.248,32.696,3.35,48.951,5.522C163.351,128.456,162.793,131.682,162.234,134.97z M80.897,156.375
		c5.273-1.551,13.339-0.807,16.627,4.28c2.854,4.467,0.372,11.912-2.544,15.635c-3.66,4.715-9.12,7.445-14.642,9.43
		c-2.916,1.055-5.832,2.048-8.748,2.978c-0.992,0.311-1.985,0.621-2.978,0.931c-7.693,2.296-15.324,4.529-23.018,6.825
		c-0.559-0.869-1.179-1.676-1.861-2.42c7.507-9.058,14.766-18.302,22.583-26.988C70.288,162.579,74.941,158.174,80.897,156.375z
		 M62.595,161.896c-7.196,9.989-15.448,19.295-23.203,28.788c-0.372-0.186-0.807-0.435-1.241-0.559
		c-0.559-0.248-1.117-0.434-1.675-0.558c1.24-11.912,2.047-24.01,3.847-35.86c0.868-5.522,2.233-11.106,5.707-15.635
		c3.227-4.281,10.237-8.562,15.883-6.514c4.592,1.675,7.26,8.251,7.445,12.656C69.544,150.791,66.317,156.747,62.595,161.896z
		 M59.307,117.536c-1.489,2.544-3.536,4.467-5.832,6.08c2.606-13.339-3.723-26.678-12.719-37.039
		C28.596,72.494,12.465,62.629-2.177,51.4c2.048-2.854,4.095-5.708,6.08-8.562c9.307,6.701,18.923,13.153,27.98,20.226
		c7.197,5.583,15.387,12.842,21.901,21.032C59.059,93.898,65.573,106.679,59.307,117.536z M-14.337,60.644
		c-2.481-2.171-4.901-4.405-7.135-6.887c4.467-6.638,8.934-13.339,13.401-19.978c2.729,2.172,5.521,4.343,8.375,6.391
		C-4.597,46.995-9.436,53.819-14.337,60.644z M-5.093,55.495c12.16,9.306,25.189,17.62,36.232,28.291
		c11.354,11.043,22.646,27.298,16.069,43.554c-0.063,0.062-0.124,0.124-0.249,0.186c-2.978,2.172-7.011,5.274-8.996-0.186
		c-0.992-2.73-0.248-6.39-0.248-9.244c0-3.226-0.372-6.267-1.488-9.307c-0.124-0.31-0.249-0.558-0.435-0.744
		c-2.854-8.065-9.059-15.386-15.572-21.156c-9.741-8.624-21.032-15.262-31.146-23.39C-8.939,60.83-7.016,58.163-5.093,55.495z
		 M16.684,95.574c14.58-0.062,14.456,21.838,0,22.521C2.229,117.412,2.042,95.574,16.684,95.574z M7.13,161.71
		c1.488,2.42,2.916,4.839,4.343,7.321c0.248,0.434,0.496,0.869,0.744,1.365c3.66,7.011,7.383,13.959,11.044,20.97
		c-0.745,0.497-1.365,1.117-1.985,1.737c-9.679-5.211-19.544-10.112-28.85-15.758c-4.467-2.73-8.872-6.018-11.416-10.796
		c-2.233-4.156-2.854-11.415,0.683-14.952c3.288-3.288,9.927-2.916,13.959-1.116C0.739,152.776,4.275,157.119,7.13,161.71z
		 M21.337,230.08c2.606,6.949,5.149,14.456,3.723,21.901c-1.489,7.941-8.686,15.759-17.558,12.719
		c-9.616-3.289-8.935-15.573-3.971-22.335C7.874,236.471,14.698,233.058,21.337,230.08z M-10.181,314.147
		c2.482-4.157,5.832-8.003,10.485-9.741c4.157-1.551,8.748-1.675,13.215-1.923c-0.248,4.157-0.372,8.438-1.737,12.346
		c-1.736,5.026-5.521,8.562-9.988,11.229c-6.515,3.785-13.897,5.646-20.722,8.748C-15.826,327.982-13.965,320.599-10.181,314.147z
		 M1.794,354.598c4.157,2.42,8.003,5.832,9.74,10.424c1.552,4.156,1.676,8.748,1.985,13.152c-4.156-0.248-8.499-0.371-12.408-1.674
		c-5.025-1.738-8.624-5.461-11.229-9.99c-3.847-6.451-5.708-13.834-8.81-20.66C-12.104,348.953-4.721,350.814,1.794,354.598z
		 M7.502,415.896c8.81-3.039,16.007,4.777,17.558,12.719c1.427,7.445-1.116,14.951-3.723,21.9
		c-6.576-2.979-13.463-6.391-17.744-12.283C-1.433,431.406-2.114,419.184,7.502,415.896z M23.198,489.291
		c-3.536,6.701-7.072,13.402-10.609,20.164c-0.248,0.496-0.558,0.994-0.807,1.551c-1.364,2.482-2.791,4.902-4.219,7.26
		c-2.729,4.467-6.018,8.873-10.795,11.416c-16.813,8.871-27.175-12.223-5.025-25.996c9.492-5.895,19.605-10.857,29.47-16.131
		C21.833,488.174,22.516,488.795,23.198,489.291z M16.684,562.502c14.456,0.682,14.643,22.521,0,22.521
		C2.104,585.084,2.229,563.184,16.684,562.502z M20.345,593.709c6.514-5.77,12.718-13.092,15.572-21.158
		c0.187-0.186,0.311-0.434,0.435-0.742c1.116-3.041,1.488-6.08,1.488-9.307c0-2.916-0.744-6.453,0.249-9.246
		c1.985-5.459,6.018-2.295,9.058-0.123c0.063,0.063,0.124,0.123,0.187,0.123c6.514,16.193-4.716,32.512-16.069,43.555
		c-11.043,10.672-24.072,19.047-36.232,28.291c-1.923-2.668-3.847-5.398-5.77-8.066C-0.688,608.971,10.604,602.332,20.345,593.709z
		 M0.243,640.426c-2.854,2.109-5.646,4.219-8.376,6.391c-4.467-6.639-8.934-13.338-13.401-19.979
		c2.233-2.42,4.653-4.715,7.135-6.887C-9.436,626.777-4.597,633.602,0.243,640.426z M4.338,660.031c-8.128,0-8.065-12.098,0-12.533
		C12.403,647.934,12.465,660.031,4.338,660.031z M19.848,650.229c-9.306,0-9.244-13.896,0-14.395
		C29.093,636.332,29.154,650.229,19.848,650.229z M36.724,638.502c-9.307,0-9.244-13.896,0-14.393
		C45.968,624.605,46.029,638.502,36.724,638.502z M50.807,611.701c8.252,0.434,8.313,12.842,0,12.842S42.556,612.197,50.807,611.701
		z M56.081,641.791c-3.103,3.35-7.941,2.791-10.733-0.248c3.474-2.979,7.011-6.266,10.236-9.865
		C58.314,634.346,58.935,638.627,56.081,641.791z M59.617,600.533c5.025,0.248,5.087,7.818,0,7.818
		C54.529,608.352,54.592,600.781,59.617,600.533z M65.945,585.891c2.668-5.955,4.156-12.223,3.908-18.611
		c4.344,4.715,9.865,8.064,15.945,10.422c4.404,15.139,17.371,21.84,31.579,24.197c-7.135,11.354-13.773,23.018-18.364,35.611
		c-12.223-5.646-25.127-9.244-38.218-12.223C69.233,613.623,73.576,599.852,65.945,585.891z M100.688,583.596
		c3.723-3.412,9.12,1.924,5.521,5.521C102.674,592.654,97.276,587.256,100.688,583.596z M114.834,585.332
		c2.606-2.357,6.515-2.543,9.12,0c2.481,2.482,2.481,6.578,0,9.059c-2.481,2.482-6.638,2.482-9.12,0
		C112.291,591.848,112.415,587.877,114.834,585.332z M71.591,646.691c-3.164,1.303-6.887-0.248-8.189-3.412
		c-1.427-3.35,0.372-6.576,3.351-8.127C74.321,632.732,79.284,643.527,71.591,646.691z M88.652,651.283
		c-3.102,1.24-6.639-0.186-7.879-3.289c-1.365-3.287,0.372-6.328,3.226-7.879C91.32,637.883,96.098,648.244,88.652,651.283z
		 M106.397,655.129c-7.322,2.297-12.099-8.127-4.654-11.166c3.103-1.24,6.639,0.186,7.88,3.287
		C110.988,650.539,109.312,653.578,106.397,655.129z M116.137,639.992c-3.102,1.24-6.638-0.186-7.879-3.289
		c-1.365-3.287,0.372-6.328,3.227-7.879C118.805,626.529,123.582,636.951,116.137,639.992z M124.947,624.668
		c-3.164,1.301-6.888-0.25-8.189-3.414c-1.427-3.35,0.372-6.576,3.351-8.127C127.677,610.707,132.578,621.502,124.947,624.668z
		 M133.261,610.211c-4.591,0.373-7.693-3.35-7.631-7.443c4.839,0.248,9.678,0.123,14.207-0.248
		C140.023,606.365,137.48,609.902,133.261,610.211z M143.808,594.328c-2.792,2.793-7.444,2.793-10.236,0
		c-2.854-2.854-2.668-7.258,0-10.174c2.916-2.668,7.32-2.855,10.236,0C146.6,586.945,146.6,591.537,143.808,594.328z
		 M164.033,590.668c-2.791,2.793-7.445,2.793-10.236,0c-2.854-2.854-2.668-7.258,0-10.174c2.915-2.668,7.32-2.854,10.236,0
		C166.825,583.285,166.825,587.939,164.033,590.668z M129.972,576.398c-8.499,0.932-18.55,1.428-28.229,0.186
		c-10.671-3.225-24.196-7.631-27.422-19.729c-0.745-2.854-0.621-5.646-0.187-8.375c7.011,10.299,19.419,15.447,31.951,16.938
		c19.668,2.295,39.273-2.545,58.754-5.025c0.559,3.475,1.179,6.887,1.737,10.359C154.293,572.676,142.195,575.033,129.972,576.398z
		 M166.763,545.254c3.289-0.248,6.577-0.311,9.928-0.186c1.551,7.879,3.163,15.695,4.715,23.576
		c-3.475,0.371-6.949,0.867-10.423,1.363C169.555,561.756,168.128,553.506,166.763,545.254z M181.964,586.697
		c-2.42,2.42-6.453,2.42-8.872,0c-2.481-2.482-2.357-6.328,0-8.871c2.543-2.297,6.391-2.482,8.872,0
		C184.383,580.246,184.383,584.277,181.964,586.697z M199.521,584.463c-5.521,5.523-13.896-2.852-8.622-8.561
		c2.419-2.234,6.203-2.42,8.622,0C201.879,578.26,201.879,582.168,199.521,584.463z M203.802,567.775
		c-5.956-0.248-11.912-0.063-17.806,0.434c-1.489-7.568-3.04-15.139-4.529-22.707c7.569,1.488,15.2,3.039,22.771,4.529
		C203.678,555.924,203.492,561.818,203.802,567.775z M204.609,545.502c-7.879-1.551-15.76-3.164-23.639-4.715
		c-0.124-3.289-0.062-6.639,0.187-9.865c8.252,1.428,16.564,2.791,24.816,4.219C205.477,538.553,205.043,542.027,204.609,545.502z
		 M196.295,528.875c2.482-19.357,7.383-38.9,5.088-58.506c-1.489-12.471-6.701-24.879-17-31.828
		c2.792-0.434,5.584-0.557,8.438,0.188c12.098,3.225,16.564,16.75,19.791,27.359c1.24,9.617,0.745,19.668-0.187,28.105
		c-1.303,12.223-3.722,24.258-5.708,36.418C203.244,530.053,199.77,529.434,196.295,528.875z M217.327,581.238
		c-5.521,5.521-13.897-2.855-8.623-8.563c2.419-2.232,6.204-2.42,8.623,0C219.685,575.033,219.685,578.943,217.327,581.238z
		 M220.554,563.557c-5.521,5.521-13.897-2.855-8.624-8.563c2.419-2.234,6.204-2.42,8.624,0
		C222.911,557.289,222.849,561.199,220.554,563.557z M222.787,546.061c-2.42,2.42-6.452,2.42-8.872,0
		c-2.482-2.482-2.357-6.328,0-8.871c2.544-2.297,6.39-2.482,8.872,0C225.207,539.607,225.207,543.641,222.787,546.061z
		 M226.758,528.193c-2.792,2.791-7.445,2.791-10.237,0c-2.854-2.855-2.668-7.26,0-10.176c2.916-2.668,7.321-2.854,10.237,0
		C229.55,520.811,229.55,525.4,226.758,528.193z M230.418,508.029c-2.792,2.791-7.445,2.791-10.237,0
		c-2.854-2.855-2.667-7.26,0-10.176c2.916-2.668,7.321-2.854,10.237,0C233.21,500.646,233.21,505.236,230.418,508.029z
		 M225.145,470.557c-3.599,3.535-8.934-1.801-5.521-5.523C223.345,461.621,228.743,467.02,225.145,470.557z M230.48,479.178
		c2.481,2.482,2.481,6.578,0,9.061c-2.481,2.48-6.639,2.48-9.12,0c-2.544-2.545-2.419-6.516,0-9.061
		C223.966,476.76,227.937,476.574,230.48,479.178z M213.729,450.205c-2.357-6.08-5.708-11.539-10.423-15.883
		c6.452,0.248,12.72-1.24,18.676-3.908c13.959,7.631,27.794,3.289,39.458-5.148c3.039,13.027,6.576,25.934,12.283,38.094
		c-12.655,4.59-24.319,11.229-35.735,18.301C235.63,467.516,228.929,454.611,213.729,450.205z M246.363,497.543
		c-0.311,4.158-3.848,6.764-7.755,6.576c0.372-4.529,0.495-9.305,0.248-14.145C243.013,489.912,246.735,492.953,246.363,497.543z
		 M260.819,489.23c-1.304,3.164-4.964,4.715-8.19,3.412c-3.412-1.428-4.467-4.902-3.412-8.189c1.489-2.793,4.343-4.592,7.631-3.598
		C260.384,481.908,262.246,485.879,260.819,489.23z M276.205,480.42c-1.241,3.102-4.839,4.529-7.879,3.287
		c-3.288-1.363-4.281-4.775-3.288-7.939c1.427-2.668,4.218-4.344,7.383-3.412C275.833,473.41,277.57,477.193,276.205,480.42z
		 M291.405,470.803c-1.428,2.67-4.219,4.344-7.383,3.412c-3.412-1.055-5.149-4.838-3.784-8.064c1.24-3.102,4.839-4.529,7.879-3.289
		C291.467,464.164,292.46,467.578,291.405,470.803z M287.621,453.061c-1.241,3.102-4.839,4.527-7.879,3.287
		c-3.289-1.365-4.281-4.777-3.289-7.941c1.427-2.668,4.219-4.342,7.383-3.412C287.187,446.049,288.924,449.834,287.621,453.061z
		 M272.048,384.504c0.497-9.184,14.456-9.307,14.456,0C286.504,393.809,272.545,393.748,272.048,384.504z M283.774,369.055
		c0.435-8.004,12.595-8.127,12.595,0C296.307,377.182,284.209,377.121,283.774,369.055z M295.004,355.096
		c0.434-7.756,12.16-7.818,12.16,0C307.164,362.912,295.438,362.85,295.004,355.096z M317.463,340.329c0,7.817-11.727,7.755-12.16,0
		C305.736,332.573,317.463,332.449,317.463,340.329z M307.164,325.501c0,7.817-11.727,7.755-12.16,0
		C295.438,317.745,307.164,317.683,307.164,325.501z M296.307,311.541c0,8.128-12.159,8.004-12.595,0
		C284.209,303.538,296.307,303.414,296.307,311.541z M286.504,296.093c0,9.306-13.959,9.244-14.456,0
		C272.545,286.911,286.504,286.787,286.504,296.093z M283.526,206.628c3.288-1.364,6.39,0.373,7.879,3.228
		c2.296,7.259-8.127,12.036-11.167,4.653C278.935,211.406,280.424,207.931,283.526,206.628z M287.621,227.537
		c1.303,3.102-0.187,6.576-3.288,7.879c-3.289,1.365-6.391-0.372-7.88-3.226C274.096,224.869,284.519,220.092,287.621,227.537z
		 M276.205,200.176c1.303,3.102-0.187,6.577-3.288,7.879c-3.288,1.365-6.39-0.372-7.879-3.226
		C262.742,197.508,273.165,192.793,276.205,200.176z M260.819,191.428c1.303,3.164-0.248,6.825-3.413,8.128
		c-3.412,1.365-6.576-0.373-8.189-3.351C246.859,188.698,257.655,183.735,260.819,191.428z M246.363,183.053
		c0.372,4.529-3.351,7.631-7.507,7.631c0.247-4.84,0.124-9.617-0.248-14.146C242.454,176.352,246.053,178.896,246.363,183.053z
		 M237.987,198.935c11.416,7.073,23.08,13.712,35.735,18.303c-5.707,12.16-9.244,25.065-12.283,38.093
		c-11.664-8.437-25.499-12.78-39.458-5.149c-5.956-2.668-12.285-4.157-18.676-3.909c4.715-4.343,8.065-9.802,10.423-15.882
		C228.929,225.986,235.63,213.081,237.987,198.935z M225.145,210.041c3.599,3.536-1.8,8.934-5.521,5.522
		C216.211,211.84,221.608,206.504,225.145,210.041z M221.36,192.421c2.481-2.482,6.639-2.482,9.12,0s2.481,6.576,0,9.058
		c-2.544,2.544-6.515,2.358-9.12,0C219.003,198.873,218.816,194.965,221.36,192.421z M230.418,182.742
		c-2.916,2.854-7.321,2.668-10.237,0c-2.667-2.916-2.854-7.321,0-10.175c2.792-2.791,7.445-2.791,10.237,0
		C233.21,175.359,233.21,180.013,230.418,182.742z M226.758,152.404c2.792,2.792,2.792,7.383,0,10.175
		c-2.916,2.854-7.321,2.668-10.237,0c-2.668-2.916-2.854-7.321,0-10.175C219.375,149.674,223.966,149.674,226.758,152.404z
		 M222.787,143.47c-2.544,2.482-6.328,2.357-8.872,0c-2.357-2.544-2.482-6.39,0-8.872c2.42-2.42,6.452-2.42,8.872,0
		C225.207,137.017,225.207,141.05,222.787,143.47z M211.93,125.602c-2.233-2.42-2.42-6.142,0-8.562c2.357-2.358,6.267-2.358,8.624,0
		C226.075,122.624,217.7,130.937,211.93,125.602z M208.704,99.358c2.356-2.358,6.266-2.358,8.623,0
		c5.521,5.522-2.854,13.835-8.623,8.562C206.47,105.5,206.284,101.778,208.704,99.358z M212.426,186.403
		c0.932,8.438,1.427,18.488,0.187,28.105c-3.227,10.609-7.693,24.072-19.791,27.36c-2.854,0.745-5.646,0.621-8.438,0.186
		c10.299-6.948,15.511-19.357,17-31.827c2.295-19.605-2.544-39.149-5.088-58.506c3.475-0.558,6.949-1.178,10.423-1.737
		C208.642,162.144,211.061,174.181,212.426,186.403z M205.974,145.517c-8.252,1.427-16.564,2.792-24.816,4.219
		c-0.248-3.288-0.311-6.576-0.187-9.865c7.879-1.551,15.76-3.164,23.639-4.715C205.043,138.569,205.477,142.043,205.974,145.517z
		 M190.96,96.132c2.357-2.357,6.266-2.357,8.623,0c5.522,5.522-2.853,13.835-8.623,8.563
		C188.664,102.274,188.54,98.552,190.96,96.132z M203.802,112.821c-0.248,5.956-0.062,11.85,0.436,17.744
		c-7.57,1.489-15.201,3.04-22.771,4.529c1.489-7.569,3.04-15.138,4.529-22.707C191.89,112.883,197.784,113.069,203.802,112.821z
		 M173.03,93.898c2.419-2.419,6.452-2.419,8.871,0c2.42,2.42,2.42,6.453,0,8.872c-2.543,2.482-6.328,2.358-8.871,0
		C170.734,100.227,170.548,96.38,173.03,93.898z M170.982,110.588c3.474,0.496,6.948,0.992,10.423,1.365
		c-1.552,7.879-3.164,15.696-4.715,23.575c-3.351,0.125-6.639,0.063-9.928-0.186C168.128,127.091,169.555,118.839,170.982,110.588z
		 M153.859,89.928c2.791-2.792,7.444-2.792,10.235,0c2.792,2.792,2.792,7.383,0,10.175c-2.915,2.854-7.319,2.667-10.235,0
		C151.191,97.187,150.943,92.782,153.859,89.928z M166.453,109.905c-0.559,3.475-1.179,6.887-1.737,10.361
		c-19.419-2.481-39.023-7.321-58.754-5.025c-12.532,1.489-24.94,6.638-31.951,16.937c-0.435-2.792-0.559-5.584,0.187-8.375
		c3.288-12.037,16.813-16.504,27.422-19.73c9.679-1.241,19.729-0.744,28.229,0.186C142.195,105.562,154.293,107.982,166.453,109.905
		z M106.21,91.479c3.599,3.536-1.799,8.934-5.521,5.521C97.276,93.34,102.674,87.942,106.21,91.479z M114.834,86.206
		c2.482-2.482,6.639-2.482,9.12,0c2.481,2.481,2.481,6.576,0,9.058c-2.543,2.543-6.514,2.357-9.12,0
		C112.477,92.72,112.291,88.749,114.834,86.206z M143.808,96.442c-2.916,2.854-7.32,2.668-10.236,0
		c-2.668-2.916-2.854-7.321,0-10.175c2.792-2.792,7.444-2.792,10.236,0C146.6,89.059,146.6,93.712,143.808,96.442z M133.261,70.385
		c4.156,0.31,6.763,3.847,6.576,7.693c-4.529-0.373-9.368-0.497-14.207-0.249C125.63,73.735,128.67,70.074,133.261,70.385z
		 M124.947,55.991c3.164,1.303,4.715,4.963,3.412,8.127c-1.428,3.412-4.964,4.467-8.189,3.412c-2.854-1.489-4.591-4.343-3.599-7.631
		C117.626,56.363,121.535,54.564,124.947,55.991z M116.137,40.604c3.103,1.241,4.591,4.777,3.288,7.879
		c-1.365,3.289-4.776,4.281-8.003,3.289c-2.729-1.427-4.405-4.219-3.412-7.321C109.064,41.039,112.849,39.302,116.137,40.604z
		 M98.455,28.754c1.365-3.288,4.777-4.281,8.004-3.288c2.729,1.427,4.405,4.219,3.412,7.321c-1.055,3.351-4.84,5.149-8.128,3.785
		C98.642,35.393,97.152,31.856,98.455,28.754z M80.587,33.098c1.055-3.351,4.84-5.149,8.128-3.785
		c3.102,1.241,4.591,4.777,3.288,7.879c-1.365,3.288-4.777,4.281-8.004,3.288C81.27,38.991,79.595,36.262,80.587,33.098z
		 M63.216,37.875c1.055-3.475,5.025-5.336,8.375-3.909c3.164,1.303,4.716,4.964,3.412,8.128c-1.427,3.412-4.963,4.467-8.189,3.412
		C63.96,44.017,62.161,41.163,63.216,37.875z M99.014,43.086c4.591,12.594,11.229,24.258,18.364,35.612
		c-14.208,2.296-27.175,8.996-31.579,24.196c-6.08,2.358-11.602,5.708-15.945,10.424c0.248-6.391-1.24-12.657-3.908-18.613
		c7.631-13.959,3.288-27.67-5.149-39.334C73.887,52.331,86.854,48.794,99.014,43.086z M59.617,80.063
		c-5.025-0.249-5.088-7.817,0-7.817C64.704,72.246,64.643,79.815,59.617,80.063z M56.081,38.868
		c2.854,3.102,2.295,7.445-0.497,10.113c-3.226-3.599-6.7-6.887-10.236-9.865C48.14,36.076,52.979,35.517,56.081,38.868z
		 M50.807,56.053c8.313,0,8.252,12.408,0,12.842C42.556,68.461,42.493,56.053,50.807,56.053z M36.724,42.094
		c9.306,0,9.244,13.897,0,14.394C27.479,55.991,27.417,42.094,36.724,42.094z M19.848,30.43c9.307,0,9.245,13.897,0,14.394
		C10.604,44.265,10.542,30.43,19.848,30.43z M4.338,20.627c8.127,0,8.065,12.098,0,12.533C-3.666,32.725-3.79,20.627,4.338,20.627z
		 M-9.622,9.77c7.88,0,7.817,11.664,0,12.099C-17.439,21.496-17.501,9.77-9.622,9.77z M-24.636-0.467c0.062,0,0.062,0,0.124,0
		c7.879,0,7.817,11.664,0,12.098c-0.063,0-0.063,0-0.124,0V-0.467z M-24.636,18.704c0.062-0.062,0.062-0.062,0.124-0.124
		c4.032,4.405,8.376,8.438,12.904,12.285c-4.28,6.452-8.623,12.842-12.904,19.295c-0.063-0.062-0.063-0.124-0.124-0.124V18.704z
		 M-24.636,58.039c0.062-0.062,0.062-0.062,0.124-0.125c7.072,7.507,15.448,13.401,23.824,19.295
		c0.124,0.186,0.248,0.372,0.434,0.558c2.606,2.544,4.033,6.639,4.405,10.919c0.187,4.777-1.24,9.679-4.529,12.47
		c-6.824,5.832-16.875,1.862-22.459-3.598c-0.496-0.434-1.116-0.683-1.737-0.621v-38.9H-24.636z M-24.636,107.548
		c0.062,0,0.062,0,0.124,0c9.555,0,17.62,7.755,17.992,17.247c0.435,10.299-7.941,18.303-17.992,18.675c-0.063,0-0.063,0-0.124,0
		V107.548z M-24.636,171.389c0.062,0,0.062,0,0.124,0c5.087,0,5.025,7.569,0,7.817c-0.063,0-0.063,0-0.124,0V171.389z
		 M-24.636,187.147c0.062,0,0.062,0,0.124,0c21.776,0,40.327,15.201,45.539,35.923c-3.661,2.047-7.445,3.846-11.23,5.645
		c-2.791-16.565-16.875-29.532-34.309-29.532c-0.063,0-0.063,0-0.124,0V187.147z M-24.636,204.209c0.062,0,0.062,0,0.124,0
		c15.324,0,27.856,11.85,29.532,26.74c-4.22,2.047-8.438,4.219-12.285,6.824c0.311-1.24,0.497-2.605,0.497-3.97
		c0-9.617-8.065-17.682-17.744-17.682c-0.063,0-0.063,0-0.124,0V204.209z M-24.636,221.208c0.062,0,0.062,0,0.124,0
		c6.887,0,12.656,5.708,12.656,12.595c0,7.135-5.77,12.284-12.656,12.594c-0.063,0-0.063,0-0.124,0V221.208z M-24.636,286.911
		c0.062-0.062,0.062-0.062,0.124-0.124c2.295,2.605,4.715,5.211,6.576,8.189c3.164,5.088,3.412,10.733,1.924,16.441
		c-1.861,7.383-5.832,14.022-8.5,21.095c-0.063-0.063-0.063-0.187-0.124-0.248V286.911z M-24.636,348.395
		c0.062-0.063,0.062-0.187,0.124-0.248c2.668,7.072,6.639,13.711,8.5,21.094c1.364,5.398,1.303,10.857-1.552,15.82
		c-1.861,3.227-4.467,6.02-6.948,8.811c-0.063-0.063-0.063-0.063-0.124-0.123V348.395z M-24.636,434.199
		c4.901-0.248,12.78,4.156,12.78,12.594c0,6.824-5.77,12.656-12.78,12.594V434.199z M-24.636,464.475
		c9.74,0.063,17.806-8.064,17.806-17.682c0-1.365-0.186-2.729-0.496-4.033c3.908,2.607,8.065,4.777,12.284,6.824
		c-1.675,14.828-14.083,26.803-29.656,26.803v-11.912H-24.636z M-24.636,481.412c17.434,0.063,31.579-12.842,34.433-29.531
		c3.785,1.799,7.632,3.598,11.23,5.646c-5.274,20.66-23.639,35.922-45.663,35.922V481.412z M-24.636,501.451
		c4.777-0.371,5.521,7.943,0,7.818V501.451z M-24.636,537.127c7.817-0.311,18.178,6.639,18.116,17.93
		c-0.063,9.74-8.128,17.992-18.116,17.93V537.127z M-24.636,583.658c1.737,0.061,14.021-12.967,24.196-4.219
		c3.102,2.668,4.591,7.258,4.529,11.85c-0.249,4.467-1.676,8.871-4.405,11.539c-0.187,0.188-0.311,0.373-0.435,0.559
		c-8.375,5.895-16.751,11.787-23.824,19.295c-0.062-0.063-0.062-0.063-0.124-0.123v-38.9H-24.636z M-24.636,630.623
		c0.062-0.061,0.062-0.123,0.124-0.123c4.281,6.391,8.624,12.842,12.904,19.232c-4.528,3.785-8.872,7.879-12.904,12.285
		c-0.063-0.063-0.063-0.063-0.124-0.125V630.623z M-24.636,668.965c7.32-0.496,8.5,12.223,0,12.1V668.965z"/>
</g>
</svg>
