<?xml version="1.0" encoding="utf-8"?>
<!-- Generator: Adobe Illustrator 16.0.0, SVG Export Plug-In . SVG Version: 6.00 Build 0)  -->
<!DOCTYPE svg PUBLIC "-//W3C//DTD SVG 1.1//EN" "http://www.w3.org/Graphics/SVG/1.1/DTD/svg11.dtd">
<svg version="1.1" id="Layer_1" xmlns="http://www.w3.org/2000/svg" xmlns:xlink="http://www.w3.org/1999/xlink" x="0px" y="0px"
	 width="1000px" height="1000px" viewBox="0 0 1000 1000" enable-background="new 0 0 1000 1000" xml:space="preserve">
<path opacity="0.3" d="M858.954,701.008c0,66.186-151.891,119.847-339.277,119.847c-187.373,0-339.264-53.661-339.264-119.847
	c0-66.185,151.891-119.858,339.264-119.858C707.063,581.149,858.954,634.823,858.954,701.008z"/>
<g>
	<rect x="352.508" y="248.333" fill="#CCCCCC" width="422.85" height="412.112"/>
	<path d="M783.35,669.659H342.058V216.073H783.35V669.659z M360.501,651.229h404.418V234.516H360.501V651.229z"/>
	<path d="M693.616,311.953c0,10.857-8.795,19.677-19.663,19.677c-10.869,0-19.666-8.82-19.666-19.677
		c0-10.869,8.797-19.677,19.666-19.677C684.821,292.276,693.616,301.084,693.616,311.953z"/>
	<path d="M468.65,311.953c0,10.857-8.795,19.677-19.652,19.677c-10.869,0-19.664-8.82-19.664-19.677
		c0-10.869,8.795-19.677,19.664-19.677C459.855,292.276,468.65,301.084,468.65,311.953z"/>
	<path d="M561.476,382.02c-49.708,0-96.347-25.681-121.717-67.012l15.723-9.646c22.038,35.915,62.638,58.215,105.994,58.215
		c43.464,0,82.83-21.354,105.323-57.137l15.602,9.838C656.528,357.442,611.315,382.02,561.476,382.02z"/>
</g>
<g>
	<rect x="292.267" y="288.908" fill="#CCCCCC" width="422.861" height="412.1"/>
	<path d="M723.12,710.224H281.829V256.637H723.12V710.224z M300.248,691.78h404.43V275.067h-404.43V691.78z"/>
	<path d="M633.389,352.517c0,10.869-8.82,19.665-19.677,19.665c-10.847,0-19.666-8.795-19.666-19.665
		c0-10.857,8.819-19.677,19.666-19.677C624.568,332.84,633.389,341.66,633.389,352.517z"/>
	<path d="M408.435,352.517c0,10.869-8.796,19.665-19.665,19.665c-10.87,0-19.665-8.795-19.665-19.665
		c0-10.857,8.795-19.677,19.665-19.677C399.639,332.84,408.435,341.66,408.435,352.517z"/>
	<path d="M501.246,422.584c-49.719,0-96.358-25.669-121.728-67.012l15.734-9.647c22.013,35.914,62.638,58.216,105.994,58.216
		c43.453,0,82.819-21.355,105.323-57.125l15.615,9.815C596.288,398.006,551.098,422.584,501.246,422.584z"/>
</g>
<rect x="222.199" y="318.4" fill="#CCCCCC" width="422.862" height="412.1"/>
<path d="M653.054,739.715H211.761V286.14h441.292V739.715z M230.204,721.284h404.431V304.583H230.204V721.284z"/>
<text transform="matrix(1 0 0 1 359.0581 567.7305)" font-family="'MVBoli'" font-size="130.4516">W</text>
<text transform="matrix(1 0 0 1 510.2969 436.4375)" font-family="'MVBoli'" font-size="65.2903">U</text>
<text transform="matrix(1 0 0 1 302.2969 436.4375)" font-family="'MVBoli'" font-size="65.2903">U</text>
</svg>
