<?xml version="1.0" encoding="iso-8859-1"?>
<!-- Generator: Adobe Illustrator 19.0.0, SVG Export Plug-In . SVG Version: 6.00 Build 0)  -->
<svg version="1.1" id="Capa_1" xmlns="http://www.w3.org/2000/svg" xmlns:xlink="http://www.w3.org/1999/xlink" x="0px" y="0px"
	 viewBox="0 0 512 512" style="enable-background:new 0 0 512 512;" xml:space="preserve">
<path opacity="0.15" d="M-30.8759 690.361C-30.0694 690.361 -29.3869 690.113 -28.9526 689.617C-11.8291 671.563 10.7542 660.519 30.6696 645.939C54.4937 651.709 79.6207 653.322 102.266 663.373C103.879 664.056 105.368 663.497 105.988 661.884C114.86 638.805 131.426 619.944 144.206 599.098C168.651 595.437 192.413 587.31 217.354 587.93C218.719 587.992 219.897 586.751 219.897 585.387C219.215 560.508 227.342 536.808 231.065 512.487C252.035 499.769 270.958 483.204 294.099 474.394C295.713 473.773 296.333 472.284 295.588 470.671C285.476 448.15 283.863 423.085 278.093 399.323C292.735 379.532 303.84 357.01 321.894 339.887C322.887 338.956 322.887 337.219 321.894 336.288C303.778 319.227 292.672 296.706 278.093 276.852C283.863 253.09 285.538 228.087 295.588 205.504C296.271 203.891 295.713 202.402 294.099 201.782C270.958 192.972 252.035 176.407 231.065 163.688C227.342 139.368 219.215 115.668 219.897 90.7887C219.959 89.4238 218.719 88.245 217.354 88.245C192.413 88.9275 168.589 80.8 144.206 77.0775C131.426 56.1694 114.798 37.3086 105.988 14.2911C105.368 12.678 103.879 12.0576 102.266 12.8021C79.6207 22.8529 54.5557 24.528 30.6696 30.2359C10.8162 15.8421 -11.8291 4.79869 -28.9526 -13.2555C-29.3869 -13.7518 -30.0694 -14 -30.7518 -14C-30.7518 -14 -30.8139 -14 -30.8759 -14H-31V690.361H-30.8759ZM-15.8618 668.709C-23.7411 668.709 -23.6791 657.045 -15.8618 656.611C-8.10655 656.983 -8.0445 668.709 -15.8618 668.709ZM-10.0919 433.136C-9.28534 435.245 -8.16859 437.169 -6.92775 438.844C-10.1539 436.982 -13.194 434.873 -15.9859 432.453C-26.9052 422.899 -28.084 409.622 -27.7738 395.973C-26.0987 393.987 -24.4236 392.002 -22.9346 390.079C-22.128 396.159 -20.2047 402.239 -16.6063 407.078C-14.3728 410.056 -11.0225 412.538 -7.36205 413.593C-11.5809 418.928 -12.5115 426.932 -10.0919 433.136ZM-14.8691 400.129C-17.3508 394.794 -18.2814 388.838 -18.4055 383.068C-18.4055 383.006 -18.4055 382.944 -18.4055 382.944C-17.0406 379.966 -16.172 376.678 -16.2961 372.955C-13.7524 375.623 -10.8984 377.298 -7.79634 378.415C-7.73429 378.477 -7.67225 378.601 -7.61021 378.663C-3.82566 382.572 -0.661522 386.977 1.4479 392.002C3.61937 397.089 4.98429 405.837 -1.53011 408.567C-7.42409 410.925 -12.6356 404.845 -14.8691 400.129ZM-7.42409 262.831C-10.9605 263.824 -14.1867 266.181 -16.4202 269.035C-20.1427 273.874 -22.066 280.078 -22.9346 286.283C-24.4856 284.297 -26.0987 282.374 -27.7738 280.389C-28.022 266.739 -26.8432 253.525 -15.9859 243.908C-13.194 241.426 -10.1539 239.379 -6.92775 237.456C-8.04451 239.007 -8.97513 240.62 -9.78168 242.481C-12.3874 248.747 -11.767 257.247 -7.42409 262.831ZM-18.4055 293.293C-18.2814 287.896 -17.4128 282.56 -15.3654 277.535C-13.3181 272.447 -8.0445 265.25 -1.53011 267.918C4.36387 270.338 3.8055 278.279 2.00628 283.181C0.0209389 288.702 -3.57749 293.604 -7.61021 297.76C-7.67225 297.822 -7.73429 297.947 -7.79634 298.009C-10.8364 299.125 -13.6903 300.863 -16.2961 303.468C-16.172 299.684 -17.0406 296.458 -18.4055 293.48C-18.4055 293.417 -18.4055 293.355 -18.4055 293.293ZM172.746 168.899C172.683 169.148 172.621 169.396 172.621 169.644C172.621 173.242 170.76 177.151 168.03 180.439C164.804 183.976 160.275 186.457 155.994 186.147C146.998 185.527 142.717 175.538 142.593 167.783C142.593 166.542 141.538 165.549 140.298 165.487C132.48 165.363 122.492 161.082 121.871 152.148C121.561 147.743 124.105 143.152 127.827 139.926C131.053 137.258 134.838 135.521 138.374 135.521C138.622 135.521 138.871 135.459 139.119 135.397C149.232 137.134 159.282 138.809 169.581 138.561C169.333 148.798 171.07 158.849 172.746 168.899ZM247.506 282.002C254.579 290.998 261.031 300.552 267.794 309.859C264.94 311.906 262.086 313.891 259.232 315.939C247.94 301.359 238.076 285.29 223.868 273.13C213.445 264.196 200.044 257.93 186.643 260.473C188.318 258.178 190.179 256.13 192.785 254.641C203.704 248.375 216.547 254.952 226.35 260.163C234.663 266.615 241.86 274.867 247.506 282.002ZM230.444 254.393C230.693 249.368 238.262 249.368 238.262 254.393C238.262 259.419 230.693 259.357 230.444 254.393ZM271.764 257.93C275.115 261.032 274.556 265.809 271.516 268.601C268.538 265.126 265.25 261.652 261.652 258.426C264.319 255.634 268.662 255.014 271.764 257.93ZM276.728 242.419C278.031 245.583 276.48 249.244 273.315 250.547C269.903 251.911 266.739 250.174 265.126 247.196C262.706 239.689 273.502 234.788 276.728 242.419ZM268.538 277.163C268.538 286.469 254.579 286.407 254.082 277.163C254.579 267.98 268.538 267.856 268.538 277.163ZM241.612 263.141C242.046 254.952 254.455 254.827 254.455 263.141C254.517 271.393 242.108 271.331 241.612 263.141ZM271.764 418.494C268.662 421.348 264.319 420.727 261.652 417.998C265.25 414.771 268.538 411.297 271.516 407.823C274.556 410.553 275.177 415.392 271.764 418.494ZM276.728 433.942C275.425 437.106 271.764 438.658 268.538 437.355C265.126 435.928 264.071 432.453 265.126 429.165C266.615 426.373 269.469 424.574 272.757 425.567C276.293 426.621 278.093 430.592 276.728 433.942ZM254.082 399.199C254.579 390.017 268.538 389.893 268.538 399.199C268.538 408.505 254.579 408.443 254.082 399.199ZM254.517 413.282C254.517 421.596 242.108 421.472 241.674 413.282C242.108 405.031 254.517 404.969 254.517 413.282ZM247.506 394.422C241.86 401.556 234.663 409.808 226.35 416.198C216.547 421.41 203.704 427.986 192.785 421.72C190.179 420.231 188.318 418.184 186.643 415.888C200.044 418.432 213.445 412.166 223.868 403.232C238.014 391.133 247.878 375.065 259.232 360.423C262.086 362.47 264.94 364.455 267.794 366.503C261.031 375.809 254.579 385.364 247.506 394.422ZM238.262 422.03C238.262 427.056 230.693 427.056 230.444 422.03C230.693 417.005 238.262 416.943 238.262 422.03ZM176.716 459.814C176.654 459.566 176.592 459.255 176.468 459.007C175.351 456.526 173.676 454.602 171.939 452.865C171.505 452.369 171.008 451.872 170.512 451.438C168.651 449.639 166.79 447.902 165.301 445.73C161.454 440.209 167.038 439.03 171.132 438.223C186.085 444.551 190.427 462.171 190.614 477.061C190.862 493.503 187.263 509.633 185.092 525.888C181.804 525.33 178.577 524.772 175.289 524.213C176.84 510.378 180.501 496.729 180.873 482.645C181.121 475.014 180.066 466.7 176.716 459.814ZM169.643 537.862C159.344 537.552 149.294 539.289 139.181 541.027C138.933 540.965 138.685 540.903 138.436 540.903C134.838 540.903 130.867 539.041 127.641 536.311C124.105 533.085 121.623 528.618 121.933 524.275C122.554 515.341 132.542 511.06 140.36 510.936C141.601 510.936 142.593 509.882 142.655 508.641C142.779 500.823 147.06 490.897 156.056 490.276C160.461 489.966 165.052 492.51 168.341 496.17C171.008 499.396 172.746 503.181 172.746 506.717C172.746 506.966 172.808 507.214 172.87 507.462C171.07 517.575 169.333 527.563 169.643 537.862ZM47.2348 554.8C49.5304 556.475 51.5777 558.336 53.0667 560.88C59.333 571.799 52.7565 584.58 47.545 594.321C41.0927 602.572 32.8411 609.769 25.6442 615.415C16.5861 622.488 7.03167 628.878 -2.33665 635.64C-4.38403 632.786 -6.43142 629.933 -8.41676 627.079C6.22513 615.787 22.356 605.984 34.5162 591.839C43.5123 581.478 49.8406 568.139 47.2348 554.8ZM55.6725 546.921C50.461 548.782 43.7605 545.121 40.4722 541.337C36.7497 536.994 35.1366 531.224 34.2681 525.702C32.2827 513.604 31.5382 501.196 30.2353 488.973C30.7937 488.787 31.29 488.601 31.8484 488.415C31.7864 488.415 32.3448 488.105 33.0893 487.733C40.7204 497.039 48.7238 506.221 55.8586 515.838C59.5811 520.925 63.1796 526.881 63.1175 533.395C63.0555 538.049 60.6359 545.121 55.6725 546.921ZM16.2759 477.123C15.0351 471.602 17.7649 466.204 20.4948 461.489C25.5822 462.854 31.0419 464.653 34.144 469.058C38.1767 474.766 35.9432 481.404 29.4288 483.948C23.5348 486.244 17.6408 483.328 16.2759 477.123ZM25.272 542.454C22.8523 546.983 16.5861 552.504 10.8162 551.201C5.35654 549.961 1.63403 543.074 1.13769 538.049C0.455233 531.968 2.6267 525.95 5.23246 520.553C6.90759 517.078 8.64476 513.666 10.444 510.254C14.2285 503.305 18.0131 496.294 21.7976 489.346C22.7903 489.594 23.845 489.718 24.8997 489.78C25.9544 501.134 27.3194 512.487 28.0018 523.841C28.3741 530.045 28.312 536.808 25.272 542.454ZM8.21047 397.214C7.40392 391.071 4.36387 385.364 0.517275 380.338C2.99895 380.648 5.54267 380.897 8.21047 381.145C17.3306 389.893 25.8304 399.447 25.7683 412.848C25.7683 417.377 24.9618 421.782 23.845 426.125C23.5348 424.202 23.0385 422.34 22.2319 420.417C19.6262 414.089 13.1738 408.691 6.22513 407.885C8.02434 404.721 8.64476 400.75 8.21047 397.214ZM6.16309 268.353C12.9257 267.608 19.2539 262.707 21.9838 256.565C22.9144 254.455 23.4728 252.346 23.845 250.174C24.9618 254.517 25.7683 258.984 25.7683 263.513C25.8304 276.914 17.3306 286.469 8.14843 295.217C5.54267 295.465 2.93691 295.713 0.455233 296.023C4.17775 291.122 7.2178 285.476 8.08638 279.52C8.7068 275.86 8.08638 271.641 6.16309 268.353ZM29.4908 192.413C35.3228 194.647 38.1767 200.727 34.8885 206.311C31.9105 211.398 26.0165 213.446 20.4948 214.935C17.889 210.467 15.4694 205.628 16.1518 200.355C17.0204 193.592 22.9764 189.932 29.4908 192.413ZM11.1885 167.659C9.26518 163.998 7.40392 160.4 5.60471 156.677C2.81282 151.031 0.39319 144.765 1.13769 138.375C1.69607 133.349 5.35654 126.463 10.8162 125.222C16.5861 123.919 22.8523 129.441 25.272 133.97C28.188 139.368 28.312 145.758 28.0018 151.776C27.3194 163.44 25.9544 175.104 24.8377 186.768C23.783 186.768 22.7283 186.954 21.7356 187.14C18.1992 180.625 14.6628 174.111 11.1885 167.659ZM77.9455 229.887C93.394 245.211 95.6275 269.035 84.6461 287.399C80.6754 286.283 76.7047 284.856 72.672 283.429C82.4746 269.717 81.6681 250.671 69.3838 238.386C57.0374 226.04 37.9285 225.358 24.1552 235.098C22.7283 231.127 21.3013 227.157 20.1846 223.186C38.673 212.267 62.4971 214.562 77.9455 229.887ZM89.5474 465.273C93.6421 466.762 98.7916 471.478 98.7916 476.069C98.7916 480.226 94.3866 484.568 90.7262 486.244C85.3906 488.725 79.3105 488.105 73.7267 486.802C71.1209 486.182 68.5772 485.561 65.9715 484.817C65.289 484.631 64.6686 484.444 63.9861 484.196C56.417 481.839 48.8479 479.481 41.2788 477.186C41.4029 476.317 41.4649 475.386 41.4649 474.518C51.888 471.416 62.311 468.003 72.8581 465.398C78.2557 464.033 84.1497 463.288 89.5474 465.273ZM83.5913 452.121C87.3139 448.708 92.7115 454.106 89.1131 457.642C85.5767 461.241 80.179 455.843 83.5913 452.121ZM54.1835 277.845C55.3003 277.163 56.355 276.356 57.3476 275.363C64.1722 268.601 64.1722 257.123 57.3476 250.36C50.523 243.598 39.1073 243.536 32.2827 250.36C31.29 251.353 30.4835 252.408 29.801 253.525C28.8704 248.996 27.5055 244.466 25.9544 239.999C37.7424 230.631 54.9901 231.065 65.8474 241.923C76.7047 252.78 77.139 269.904 67.7707 281.692C63.2416 280.141 58.7746 278.776 54.1835 277.845ZM79.8688 292.549C76.8908 299.125 73.4785 305.95 67.5225 310.231C60.6979 315.194 48.4136 315.877 45.0633 306.26C42.0233 297.45 49.8406 290.315 57.844 288.764C65.351 287.399 72.8581 289.943 79.8688 292.549ZM53.7492 271.827C48.6618 276.79 40.9686 276.542 35.8191 271.827C31.166 266.739 30.7937 258.984 35.8191 253.959C40.7204 249.12 48.8479 249.12 53.7492 253.959C58.6505 258.798 58.7126 266.988 53.7492 271.827ZM44.1948 281.878C48.7238 281.878 53.1908 282.684 57.5338 283.801C55.6105 284.111 53.6872 284.608 51.8259 285.414C45.4976 288.02 40.0379 294.41 39.2314 301.359C36.0052 299.56 32.0345 298.939 28.4361 299.436C22.294 300.242 16.5241 303.282 11.4987 307.067C11.8089 304.585 12.0571 302.041 12.3052 299.436C21.1772 290.253 30.7317 281.816 44.1948 281.878ZM44.9393 314.884C50.2749 319.103 58.3403 320.033 64.5445 317.614C66.6539 316.807 68.5772 315.691 70.3144 314.45C68.4531 317.614 66.3437 320.716 63.862 323.508C54.2455 334.365 40.9065 335.544 27.2573 335.296C25.272 333.621 23.2866 331.945 21.3013 330.456C27.4435 329.65 33.5236 327.789 38.3628 324.128C41.4029 321.895 43.8846 318.544 44.9393 314.884ZM76.1463 325.555C83.033 325.555 88.8029 331.325 88.8029 338.15C88.8029 345.036 83.033 350.744 76.1463 350.744C69.0115 350.744 63.8 345.036 63.4898 338.15C63.738 331.325 69.0115 325.555 76.1463 325.555ZM27.2573 341.128C40.9686 340.88 54.1835 342.058 63.862 352.916C66.3437 355.708 68.4531 358.748 70.3144 361.974C68.7633 360.857 67.0882 359.926 65.289 359.12C59.0228 356.514 50.523 357.134 44.9393 361.477C43.9466 357.941 41.527 354.715 38.673 352.543C33.7717 348.759 27.5675 346.836 21.3013 346.029C23.2866 344.478 25.272 342.803 27.2573 341.128ZM44.1948 394.484C30.7317 394.546 21.1152 386.046 12.3673 376.926C12.1191 374.32 11.8709 371.776 11.5607 369.295C16.462 373.017 22.1078 375.995 28.1259 376.926C31.8484 377.484 36.0052 376.864 39.3555 375.003C40.1 381.765 45.0013 388.031 51.2055 390.761C53.3149 391.692 55.4243 392.25 57.5958 392.622C53.2529 393.739 48.7859 394.484 44.1948 394.484ZM53.7492 404.534C58.6505 409.374 58.6505 417.501 53.7492 422.403C48.9099 427.242 40.6584 427.304 35.8191 422.403C30.8558 417.315 31.1039 409.684 35.8191 404.534C40.9686 399.881 48.7238 399.571 53.7492 404.534ZM29.801 422.775C30.4835 423.892 31.29 424.946 32.2827 425.939C39.0453 432.764 50.5851 432.764 57.3476 425.939C64.1102 419.114 64.1722 407.761 57.3476 400.936C56.355 399.943 55.3003 399.137 54.1835 398.454C58.7746 397.524 63.2416 396.159 67.7086 394.608C77.077 406.334 76.6427 423.519 65.7853 434.377C54.928 445.234 37.6804 445.606 25.8924 436.3C27.5055 431.833 28.8704 427.366 29.801 422.775ZM57.844 387.535C49.9026 386.046 42.0233 378.849 45.0633 370.039C48.3516 360.485 60.6979 361.105 67.5225 366.069C73.4785 370.411 76.8288 377.236 79.8688 383.75C72.8581 386.48 65.351 388.962 57.844 387.535ZM79.0003 367.62C76.9529 363.401 74.7814 359.244 72.1756 355.335C73.4785 355.645 74.7814 355.832 76.1463 355.832C85.7628 355.832 93.8903 347.766 93.8903 338.15C93.8903 328.533 85.8249 320.468 76.1463 320.468C74.7194 320.468 73.4165 320.654 72.1136 320.964C74.7194 317.055 76.8908 312.899 79.0003 308.68C94.0144 310.355 105.864 322.825 105.864 338.15C105.802 353.474 93.9523 365.944 79.0003 367.62ZM110.89 338.212C110.89 320.84 97.861 306.819 81.2338 304.027C83.033 300.242 84.8942 296.458 86.8796 292.797C107.726 298.071 122.926 316.497 122.926 338.212C122.926 359.926 107.664 378.353 86.8796 383.626C84.8322 379.966 83.033 376.181 81.2338 372.397C97.923 369.605 110.89 355.583 110.89 338.212ZM100.591 273.502C106.361 269.469 112.999 271.703 115.543 278.155C117.838 284.111 114.923 289.943 108.656 291.308C103.135 292.549 97.6749 289.819 92.9597 287.089C94.3246 282.002 96.1238 276.604 100.591 273.502ZM96.7442 218.347C98.2332 214.252 102.948 209.165 107.54 209.165C111.696 209.165 116.039 213.57 117.776 217.23C120.258 222.504 119.638 228.584 118.335 234.167C117.714 236.711 117.032 239.317 116.349 241.861C116.163 242.543 115.915 243.164 115.729 243.846C113.371 251.353 111.014 258.922 108.656 266.429C107.788 266.305 106.857 266.243 105.988 266.243C102.886 255.882 99.412 245.459 96.8683 234.974C95.5654 229.576 94.7589 223.682 96.7442 218.347ZM107.602 384.929C114.364 385.798 118.025 391.754 115.543 398.206C113.309 403.976 107.167 406.892 101.583 403.604C96.434 400.626 94.3866 394.732 92.9597 389.272C97.4267 386.666 102.328 384.247 107.602 384.929ZM115.481 431.647C115.543 431.895 115.605 432.081 115.667 432.329C116.536 435.307 117.342 438.285 118.087 441.325C119.452 446.723 120.258 452.617 118.273 457.953C116.784 462.047 112.069 467.197 107.477 467.197C103.321 467.197 98.9777 462.854 97.2406 459.193C94.7589 453.92 95.3173 447.84 96.6201 442.256C99.1018 431.399 102.762 420.727 105.988 409.994C106.857 409.994 107.788 409.932 108.594 409.808C110.952 417.129 113.247 424.388 115.481 431.647ZM97.799 524.337C102.328 520.181 109.277 519.87 113.806 524.337C118.149 528.68 118.149 535.939 113.806 540.282C109.463 544.625 102.142 544.687 97.799 540.282C93.3319 535.753 93.5801 528.866 97.799 524.337ZM109.463 503.243C101.832 496.232 102.018 484.693 108.904 477.372C116.101 470.671 127.269 470.237 134.404 477.372C141.352 484.32 141.352 495.86 134.404 502.747C127.641 509.509 116.474 509.695 109.463 503.243ZM133.783 457.208C129.068 453.548 126.338 448.088 124.291 442.628C123.236 439.774 122.243 436.858 121.251 433.88C120.941 432.888 120.63 431.895 120.32 430.902C118.025 423.271 115.729 415.64 113.434 408.009C114.302 407.45 115.109 406.83 115.915 406.148C124.973 413.593 134.28 420.851 143.027 428.669C147.494 432.639 151.962 437.293 153.699 443.187C155.25 448.398 154.505 456.464 149.418 459.752C145.013 462.606 137.568 460.124 133.783 457.208ZM117.032 383.688C122.181 374.134 127.145 364.331 132.791 355.025C135.52 350.558 138.871 346.153 143.586 343.671C147.805 341.438 155.064 340.817 158.6 344.354C161.888 347.642 161.516 354.219 159.717 358.251C157.483 363.277 153.078 366.751 148.487 369.605C146.068 371.094 143.648 372.521 141.104 373.886C140.67 374.134 140.236 374.382 139.739 374.568C132.729 378.229 125.718 381.889 118.707 385.612C118.273 384.991 117.652 384.309 117.032 383.688ZM130.929 338.212C131.177 333.186 138.809 333.186 138.809 338.212C138.809 343.237 131.24 343.175 130.929 338.212ZM158.6 331.945C155.312 335.234 148.673 334.923 144.641 333.124C139.615 330.891 136.079 326.548 133.225 322.019C127.331 312.588 122.305 302.476 117.032 292.673C117.714 292.053 118.273 291.37 118.769 290.688C125.532 294.224 132.232 297.76 138.995 301.297C139.491 301.545 139.987 301.855 140.546 302.103C143.027 303.468 145.447 304.895 147.867 306.322C152.396 309.052 156.739 312.34 159.282 317.055C161.454 321.15 162.136 328.409 158.6 331.945ZM116.101 270.152C115.605 269.655 115.047 269.159 114.426 268.725C114.178 268.539 113.868 268.353 113.558 268.166C115.729 260.908 117.901 253.649 120.072 246.39C120.134 246.266 120.134 246.08 120.196 245.955C121.375 242.109 122.678 238.324 123.981 234.54C125.904 229.142 128.448 223.682 132.853 219.774C136.885 216.237 144.33 213.694 149.48 216.486C154.381 219.215 155.312 227.529 154.009 232.244C152.396 238.2 148.239 242.853 143.772 246.948C134.962 255.2 125.346 262.583 116.101 270.152ZM134.9 198.493C127.889 206.125 116.287 205.876 108.904 199.052C102.204 191.917 101.77 180.749 108.904 173.677C115.853 166.728 127.455 166.79 134.404 173.677C141.166 180.377 141.352 191.483 134.9 198.493ZM113.806 152.024C109.277 156.491 102.39 156.243 97.799 152.024C93.6421 147.495 93.3319 140.546 97.799 136.079C102.142 131.736 109.463 131.736 113.806 136.079C118.149 140.422 118.211 147.743 113.806 152.024ZM98.7296 200.355C98.7296 204.511 94.3866 208.854 90.6641 210.592C85.3285 213.073 79.2484 212.515 73.6646 211.212C62.7453 208.73 52.012 205.07 41.3408 201.844C41.3408 200.975 41.2788 200.044 41.1547 199.238C48.4756 197.004 55.7346 194.709 63.0555 192.475C63.3037 192.413 63.4898 192.351 63.7379 192.289C66.716 191.421 69.756 190.614 72.734 189.87C78.1317 188.505 84.0257 187.76 89.4233 189.683C93.5801 191.11 98.7296 195.826 98.7296 200.355ZM83.5913 224.241C80.179 220.518 85.5767 215.121 89.1131 218.719C92.7115 222.317 87.3139 227.653 83.5913 224.241ZM9.57539 315.318C9.63743 315.256 9.76152 315.194 9.82356 315.132C13.7322 311.348 18.1372 308.183 23.1626 306.074C28.25 303.965 37.0599 302.538 39.7898 309.052C42.2094 314.946 36.1293 320.158 31.4141 322.329C26.0785 324.811 20.1225 325.741 14.2906 325.865C14.2285 325.865 14.1665 325.865 14.1665 325.865C11.1885 324.5 7.90026 323.694 4.1157 323.756C6.7835 321.274 8.45864 318.42 9.57539 315.318ZM14.1044 331.263C17.3306 333.124 20.1225 335.73 22.9764 338.212C20.3086 340.507 17.7649 342.927 14.7869 344.726C9.63743 347.89 4.05366 348.138 -1.71623 346.649C-9.16126 344.788 -15.7377 340.817 -22.8725 338.15C-15.7377 335.482 -9.09922 331.511 -1.71623 329.65C3.74345 328.347 9.20314 328.409 14.1044 331.263ZM14.1665 350.496C14.2285 350.496 14.2285 350.496 14.2906 350.496C19.7503 350.62 25.0859 351.489 30.1113 353.536C35.1987 355.583 42.4576 360.857 39.7898 367.309C37.3701 373.203 29.3667 372.583 24.4654 370.846C18.9437 368.86 14.0424 365.262 9.82356 361.229C9.76152 361.167 9.63743 361.105 9.57539 361.043C8.45864 358.003 6.72146 355.149 4.1157 352.605C7.90026 352.667 11.1885 351.861 14.1665 350.496ZM24.2173 441.263C37.9906 451.004 57.0995 450.259 69.4458 437.975C81.7921 425.691 82.4746 406.582 72.734 392.933C76.7047 391.506 80.6754 390.141 84.7081 388.962C95.6895 407.326 93.394 431.088 78.0076 446.475C62.6212 461.861 38.7351 464.095 20.3086 453.175C21.3633 449.205 22.7903 445.234 24.2173 441.263ZM60.6359 512.115C52.5704 503.305 45.1254 493.751 37.4942 484.568C37.9906 484.072 38.4869 483.514 38.9212 482.893C39.1073 482.645 39.2934 482.335 39.4796 482.025C46.7385 484.196 54.0594 486.368 61.3183 488.539C61.4424 488.601 61.6285 488.601 61.7526 488.663C65.5992 489.842 69.3838 491.083 73.1683 492.448C78.628 494.371 84.0877 496.915 87.9343 501.258C91.4707 505.29 94.0764 512.736 91.2225 517.823C88.4927 522.724 80.117 523.593 75.4018 522.29C69.4458 520.677 64.7306 516.582 60.6359 512.115ZM77.201 533.52C79.3725 535.009 81.1097 536.87 82.9089 538.731C83.4052 539.227 83.9016 539.724 84.3979 540.22C86.1971 541.957 88.0584 543.57 90.54 544.687C90.8502 544.811 91.0984 544.873 91.3466 544.935C98.2332 548.223 106.547 549.278 114.302 549.092C128.386 548.72 142.097 545.121 155.994 543.57C156.553 546.797 157.111 550.085 157.669 553.311C141.414 555.482 125.159 559.081 108.718 558.833C93.7662 558.584 76.0843 554.304 69.694 539.414C70.4385 535.195 71.6793 529.735 77.201 533.52ZM172.063 482.211C167.72 486.554 160.399 486.616 156.056 482.211C151.589 477.682 151.837 470.795 156.056 466.266C160.585 462.109 167.534 461.799 172.063 466.266C176.406 470.671 176.406 477.868 172.063 482.211ZM166.045 431.709C159.469 431.957 153.451 428.669 148.301 425.008C138.312 417.873 128.944 409.622 119.39 401.867C119.576 401.494 119.824 401.06 119.948 400.626C120.196 400.067 120.382 399.509 120.506 398.951C132.48 400.192 144.579 400.998 156.491 402.797C162.012 403.604 167.658 405.031 172.187 408.443C176.468 411.669 180.811 418.618 178.702 424.264C177.026 428.855 170.45 431.523 166.045 431.709ZM174.235 393.987C168.837 396.903 162.385 397.027 156.366 396.717C144.641 396.035 132.915 394.67 121.251 393.553C121.251 392.498 121.065 391.506 120.879 390.451C127.393 386.977 133.907 383.44 140.36 379.966C144.02 378.043 147.681 376.181 151.403 374.382C157.111 371.652 163.377 369.233 169.768 369.915C174.855 370.473 181.742 374.134 182.982 379.594C184.347 385.302 178.826 391.568 174.235 393.987ZM209.226 362.222C203.332 355.459 207.365 345.347 212.825 339.825C213.693 338.956 213.693 337.529 212.825 336.599C207.365 331.015 203.332 320.964 209.226 314.202C211.894 311.099 216.547 309.61 221.138 309.672C225.667 309.921 230.01 311.348 232.74 314.077C232.926 314.264 233.112 314.388 233.298 314.512C239.254 322.887 245.148 331.201 252.655 338.212C245.148 345.222 239.192 353.598 233.298 361.912C233.112 362.036 232.926 362.16 232.74 362.346C230.134 364.952 226.039 366.379 221.759 366.689C216.919 366.875 212.018 365.448 209.226 362.222ZM214.872 379.221C214.934 393.801 192.909 393.677 192.227 379.221C192.971 364.828 214.872 364.642 214.872 379.221ZM192.289 297.14C192.971 282.746 214.872 282.56 214.934 297.14C214.934 311.72 192.971 311.596 192.289 297.14ZM202.836 338.212C202.836 347.766 195.081 355.77 185.526 356.142C175.227 356.576 167.162 348.263 166.79 338.212C167.1 328.471 174.731 320.22 184.782 320.282C194.584 320.282 202.836 328.347 202.836 338.212ZM182.982 400.502C185.712 399.509 189.373 400.254 192.227 400.254C195.453 400.254 198.493 399.881 201.533 398.765C201.843 398.641 202.091 398.516 202.277 398.33C210.405 395.476 217.726 389.334 223.496 382.82C232.12 373.079 238.82 361.85 246.948 351.737C249.677 353.66 252.345 355.583 255.075 357.445C245.769 369.605 237.393 382.572 226.66 393.553C215.554 404.907 199.237 416.074 182.982 409.56C182.92 409.498 182.858 409.436 182.796 409.374C180.625 406.458 177.523 402.425 182.982 400.502ZM249.926 348.325C252.097 345.843 254.393 343.423 256.812 341.19C263.513 345.657 270.213 350.062 276.914 354.529C274.742 357.259 272.571 360.05 270.461 362.842C263.575 358.003 256.75 353.164 249.926 348.325ZM260.473 338.212C266.925 333.931 273.377 329.65 279.83 325.369C283.676 329.898 287.709 334.179 292.114 338.212C287.709 342.244 283.614 346.525 279.83 351.054C273.315 346.773 266.925 342.493 260.473 338.212ZM256.812 335.172C254.393 332.938 252.097 330.519 249.926 328.037C256.75 323.198 263.637 318.358 270.461 313.519C272.571 316.311 274.68 319.103 276.914 321.833C270.213 326.3 263.513 330.705 256.812 335.172ZM226.66 282.746C237.393 293.728 245.769 306.694 255.075 318.855C252.345 320.778 249.677 322.701 246.948 324.562C238.82 314.45 232.12 303.22 223.496 293.48C217.726 287.027 210.405 280.823 202.277 277.969C202.091 277.783 201.843 277.659 201.533 277.535C198.493 276.418 195.453 276.046 192.227 276.046C189.311 276.046 185.712 276.79 182.982 275.798C177.523 273.812 180.687 269.78 182.858 266.802C182.92 266.739 182.982 266.677 182.982 266.615C199.237 260.225 215.616 271.393 226.66 282.746ZM183.044 296.83C181.804 302.289 174.917 305.95 169.83 306.508C163.687 307.191 157.669 305.019 152.272 302.414C148.797 300.738 145.323 299.001 141.911 297.264C134.9 293.48 127.889 289.695 120.941 285.972C121.189 284.98 121.313 283.925 121.375 282.87C132.791 281.816 144.144 280.513 155.56 279.768C161.826 279.334 168.589 279.396 174.297 282.436C178.826 284.794 184.347 291.06 183.044 296.83ZM173.118 267.236C168.713 270.958 162.943 272.509 157.421 273.44C145.261 275.425 132.853 276.17 120.568 277.411C120.382 276.852 120.196 276.356 120.01 275.798C120.01 275.86 119.7 275.301 119.327 274.557C128.696 266.988 137.878 258.984 147.557 251.911C152.644 248.189 158.6 244.653 165.176 244.653C169.83 244.715 176.964 247.072 178.764 252.036C180.625 257.247 176.902 264.01 173.118 267.236ZM171.132 238.138C166.976 237.332 161.516 236.091 165.301 230.631C166.79 228.46 168.713 226.722 170.512 224.923C171.008 224.427 171.505 223.993 172.001 223.434C173.738 221.635 175.351 219.774 176.468 217.354C176.592 217.044 176.654 216.796 176.716 216.548C180.066 209.661 181.059 201.409 180.873 193.654C180.501 179.633 176.84 165.983 175.289 152.086C178.577 151.528 181.804 150.969 185.092 150.411C187.263 166.604 190.924 182.797 190.614 199.238C190.365 214.19 186.085 231.81 171.132 238.138ZM172.063 210.095C167.534 214.562 160.647 214.314 156.056 210.095C151.899 205.566 151.589 198.617 156.056 194.15C160.399 189.808 167.72 189.808 172.063 194.15C176.406 198.431 176.468 205.752 172.063 210.095ZM155.994 132.853C142.097 131.302 128.386 127.704 114.302 127.331C106.547 127.145 98.2332 128.138 91.3466 131.488C91.0984 131.55 90.7882 131.612 90.54 131.736C88.0584 132.853 86.1351 134.466 84.3358 136.265C83.8395 136.7 83.3432 137.196 82.9089 137.692C81.1097 139.554 79.3725 141.415 77.201 142.904C71.6793 146.75 70.5005 141.229 69.694 137.134C76.0843 122.244 93.7662 117.901 108.718 117.715C125.221 117.467 141.414 121.065 157.669 123.237C157.111 126.339 156.553 129.565 155.994 132.853ZM74.6573 154.258C79.9309 152.707 87.9963 153.451 91.2845 158.538C94.1385 163.005 91.6568 170.45 88.7408 174.173C85.0804 178.888 79.6207 181.618 74.0989 183.603C71.183 184.658 68.267 185.651 65.351 186.581C64.3584 186.892 63.3657 187.202 62.373 187.512C54.6798 189.808 47.0487 192.041 39.3555 194.337C38.7971 193.468 38.1767 192.661 37.4942 191.917C45.0013 182.859 52.2602 173.615 60.0775 164.929C64.0482 160.462 68.7013 156.057 74.6573 154.258ZM56.355 159.779C49.1581 169.768 40.9065 179.074 33.1513 188.567C32.7791 188.381 32.3448 188.132 31.9105 188.008C31.3521 187.76 30.7937 187.574 30.2353 187.45C31.4762 175.538 32.2827 163.44 34.0819 151.59C34.9505 146.068 36.3154 140.484 39.7898 135.955C43.016 131.674 50.0267 127.393 55.6725 129.441C60.2636 131.116 62.9314 137.692 63.1175 142.097C63.3037 148.674 60.0775 154.63 56.355 159.779ZM53.0667 115.419C51.5777 117.963 49.5304 119.886 47.2348 121.499C49.8406 108.16 43.5123 94.8214 34.5162 84.4604C22.356 70.3769 6.22513 60.5123 -8.41676 49.2827C-6.36937 46.4288 -4.32199 43.5749 -2.33665 40.7209C6.96963 47.4215 16.5861 53.8738 25.6442 60.9466C32.8411 66.5303 41.0306 73.7892 47.545 81.9788C52.8186 91.7814 59.333 104.562 53.0667 115.419ZM-20.577 58.5269C-23.0586 56.3555 -25.4783 54.122 -27.7118 51.6403C-23.2448 45.0018 -18.7778 38.3013 -14.3107 31.6628C-11.5809 33.8343 -8.78901 36.0057 -5.93508 38.0531C-10.8364 44.8777 -15.6757 51.7023 -20.577 58.5269ZM-11.3327 53.3775C0.827484 62.6838 13.8563 70.9974 24.8997 81.6686C36.2534 92.712 47.545 108.967 40.9686 125.222C40.9065 125.284 40.8445 125.346 40.7204 125.408C37.7424 127.58 33.7097 130.682 31.7243 125.222C30.7317 122.492 31.4762 118.832 31.4762 115.978C31.4762 112.752 31.1039 109.711 29.9872 106.671C29.8631 106.361 29.739 106.113 29.5529 105.927C26.6989 97.8615 20.4948 90.5406 13.9804 84.7707C4.23979 76.1468 -7.05184 69.5084 -17.1647 61.3809C-15.1793 58.7131 -13.256 56.0453 -11.3327 53.3775ZM10.444 93.4565C25.0238 93.3945 24.8997 115.295 10.444 115.978C-4.01178 115.295 -4.19791 93.4565 10.444 93.4565ZM0.889526 159.593C2.37853 162.013 3.8055 164.432 5.23246 166.914C5.48063 167.348 5.72879 167.783 5.97696 168.279C9.63743 175.29 13.3599 182.238 17.0204 189.249C16.2759 189.746 15.6555 190.366 15.0351 190.986C5.35654 185.775 -4.50812 180.874 -13.8144 175.228C-18.2814 172.498 -22.6864 169.21 -25.2301 164.432C-27.4636 160.276 -28.084 153.017 -24.5476 149.48C-21.2594 146.192 -14.6209 146.564 -10.5882 148.364C-5.50079 150.659 -1.9644 155.002 0.889526 159.593ZM15.0971 227.963C17.7029 234.912 20.2466 242.419 18.8196 249.864C17.3306 257.805 10.1338 265.623 1.26178 262.583C-8.35471 259.294 -7.67225 247.01 -2.7089 240.248C1.63403 234.354 8.45864 230.941 15.0971 227.963ZM-16.4202 312.03C-13.9385 307.873 -10.5882 304.027 -5.93508 302.289C-1.77827 300.738 2.81282 300.614 7.27984 300.366C7.03167 304.523 6.90759 308.804 5.54267 312.712C3.8055 317.738 0.0209389 321.274 -4.44608 323.942C-10.9605 327.727 -18.3435 329.588 -25.1681 332.69C-22.066 325.865 -20.2047 318.482 -16.4202 312.03ZM-4.44608 352.481C-0.28927 354.901 3.55733 358.313 5.2945 362.904C6.84555 367.061 6.96963 371.652 7.27984 376.057C3.12304 375.809 -1.2199 375.685 -5.12854 374.382C-10.1539 372.645 -13.7524 368.922 -16.3581 364.393C-20.2047 357.941 -22.066 350.558 -25.1681 343.733C-18.3435 346.836 -10.9605 348.697 -4.44608 352.481ZM1.26178 413.779C10.0717 410.739 17.2686 418.556 18.8196 426.497C20.2466 433.942 17.7029 441.449 15.0971 448.398C8.52068 445.42 1.63403 442.008 -2.64686 436.114C-7.67225 429.289 -8.35471 417.067 1.26178 413.779ZM16.9584 487.174C13.422 493.875 9.8856 500.575 6.34921 507.338C6.10104 507.834 5.79084 508.331 5.54267 508.889C4.17775 511.371 2.75078 513.79 1.32382 516.148C-1.40602 520.615 -4.69424 525.02 -9.47147 527.564C-26.2848 536.435 -36.6458 515.341 -14.4969 501.568C-5.00445 495.674 5.10837 490.711 14.973 485.437C15.5934 486.057 16.2759 486.678 16.9584 487.174ZM10.444 560.384C24.8997 561.066 25.0859 582.905 10.444 582.905C-4.13586 582.967 -4.01178 561.066 10.444 560.384ZM14.1044 591.591C20.6188 585.821 26.823 578.5 29.677 570.434C29.8631 570.248 29.9872 570 30.1113 569.69C31.228 566.65 31.6003 563.61 31.6003 560.384C31.6003 557.468 30.8558 553.931 31.8484 551.139C33.8338 545.68 37.8665 548.844 40.9065 551.015C40.9686 551.077 41.0306 551.139 41.0927 551.139C47.6071 567.332 36.3775 583.649 25.0238 594.693C13.9804 605.364 0.951567 613.74 -11.2086 622.984C-13.1319 620.316 -15.0552 617.586 -16.9785 614.918C-6.92775 606.853 4.36387 600.215 14.1044 591.591ZM-5.99712 638.308C-8.85105 640.418 -11.6429 642.527 -14.3728 644.699C-18.8398 638.06 -23.3068 631.36 -27.7738 624.721C-25.5403 622.301 -23.1207 620.006 -20.639 617.834C-15.6757 624.659 -10.8364 631.484 -5.99712 638.308ZM-1.90236 657.913C-10.0298 657.913 -9.9678 645.815 -1.90236 645.381C6.16309 645.815 6.22513 657.913 -1.90236 657.913ZM13.6081 648.111C4.30183 648.111 4.36387 634.214 13.6081 633.717C22.8524 634.214 22.9144 648.111 13.6081 648.111ZM30.4835 636.385C21.1772 636.385 21.2393 622.488 30.4835 621.991C39.7277 622.488 39.7898 636.385 30.4835 636.385ZM44.567 609.583C52.8186 610.017 52.8806 622.426 44.567 622.426C36.2534 622.426 36.3154 610.079 44.567 609.583ZM49.8406 639.673C46.7385 643.023 41.8992 642.465 39.1073 639.425C42.5817 636.447 46.1181 633.159 49.3442 629.56C52.0741 632.228 52.6945 636.509 49.8406 639.673ZM53.377 598.415C58.4023 598.663 58.4644 606.233 53.377 606.233C48.2895 606.233 48.3516 598.663 53.377 598.415ZM59.7052 583.773C62.373 577.817 63.862 571.551 63.6139 565.161C67.9568 569.876 73.4785 573.226 79.5586 575.584C83.9636 590.722 96.9304 597.423 111.138 599.78C104.003 611.134 97.3647 622.798 92.7735 635.392C80.5513 629.746 67.6466 626.148 54.5557 623.17C62.9934 611.506 67.3364 597.733 59.7052 583.773ZM94.4487 581.478C98.1712 578.066 103.569 583.401 99.9704 587C96.434 590.536 91.0364 585.138 94.4487 581.478ZM108.594 583.215C111.2 580.857 115.109 580.671 117.714 583.215C120.196 585.697 120.196 589.792 117.714 592.273C115.233 594.755 111.076 594.755 108.594 592.273C106.051 589.729 106.175 585.759 108.594 583.215ZM65.351 644.574C62.1869 645.877 58.4644 644.326 57.1615 641.162C55.7346 637.812 57.5338 634.586 60.5118 633.035C68.0809 630.615 73.0442 641.41 65.351 644.574ZM82.4126 649.166C79.3105 650.406 75.7741 648.979 74.5332 645.877C73.1683 642.589 74.9055 639.549 77.7594 637.998C85.0804 635.765 89.8576 646.126 82.4126 649.166ZM100.157 653.012C92.8356 655.308 88.0584 644.885 95.5034 641.845C98.6055 640.604 102.142 642.031 103.383 645.133C104.748 648.421 103.072 651.461 100.157 653.012ZM109.897 637.874C106.795 639.115 103.259 637.688 102.018 634.586C100.653 631.298 102.39 628.257 105.244 626.706C112.565 624.411 117.342 634.834 109.897 637.874ZM118.707 622.55C115.543 623.852 111.82 622.301 110.518 619.137C109.091 615.787 110.89 612.561 113.868 611.01C121.437 608.59 126.338 619.385 118.707 622.55ZM127.021 608.094C122.43 608.466 119.327 604.744 119.39 600.649C124.229 600.897 129.068 600.773 133.597 600.401C133.783 604.247 131.24 607.784 127.021 608.094ZM137.568 592.211C134.776 595.003 130.123 595.003 127.331 592.211C124.477 589.357 124.663 584.952 127.331 582.036C130.247 579.368 134.652 579.182 137.568 582.036C140.36 584.828 140.36 589.419 137.568 592.211ZM157.793 588.551C155.002 591.343 150.348 591.343 147.557 588.551C144.703 585.697 144.889 581.292 147.557 578.376C150.472 575.708 154.877 575.522 157.793 578.376C160.585 581.168 160.585 585.821 157.793 588.551ZM123.732 574.281C115.233 575.212 105.182 575.708 95.5034 574.467C84.8322 571.241 71.3071 566.836 68.0809 554.738C67.3364 551.884 67.4605 549.092 67.8948 546.362C74.9055 556.661 87.3139 561.811 99.8463 563.3C119.514 565.595 139.119 560.756 158.6 558.274C159.158 561.749 159.779 565.161 160.337 568.635C148.053 570.559 135.955 572.916 123.732 574.281ZM160.523 543.136C163.812 542.888 167.1 542.826 170.45 542.95C172.001 550.829 173.614 558.646 175.165 566.526C171.691 566.898 168.216 567.394 164.742 567.891C163.315 559.639 161.888 551.388 160.523 543.136ZM175.724 584.58C173.304 587 169.271 587 166.852 584.58C164.37 582.098 164.494 578.252 166.852 575.708C169.395 573.412 173.242 573.226 175.724 575.708C178.143 578.128 178.143 582.16 175.724 584.58ZM193.281 582.346C187.76 587.868 179.384 579.493 184.658 573.785C187.077 571.551 190.862 571.365 193.281 573.785C195.639 576.142 195.639 580.051 193.281 582.346ZM197.562 565.657C191.606 565.409 185.65 565.595 179.756 566.091C178.267 558.522 176.716 550.953 175.227 543.384C182.796 544.873 190.427 546.424 197.997 547.913C197.438 553.807 197.252 559.701 197.562 565.657ZM198.369 543.384C190.49 541.833 182.61 540.22 174.731 538.669C174.607 535.381 174.669 532.031 174.917 528.804C183.169 530.231 191.482 531.596 199.734 533.023C199.237 536.435 198.803 539.91 198.369 543.384ZM190.055 526.757C192.537 507.4 197.438 487.857 195.143 468.251C193.654 455.781 188.442 443.373 178.143 436.424C180.935 435.99 183.727 435.866 186.581 436.61C198.679 439.836 203.146 453.361 206.372 463.971C207.613 473.587 207.117 483.638 206.186 492.076C204.883 504.298 202.464 516.334 200.478 528.494C197.004 527.936 193.53 527.315 190.055 526.757ZM211.087 579.12C205.566 584.642 197.19 576.266 202.464 570.559C204.883 568.325 208.668 568.139 211.087 570.559C213.445 572.916 213.445 576.825 211.087 579.12ZM214.314 561.438C208.792 566.96 200.416 558.584 205.69 552.877C208.109 550.643 211.894 550.457 214.314 552.877C216.671 555.172 216.609 559.081 214.314 561.438ZM216.547 543.943C214.127 546.362 210.095 546.362 207.675 543.943C205.193 541.461 205.318 537.614 207.675 535.071C210.219 532.775 214.065 532.589 216.547 535.071C218.967 537.49 218.967 541.523 216.547 543.943ZM220.518 526.075C217.726 528.866 213.073 528.866 210.281 526.075C207.427 523.221 207.613 518.816 210.281 515.9C213.197 513.232 217.602 513.046 220.518 515.9C223.31 518.692 223.31 523.283 220.518 526.075ZM224.178 505.911C221.386 508.703 216.733 508.703 213.941 505.911C211.087 503.057 211.274 498.652 213.941 495.736C216.857 493.068 221.262 492.882 224.178 495.736C226.97 498.528 226.97 503.119 224.178 505.911ZM218.905 468.438C215.306 471.974 209.971 466.638 213.383 462.916C217.105 459.504 222.503 464.901 218.905 468.438ZM224.24 477.061C226.722 479.543 226.722 483.638 224.24 486.12C221.759 488.601 217.602 488.601 215.12 486.12C212.576 483.576 212.701 479.605 215.12 477.061C217.726 474.642 221.697 474.456 224.24 477.061ZM207.489 448.088C205.131 442.008 201.781 436.548 197.066 432.205C203.518 432.453 209.785 430.964 215.741 428.297C229.7 435.928 243.535 431.585 255.199 423.147C258.239 436.176 261.776 449.081 267.483 461.241C254.827 465.832 243.163 472.47 231.747 479.543C229.39 465.398 222.689 452.493 207.489 448.088ZM240.123 495.426C239.813 499.583 236.276 502.188 232.368 502.002C232.74 497.473 232.864 492.696 232.616 487.857C236.773 487.795 240.495 490.835 240.123 495.426ZM254.579 487.112C253.276 490.276 249.615 491.827 246.389 490.525C242.977 489.098 241.922 485.623 242.977 482.335C244.466 479.543 247.32 477.744 250.608 478.737C254.144 479.791 256.006 483.762 254.579 487.112ZM269.965 478.302C268.724 481.404 265.126 482.831 262.086 481.59C258.798 480.226 257.805 476.813 258.798 473.649C260.225 470.981 263.016 469.306 266.181 470.237C269.593 471.292 271.33 475.076 269.965 478.302ZM285.165 468.686C283.738 471.354 280.947 473.029 277.782 472.098C274.37 471.043 272.633 467.259 273.998 464.033C275.239 460.931 278.837 459.504 281.877 460.744C285.227 462.047 286.22 465.46 285.165 468.686ZM281.381 450.942C280.14 454.044 276.542 455.471 273.502 454.23C270.213 452.865 269.221 449.453 270.213 446.289C271.64 443.621 274.432 441.946 277.596 442.876C280.947 443.931 282.684 447.716 281.381 450.942ZM265.808 382.386C266.305 373.203 280.264 373.079 280.264 382.386C280.264 391.692 266.305 391.63 265.808 382.386ZM277.534 366.937C277.969 358.934 290.129 358.81 290.129 366.937C290.067 375.065 277.969 375.003 277.534 366.937ZM288.764 352.978C289.198 345.222 300.924 345.16 300.924 352.978C300.924 360.795 289.198 360.733 288.764 352.978ZM311.223 338.212C311.223 346.029 299.497 345.967 299.063 338.212C299.497 330.456 311.223 330.332 311.223 338.212ZM300.924 323.384C300.924 331.201 289.198 331.139 288.764 323.384C289.198 315.628 300.924 315.566 300.924 323.384ZM290.067 309.424C290.067 317.552 277.907 317.428 277.472 309.424C277.969 301.421 290.067 301.297 290.067 309.424ZM280.264 293.976C280.264 303.282 266.305 303.22 265.808 293.976C266.305 284.794 280.264 284.67 280.264 293.976ZM277.286 204.511C280.574 203.147 283.676 204.884 285.165 207.738C287.461 214.997 277.038 219.774 273.998 212.391C272.695 209.289 274.184 205.814 277.286 204.511ZM281.381 225.42C282.684 228.522 281.195 231.996 278.093 233.299C274.804 234.664 271.702 232.927 270.213 230.073C267.856 222.752 278.279 217.975 281.381 225.42ZM269.965 198.059C271.268 201.161 269.779 204.636 266.677 205.938C263.389 207.303 260.287 205.566 258.798 202.712C256.502 195.391 266.925 190.676 269.965 198.059ZM254.579 189.311C255.882 192.475 254.331 196.136 251.166 197.439C247.754 198.804 244.59 197.066 242.977 194.088C240.619 186.581 251.415 181.618 254.579 189.311ZM240.123 180.936C240.495 185.465 236.773 188.567 232.616 188.567C232.864 183.727 232.74 178.95 232.368 174.421C236.214 174.235 239.813 176.779 240.123 180.936ZM231.747 196.818C243.163 203.891 254.827 210.53 267.483 215.121C261.776 227.281 258.239 240.186 255.199 253.214C243.535 244.777 229.7 240.434 215.741 248.065C209.785 245.397 203.456 243.908 197.066 244.156C201.781 239.813 205.131 234.354 207.489 228.274C222.689 223.869 229.39 210.964 231.747 196.818ZM218.905 207.924C222.503 211.46 217.105 216.858 213.383 213.446C209.971 209.723 215.368 204.387 218.905 207.924ZM215.12 190.304C217.602 187.822 221.759 187.822 224.24 190.304C226.722 192.786 226.722 196.88 224.24 199.362C221.697 201.906 217.726 201.72 215.12 199.362C212.763 196.756 212.576 192.848 215.12 190.304ZM224.178 180.625C221.262 183.479 216.857 183.293 213.941 180.625C211.274 177.709 211.087 173.304 213.941 170.45C216.733 167.659 221.386 167.659 224.178 170.45C226.97 173.242 226.97 177.896 224.178 180.625ZM220.518 150.287C223.31 153.079 223.31 157.67 220.518 160.462C217.602 163.316 213.197 163.13 210.281 160.462C207.613 157.546 207.427 153.141 210.281 150.287C213.135 147.557 217.726 147.557 220.518 150.287ZM216.547 141.353C214.003 143.835 210.219 143.71 207.675 141.353C205.318 138.809 205.193 134.963 207.675 132.481C210.095 130.061 214.127 130.061 216.547 132.481C218.967 134.9 218.967 138.933 216.547 141.353ZM205.69 123.485C203.456 121.065 203.27 117.343 205.69 114.923C208.047 112.565 211.956 112.565 214.314 114.923C219.835 120.507 211.46 128.82 205.69 123.485ZM202.464 97.2411C204.821 94.8835 208.73 94.8835 211.087 97.2411C216.609 102.763 208.233 111.076 202.464 105.803C200.23 103.383 200.044 99.6607 202.464 97.2411ZM206.186 184.286C207.117 192.724 207.613 202.774 206.372 212.391C203.146 223 198.679 236.463 186.581 239.751C183.727 240.496 180.935 240.372 178.143 239.937C188.442 232.989 193.654 220.58 195.143 208.11C197.438 188.505 192.599 168.961 190.055 149.604C193.53 149.046 197.004 148.426 200.478 147.867C202.402 160.027 204.821 172.064 206.186 184.286ZM199.734 143.4C191.482 144.827 183.169 146.192 174.917 147.619C174.669 144.331 174.607 141.043 174.731 137.754C182.61 136.203 190.49 134.59 198.369 133.039C198.803 136.452 199.237 139.926 199.734 143.4ZM184.72 94.0149C187.077 91.6573 190.986 91.6573 193.343 94.0149C198.865 99.5366 190.49 107.85 184.72 102.577C182.424 100.157 182.3 96.4345 184.72 94.0149ZM197.562 110.704C197.314 116.66 197.5 122.554 197.997 128.448C190.427 129.937 182.796 131.488 175.227 132.977C176.716 125.408 178.267 117.839 179.756 110.27C185.65 110.766 191.544 110.952 197.562 110.704ZM166.79 91.7814C169.209 89.3618 173.242 89.3618 175.661 91.7814C178.081 94.201 178.081 98.2337 175.661 100.653C173.118 103.135 169.333 103.011 166.79 100.653C164.494 98.1097 164.308 94.2631 166.79 91.7814ZM164.742 108.471C168.216 108.967 171.691 109.463 175.165 109.836C173.614 117.715 172.001 125.532 170.45 133.411C167.1 133.536 163.812 133.474 160.523 133.225C161.888 124.974 163.315 116.722 164.742 108.471ZM147.619 87.8107C150.41 85.0188 155.064 85.0188 157.855 87.8107C160.647 90.6026 160.647 95.1937 157.855 97.9856C154.94 100.84 150.535 100.653 147.619 97.9856C144.951 95.0696 144.703 90.6646 147.619 87.8107ZM160.213 107.788C159.655 111.263 159.034 114.675 158.476 118.149C139.057 115.668 119.452 110.828 99.7222 113.124C87.1898 114.613 74.7814 119.762 67.7707 130.061C67.3364 127.269 67.2123 124.477 67.9568 121.686C71.245 109.649 84.7701 105.182 95.3793 101.956C105.058 100.715 115.109 101.212 123.608 102.142C135.955 103.445 148.053 105.865 160.213 107.788ZM99.9704 89.3618C103.569 92.8981 98.1712 98.2958 94.4487 94.8835C91.0364 91.223 96.434 85.8254 99.9704 89.3618ZM108.594 84.0882C111.076 81.6065 115.233 81.6065 117.714 84.0882C120.196 86.5699 120.196 90.6646 117.714 93.1463C115.171 95.69 111.2 95.5039 108.594 93.1463C106.237 90.6026 106.051 86.6319 108.594 84.0882ZM137.568 94.3251C134.652 97.179 130.247 96.9929 127.331 94.3251C124.663 91.4091 124.477 87.0042 127.331 84.1502C130.123 81.3584 134.776 81.3584 137.568 84.1502C140.36 86.9421 140.36 91.5953 137.568 94.3251ZM127.021 68.2675C131.177 68.5777 133.783 72.1141 133.597 75.9607C129.068 75.5885 124.229 75.4644 119.39 75.7126C119.39 71.6178 122.43 67.9573 127.021 68.2675ZM118.707 53.8738C121.871 55.1767 123.422 58.8372 122.119 62.0013C120.692 65.4136 117.156 66.4683 113.93 65.4136C111.076 63.9246 109.339 61.0707 110.331 57.7824C111.386 54.2461 115.295 52.4468 118.707 53.8738ZM109.897 38.4874C112.999 39.7283 114.488 43.2647 113.185 46.3667C111.82 49.655 108.408 50.6476 105.182 49.655C102.452 48.228 100.777 45.4361 101.77 42.334C102.824 38.9217 106.609 37.1845 109.897 38.4874ZM92.2152 26.6374C93.5801 23.3492 96.9924 22.3565 100.219 23.3492C102.948 24.7762 104.624 27.5681 103.631 30.6701C102.576 34.0204 98.7916 35.8196 95.5034 34.4547C92.4013 33.2759 90.9123 29.7395 92.2152 26.6374ZM74.3471 30.9804C75.4018 27.6301 79.1864 25.8309 82.4746 27.1958C85.5767 28.4366 87.0657 31.973 85.7628 35.0751C84.3979 38.3633 80.9856 39.356 77.7594 38.3633C75.0296 36.8743 73.3544 34.1445 74.3471 30.9804ZM56.9754 35.7576C58.0301 32.2832 62.0008 30.422 65.351 31.8489C68.5152 33.1518 70.0662 36.8123 68.7633 39.9764C67.3364 43.3887 63.8 44.4434 60.5738 43.3887C57.7199 41.8997 55.9207 39.0458 56.9754 35.7576ZM92.7735 40.9691C97.3647 53.5636 104.003 65.2275 111.138 76.5811C96.9304 78.8767 83.9636 85.5772 79.5586 100.777C73.4785 103.135 67.9568 106.485 63.6139 111.201C63.862 104.81 62.373 98.544 59.7052 92.5879C67.3364 78.6285 62.9934 64.9173 54.5557 53.2534C67.6466 50.2133 80.6133 46.677 92.7735 40.9691ZM53.377 77.9461C48.3516 77.6979 48.2895 70.1288 53.377 70.1288C58.4644 70.1288 58.4023 77.6979 53.377 77.9461ZM49.8406 36.7503C52.6945 39.8523 52.1361 44.1953 49.3442 46.8631C46.1181 43.2646 42.6437 39.9764 39.1073 36.9984C41.8992 33.9584 46.7385 33.4 49.8406 36.7503ZM44.567 53.9359C52.8806 53.9359 52.8186 66.3442 44.567 66.7785C36.3154 66.3442 36.2534 53.9359 44.567 53.9359ZM30.4835 39.9764C39.7898 39.9764 39.7277 53.8738 30.4835 54.3701C21.2393 53.8738 21.1772 39.9764 30.4835 39.9764ZM13.6081 28.3126C22.9144 28.3126 22.8524 42.2099 13.6081 42.7063C4.36387 42.1479 4.30183 28.3126 13.6081 28.3126ZM-1.90236 18.5099C6.22513 18.5099 6.16309 30.6081 -1.90236 31.0424C-9.90576 30.6081 -10.0298 18.5099 -1.90236 18.5099ZM-15.8618 7.65261C-7.98246 7.65261 -8.0445 19.3165 -15.8618 19.7508C-23.6791 19.3785 -23.7411 7.65261 -15.8618 7.65261ZM-30.8759 -2.5843C-30.8139 -2.5843 -30.8139 -2.5843 -30.7518 -2.5843C-22.8725 -2.5843 -22.9346 9.07958 -30.7518 9.51387C-30.8139 9.51387 -30.8139 9.51387 -30.8759 9.51387V-2.5843ZM-30.8759 16.5866C-30.8139 16.5246 -30.8139 16.5246 -30.7518 16.4626C-26.7191 20.8675 -22.3762 24.9003 -17.8471 28.7469C-22.128 35.1992 -26.4709 41.5895 -30.7518 48.0419C-30.8139 47.9798 -30.8139 47.9178 -30.8759 47.9178V16.5866ZM-30.8759 55.9212C-30.8139 55.8591 -30.8139 55.8591 -30.7518 55.7971C-23.6791 63.3042 -15.3034 69.1982 -6.92775 75.0921C-6.80367 75.2783 -6.67958 75.4644 -6.49346 75.6505C-3.8877 78.1942 -2.46074 82.289 -2.08849 86.5699C-1.90236 91.3471 -3.32932 96.2484 -6.61754 99.0403C-13.4421 104.872 -23.4929 100.902 -29.0767 95.4419C-29.573 95.0076 -30.1935 94.7594 -30.8139 94.8214V55.9212H-30.8759ZM-30.8759 105.431C-30.8139 105.431 -30.8139 105.431 -30.7518 105.431C-21.1974 105.431 -13.1319 113.186 -12.7597 122.678C-12.3254 132.977 -20.701 140.981 -30.7518 141.353C-30.8139 141.353 -30.8139 141.353 -30.8759 141.353V105.431ZM-30.8759 169.272C-30.8139 169.272 -30.8139 169.272 -30.7518 169.272C-25.6644 169.272 -25.7264 176.841 -30.7518 177.089C-30.8139 177.089 -30.8139 177.089 -30.8759 177.089V169.272ZM-30.8759 185.03C-30.8139 185.03 -30.8139 185.03 -30.7518 185.03C-8.97513 185.03 9.57539 200.231 14.7869 220.953C11.1264 223 7.34188 224.799 3.55733 226.598C0.765442 210.033 -13.3181 197.066 -30.7518 197.066C-30.8139 197.066 -30.8139 197.066 -30.8759 197.066V185.03ZM-30.8759 202.092C-30.8139 202.092 -30.8139 202.092 -30.7518 202.092C-15.4275 202.092 -2.89503 213.942 -1.2199 228.832C-5.43875 230.879 -9.65759 233.051 -13.5042 235.656C-13.194 234.416 -13.0079 233.051 -13.0079 231.686C-13.0079 222.069 -21.0733 214.004 -30.7518 214.004C-30.8139 214.004 -30.8139 214.004 -30.8759 214.004V202.092ZM-30.8759 219.091C-30.8139 219.091 -30.8139 219.091 -30.7518 219.091C-23.8652 219.091 -18.0953 224.799 -18.0953 231.686C-18.0953 238.821 -23.8652 243.97 -30.7518 244.28C-30.8139 244.28 -30.8139 244.28 -30.8759 244.28V219.091ZM-30.8759 284.794C-30.8139 284.732 -30.8139 284.732 -30.7518 284.67C-28.4563 287.275 -26.0366 289.881 -24.1754 292.859C-21.0113 297.947 -20.7631 303.592 -22.2521 309.3C-24.1134 316.683 -28.084 323.322 -30.7518 330.394C-30.8139 330.332 -30.8139 330.208 -30.8759 330.146V284.794ZM-30.8759 346.277C-30.8139 346.215 -30.8139 346.091 -30.7518 346.029C-28.084 353.102 -24.1134 359.74 -22.2521 367.123C-20.8872 372.521 -20.9492 377.981 -23.8031 382.944C-25.6644 386.17 -28.2702 388.962 -30.7518 391.754C-30.8139 391.692 -30.8139 391.692 -30.8759 391.63V346.277ZM-30.8759 432.081C-25.9746 431.833 -18.0953 436.238 -18.0953 444.676C-18.0953 451.5 -23.8652 457.332 -30.8759 457.27V432.081ZM-30.8759 462.357C-21.1353 462.42 -13.0699 454.292 -13.0699 444.676C-13.0699 443.311 -13.256 441.946 -13.5662 440.643C-9.65759 443.249 -5.50079 445.42 -1.28194 447.467C-2.95707 462.295 -15.3654 474.27 -30.938 474.27V462.357H-30.8759ZM-30.8759 479.295C-13.4421 479.357 0.7034 466.452 3.55733 449.763C7.34188 451.562 11.1885 453.361 14.7869 455.409C9.51335 476.069 -8.85105 491.331 -30.8759 491.331V479.295ZM-30.8759 499.334C-26.0987 498.962 -25.3542 507.276 -30.8759 507.152V499.334ZM-30.8759 535.009C-23.0586 534.698 -12.6976 541.647 -12.7597 552.939C-12.8217 562.679 -20.8872 570.931 -30.8759 570.869V535.009ZM-30.8759 581.54C-29.1387 581.602 -16.8545 568.573 -6.67958 577.321C-3.57749 579.989 -2.08848 584.58 -2.15053 589.171C-2.39869 593.638 -3.82566 598.043 -6.5555 600.711C-6.74162 600.897 -6.86571 601.083 -6.98979 601.269C-15.3654 607.163 -23.7411 613.057 -30.8139 620.564C-30.8759 620.502 -30.8759 620.502 -30.938 620.44V581.54H-30.8759ZM-30.8759 628.506C-30.8139 628.444 -30.8139 628.382 -30.7518 628.382C-26.4709 634.772 -22.128 641.224 -17.8471 647.615C-22.3762 651.399 -26.7191 655.494 -30.7518 659.899C-30.8139 659.837 -30.8139 659.837 -30.8759 659.775V628.506ZM-30.8759 666.848C-23.555 666.351 -22.3762 679.07 -30.8759 678.946V666.848Z" fill="white"/>

<g>
</g>
<g>
</g>
<g>
</g>
<g>
</g>
<g>
</g>
<g>
</g>
<g>
</g>
<g>
</g>
<g>
</g>
<g>
</g>
<g>
</g>
<g>
</g>
<g>
</g>
<g>
</g>
<g>
</g>
</svg>
